<?xml version="1.0" standalone="no"?>
<!DOCTYPE svg PUBLIC "-//W3C//DTD SVG 20010904//EN"
 "http://www.w3.org/TR/2001/REC-SVG-20010904/DTD/svg10.dtd">
<svg version="1.0" xmlns="http://www.w3.org/2000/svg"
 width="640.000000pt" height="1280.000000pt" viewBox="0 0 640.000000 1280.000000"
 preserveAspectRatio="xMidYMid meet">
<metadata>
Created by potrace 1.15, written by Peter Selinger 2001-2017
</metadata>
<g transform="translate(0.000000,1280.000000) scale(0.100000,-0.100000)"
fill="#000000" stroke="none">
<path d="M2455 12794 c-226 -22 -428 -63 -550 -111 -49 -20 -166 -74 -260
-120 -147 -74 -182 -97 -270 -173 -153 -133 -224 -229 -359 -483 -102 -190
-147 -325 -171 -506 -26 -202 -15 -354 39 -543 79 -273 205 -458 469 -691 156
-138 209 -177 240 -177 16 0 17 -15 17 -184 l0 -185 -42 -28 c-44 -30 -198
-235 -198 -263 0 -11 -15 -21 -42 -29 -97 -29 -576 -239 -740 -326 -224 -118
-300 -168 -326 -214 -38 -69 -139 -454 -171 -651 -34 -211 -44 -398 -45 -830
-1 -358 1 -429 17 -520 25 -147 39 -173 143 -266 132 -118 303 -259 449 -371
l130 -99 -1 -59 c0 -33 -6 -125 -12 -205 -29 -361 -69 -1206 -59 -1234 13 -34
85 -54 220 -62 78 -4 130 -11 133 -18 2 -6 13 -105 24 -221 15 -159 20 -286
20 -526 0 -460 -20 -676 -81 -859 -64 -193 -79 -442 -79 -1308 0 -572 2 -667
15 -692 13 -25 13 -41 4 -102 -7 -44 -9 -134 -6 -223 6 -188 33 -302 83 -352
l32 -33 168 0 c182 0 195 -3 349 -63 165 -65 498 -84 745 -43 245 41 296 60
354 127 34 40 36 46 36 115 0 113 -16 173 -59 216 -25 25 -50 38 -76 43 -62
10 -139 42 -280 117 -153 81 -261 153 -287 188 -46 63 -50 627 -8 1110 5 63
14 171 20 240 13 146 31 268 66 434 13 65 24 135 24 156 0 20 13 111 29 201
51 278 75 473 131 1029 11 113 25 228 30 256 l11 51 77 7 c42 3 91 9 107 12
l31 6 13 -69 c7 -37 19 -93 27 -123 65 -263 111 -763 96 -1035 -12 -222 14
-434 143 -1135 117 -641 136 -739 166 -860 41 -163 48 -177 105 -191 44 -11
46 -13 40 -41 -20 -98 -28 -229 -23 -358 10 -244 36 -343 99 -377 28 -15 54
-18 168 -16 74 1 175 6 224 11 100 11 206 1 306 -28 106 -31 209 -40 443 -40
312 0 504 30 670 104 57 25 123 90 133 132 11 42 -11 236 -31 275 -40 78 -88
109 -170 109 -99 0 -346 44 -460 82 -119 39 -287 148 -387 250 -39 40 -46 53
-42 76 3 15 -8 90 -25 167 -17 77 -37 178 -45 225 -15 82 -88 446 -140 695
-51 248 -72 429 -91 790 -23 450 -58 868 -90 1070 -2 17 -14 89 -25 160 -11
72 -24 154 -28 182 -5 29 -5 53 -1 53 8 0 160 -62 434 -177 72 -30 164 -62
205 -70 41 -8 84 -17 95 -20 28 -6 46 17 84 112 31 75 61 148 239 580 38 94
87 211 107 260 88 215 521 1265 542 1315 37 90 32 125 -30 201 -29 35 -71 89
-94 119 -48 65 -27 56 -403 195 -157 59 -288 110 -293 114 -4 4 30 39 75 78
112 96 610 599 637 643 34 56 28 85 -21 116 -24 15 -45 28 -47 30 -2 2 46 51
107 109 61 58 117 120 124 137 l13 30 60 -8 c33 -5 112 -9 175 -9 111 0 118 1
184 34 95 46 207 154 245 235 42 88 56 185 41 283 -22 145 -63 249 -137 352
l-40 54 58 59 c71 72 206 236 283 343 111 154 120 194 57 256 -27 28 -47 39
-68 39 -29 0 -138 -61 -217 -122 -131 -102 -290 -239 -347 -300 l-66 -71 -45
27 c-39 23 -56 26 -129 26 -182 -1 -300 -57 -432 -206 -64 -72 -124 -226 -143
-367 -6 -39 -10 -47 -28 -47 -20 0 -217 -129 -385 -251 -144 -105 -286 -221
-418 -340 -73 -66 -137 -118 -143 -114 -13 8 -76 106 -190 295 -166 277 -352
571 -410 649 -104 141 -132 159 -320 215 -118 35 -220 55 -251 49 -18 -3 -39
5 -72 27 -65 43 -171 90 -206 90 -28 0 -30 2 -38 63 -4 34 -5 63 -2 65 4 2 92
-11 195 -27 287 -46 434 -61 605 -61 112 0 168 4 198 15 113 40 332 230 457
398 128 171 175 279 159 370 -26 153 -20 635 10 867 31 244 35 316 25 447 -16
197 -47 316 -123 468 -76 153 -221 346 -329 438 -157 133 -379 245 -620 312
-83 23 -115 26 -293 29 -110 2 -218 2 -240 0z m205 -7935 c0 -6 -4 -7 -10 -4
-5 3 -10 11 -10 16 0 6 5 7 10 4 6 -3 10 -11 10 -16z"/>
</g>
</svg>
