<?xml version="1.0" standalone="no"?>
<!DOCTYPE svg PUBLIC "-//W3C//DTD SVG 20010904//EN"
 "http://www.w3.org/TR/2001/REC-SVG-20010904/DTD/svg10.dtd">
<svg version="1.0" xmlns="http://www.w3.org/2000/svg"
 width="1280.000000pt" height="1153.000000pt" viewBox="0 0 1280.000000 1153.000000"
 preserveAspectRatio="xMidYMid meet">
<metadata>
Created by potrace 1.15, written by Peter Selinger 2001-2017
</metadata>
<g transform="translate(0.000000,1153.000000) scale(0.100000,-0.100000)"
fill="#000000" stroke="none">
<path d="M1012 11500 c-12 -16 -66 -53 -119 -82 -53 -29 -106 -67 -119 -83
-12 -17 -37 -80 -54 -140 -42 -143 -50 -158 -130 -235 -57 -55 -70 -74 -84
-125 -60 -205 -87 -458 -68 -628 14 -115 42 -228 72 -287 11 -21 47 -60 80
-86 33 -26 95 -92 137 -148 151 -198 250 -277 433 -346 94 -36 95 -36 98 -72
3 -30 -3 -44 -34 -78 -20 -22 -35 -42 -33 -44 2 -1 30 -8 62 -15 37 -8 70 -23
90 -40 29 -27 31 -33 37 -124 4 -58 12 -102 20 -112 17 -21 83 -55 107 -55 42
-1 44 -16 6 -42 -61 -39 -118 -58 -293 -94 -91 -19 -186 -41 -211 -50 -42 -13
-79 -11 -79 5 -1 31 -20 30 -124 -10 -137 -51 -261 -79 -351 -78 -109 1 -119
7 -123 60 -4 59 11 97 44 109 33 13 50 0 60 -43 7 -34 21 -57 35 -57 5 0 17
17 28 38 43 85 112 136 336 250 159 82 230 132 256 181 10 19 17 37 15 39 -2
2 -36 -11 -75 -28 -198 -87 -484 -184 -751 -255 -122 -33 -139 -40 -176 -77
-114 -110 -133 -290 -47 -438 43 -73 140 -161 224 -203 126 -62 112 -66 284
83 166 144 254 207 360 255 86 40 525 197 618 221 64 17 69 17 96 1 40 -23 46
-22 141 24 103 50 136 56 375 74 105 8 204 17 221 20 29 7 31 5 47 -45 37
-113 12 -239 -55 -280 -33 -20 -88 -27 -88 -12 0 5 -19 17 -41 28 -58 26 -89
52 -89 76 0 18 -4 19 -37 13 -110 -20 -229 -93 -295 -180 -47 -61 -84 -154
-70 -175 5 -8 37 -35 72 -60 77 -55 100 -85 103 -134 2 -20 9 -41 17 -46 8 -6
46 -10 83 -10 74 0 129 -18 145 -47 9 -15 -16 -45 -177 -208 -243 -246 -334
-369 -413 -555 -53 -128 -68 -209 -78 -435 -16 -354 -25 -416 -72 -492 l-19
-33 33 -67 c28 -57 33 -79 33 -136 0 -65 -2 -70 -33 -98 -39 -35 -53 -29 -71
30 -13 44 -35 71 -56 71 -10 0 -5 -14 16 -45 46 -68 75 -149 131 -359 29 -110
65 -223 86 -266 l36 -75 6 59 c4 45 11 62 29 77 13 10 28 19 35 19 22 0 38
-65 43 -181 l6 -117 49 -6 c37 -5 59 -16 89 -43 46 -42 63 -71 112 -199 67
-173 108 -232 192 -270 73 -35 78 -32 55 26 -32 80 -55 123 -175 315 -129 207
-165 275 -200 378 -47 141 -56 235 -65 657 -5 217 -12 418 -16 447 -7 57 -15
62 -105 77 -21 4 -42 13 -49 21 -18 21 -4 65 20 65 10 0 22 5 25 10 3 6 19 10
35 10 28 0 29 -2 32 -52 4 -77 27 -75 56 4 12 35 22 77 22 94 0 31 0 31 -72
40 -39 5 -73 14 -74 19 -2 6 18 20 44 33 52 26 83 51 124 100 37 44 38 99 3
141 l-26 30 41 11 c62 17 102 64 144 174 52 134 90 175 177 191 l36 7 6 -84
c28 -353 -24 -907 -140 -1482 l-46 -228 29 -23 c75 -61 203 -102 277 -89 57
10 155 45 167 59 17 20 14 108 -4 143 -21 40 -71 81 -128 105 l-48 20 0 79 c0
46 6 93 14 113 16 37 67 75 103 75 12 0 24 4 27 9 13 20 37 354 43 586 6 281
9 269 -69 294 -47 15 -54 39 -29 89 11 22 29 91 39 155 29 169 68 222 131 177
80 -56 161 -185 200 -315 45 -150 53 -227 58 -559 l5 -319 -28 7 c-16 4 -41
10 -55 13 l-26 5 -6 -108 c-4 -59 -12 -137 -17 -173 -6 -36 -13 -80 -16 -98
l-5 -32 -105 2 c-81 2 -107 -1 -113 -12 -18 -28 -1 -44 39 -37 21 3 108 -3
195 -14 87 -11 160 -18 162 -16 2 2 -3 32 -13 67 -20 78 -23 228 -5 290 7 25
23 59 36 75 20 25 25 27 39 15 49 -41 93 -152 137 -351 37 -167 67 -255 108
-315 17 -25 31 -48 31 -51 0 -2 -45 -3 -100 -2 -103 3 -119 -3 -120 -39 0 -18
102 -17 265 2 367 43 690 173 843 339 23 25 46 46 50 46 13 0 102 -82 102 -94
0 -19 -72 -66 -215 -140 -71 -37 -143 -78 -160 -91 l-30 -25 25 0 c14 0 45 14
70 30 51 34 63 36 79 16 10 -12 5 -21 -26 -50 -43 -41 -127 -86 -158 -86 -12
0 -30 6 -40 14 -17 12 -20 10 -34 -18 -13 -25 -32 -37 -94 -62 l-78 -31 -37
18 c-50 26 -75 24 -154 -13 l-69 -31 -62 66 c-66 71 -82 79 -92 47 -8 -26 18
-74 75 -134 62 -67 76 -96 91 -194 22 -142 -11 -314 -87 -467 -101 -200 -271
-356 -469 -430 -81 -31 -196 -55 -263 -55 -41 -1 -45 -2 -27 -13 12 -7 67 -13
146 -14 81 -1 135 -6 150 -14 23 -12 23 -13 -21 -26 -54 -16 -153 -30 -276
-37 l-91 -6 -84 62 c-197 144 -348 335 -490 619 -45 90 -62 139 -78 218 -11
55 -27 114 -35 130 -16 29 -75 85 -83 77 -7 -7 17 -168 38 -246 68 -260 176
-434 593 -953 30 -37 43 -42 311 -132 154 -51 456 -157 670 -235 679 -247 987
-349 1315 -434 149 -39 471 -108 477 -102 12 11 -370 133 -862 276 -360 104
-652 197 -810 257 -113 43 -297 125 -292 130 2 2 20 -3 40 -12 49 -20 192 -57
372 -95 236 -49 362 -87 470 -139 80 -39 124 -54 220 -71 170 -32 453 -105
795 -206 378 -111 772 -220 873 -240 79 -16 182 -13 200 5 5 5 -8 12 -29 15
-55 11 -231 68 -389 126 -402 149 -545 186 -605 156 -32 -16 -33 -15 -68 16
-78 68 -230 122 -504 178 -468 97 -599 131 -712 184 -61 29 -67 34 -41 35 17
0 57 -6 90 -14 72 -17 119 -19 146 -5 28 15 24 25 -18 43 -61 26 -136 44 -340
81 -391 72 -493 103 -493 152 0 7 55 68 123 136 133 134 227 263 315 436 99
192 134 334 117 468 -6 47 -9 55 -16 37 -12 -33 -56 -41 -81 -15 -16 16 -22
37 -26 96 l-5 76 37 0 c47 0 99 22 142 60 19 16 52 34 75 40 37 10 43 9 65
-11 37 -35 91 -150 110 -236 21 -95 15 -242 -15 -358 -26 -97 -94 -241 -149
-314 -55 -72 -50 -81 48 -96 48 -8 70 -20 70 -40 0 -9 -26 -14 -89 -17 -105
-5 -144 -23 -139 -66 6 -50 120 -102 273 -123 96 -13 174 -5 235 24 l45 22
-170 5 c-212 6 -235 16 -148 61 47 24 52 24 273 21 200 -2 234 0 305 18 189
48 321 152 360 283 16 54 6 74 -53 112 -82 52 -65 88 59 132 94 32 219 43 238
20 11 -14 9 -21 -17 -47 l-30 -30 69 0 c67 0 69 -1 69 -25 0 -14 11 -53 25
-86 15 -33 25 -70 23 -82 -3 -19 1 -22 30 -19 19 2 55 12 80 23 25 11 56 18
67 15 21 -5 45 -43 45 -71 0 -21 -39 -42 -92 -50 -75 -10 -80 -34 -22 -93 106
-107 157 -188 275 -442 151 -325 250 -439 419 -481 100 -25 118 -36 158 -98
36 -55 39 -76 15 -110 -20 -30 -19 -31 121 -104 123 -65 187 -123 212 -195 17
-48 22 -53 59 -63 22 -6 119 -33 215 -60 225 -65 368 -95 513 -111 90 -9 114
-14 106 -24 -5 -7 -21 -15 -34 -18 -26 -7 -35 -26 -11 -26 7 0 78 -19 157 -42
123 -35 159 -42 249 -43 101 -2 107 -4 164 -39 127 -77 341 -143 736 -226 303
-64 477 -117 612 -185 62 -32 76 -35 153 -35 96 0 149 -17 160 -50 4 -12 5
-23 3 -24 -5 -5 -151 28 -338 77 -185 48 -345 72 -395 59 -45 -12 438 -129
768 -186 35 -7 37 -5 37 19 0 15 9 38 20 52 40 51 35 55 -169 104 -199 49
-334 100 -313 121 6 6 37 13 67 16 53 4 64 1 161 -48 100 -51 106 -52 171 -48
38 3 75 8 85 12 11 5 18 1 23 -13 10 -33 56 -50 167 -65 57 -7 104 -12 106
-11 4 3 -172 107 -235 139 -319 160 -826 284 -1573 387 -139 19 -242 38 -251
46 -9 7 -21 30 -28 51 -24 71 -28 74 -117 61 -86 -12 -196 -5 -283 17 -53 14
-151 61 -151 73 0 3 25 17 56 30 131 57 228 161 404 436 41 64 95 139 120 166
l45 50 43 -15 c122 -44 336 -82 737 -131 160 -19 301 -37 315 -40 18 -3 16 0
-10 11 -59 27 -252 71 -540 123 -421 77 -574 116 -585 150 -3 10 0 35 7 57 17
50 66 84 122 84 74 0 300 -60 756 -200 549 -169 782 -225 1092 -265 163 -21
178 -18 103 22 -91 47 -173 71 -365 104 -288 49 -342 64 -400 111 -58 46 -70
50 -465 139 -375 84 -532 123 -661 164 l-112 35 -3 88 c-4 137 -2 161 15 187
15 23 23 25 89 25 88 0 124 -10 251 -67 126 -56 186 -69 256 -54 49 11 54 10
67 -9 8 -12 39 -32 68 -44 29 -13 56 -29 59 -35 4 -6 35 -11 72 -11 128 0 336
-38 704 -130 129 -32 278 -68 330 -80 52 -11 106 -23 120 -26 92 -21 -167 88
-355 149 -179 58 -305 93 -795 218 -562 143 -737 194 -698 204 14 4 75 0 135
-9 143 -21 185 -20 214 3 13 11 21 22 18 26 -4 3 -89 23 -190 44 -199 42 -281
67 -329 101 -28 20 -30 26 -25 64 4 24 -2 83 -14 146 -11 58 -23 124 -26 148
l-7 43 135 -70 c146 -75 203 -95 315 -112 l72 -11 0 -54 0 -54 73 6 c143 13
304 -22 567 -123 156 -59 338 -123 351 -123 17 0 -15 61 -47 90 -64 56 -192
108 -428 174 -164 47 -222 56 -341 56 l-100 0 -20 36 c-56 105 -232 183 -450
199 -125 10 -125 10 -125 53 0 49 -21 77 -79 107 -69 35 -101 76 -101 131 0
24 3 44 8 44 4 0 25 -11 47 -25 22 -13 43 -25 48 -25 15 0 6 61 -23 155 -31
99 -38 172 -20 205 9 17 14 17 117 -5 60 -12 187 -43 283 -68 259 -67 472
-117 585 -137 l100 -18 -25 20 c-77 64 -302 132 -750 228 -179 38 -331 75
-334 82 -1 2 -26 100 -55 219 -29 119 -75 281 -102 360 -27 79 -53 153 -56
163 -6 19 -1 19 131 13 292 -14 607 -82 805 -173 72 -33 78 -34 233 -39 117
-4 167 -9 189 -20 161 -84 415 -147 987 -245 439 -75 514 -93 665 -156 72 -31
161 -62 197 -69 36 -7 162 -16 280 -19 296 -9 395 -27 928 -167 123 -33 225
-59 228 -59 2 0 4 20 4 44 0 95 -69 123 -338 135 -162 7 -183 10 -207 30 -51
39 -120 53 -290 58 -151 5 -163 7 -220 34 -81 39 -202 64 -435 89 -248 26
-242 25 -700 126 -473 105 -665 152 -1220 304 -691 188 -903 241 -1170 290
-63 11 -123 23 -133 26 -9 3 -31 33 -49 67 -95 189 -276 375 -518 532 -52 34
-125 79 -162 99 -38 21 -68 42 -68 47 0 5 -22 58 -48 117 -27 59 -52 115 -55
124 -4 12 7 25 43 48 103 66 147 162 161 350 21 275 44 355 121 410 l39 28 71
-24 c95 -32 437 -116 628 -153 223 -44 329 -63 758 -136 210 -36 471 -83 579
-105 109 -22 201 -40 206 -40 22 0 -85 77 -148 106 -144 67 -284 91 -730 124
-261 20 -330 33 -425 80 -85 42 -85 42 -179 37 -113 -5 -151 2 -206 42 -56 40
-108 50 -300 61 -164 9 -250 22 -296 46 -24 12 -27 19 -33 102 -10 138 -46
260 -108 365 -15 26 -28 52 -28 57 0 16 80 11 170 -10 106 -26 162 -27 195 -6
64 42 -9 66 -220 73 -177 6 -223 13 -250 43 -38 42 9 137 106 210 33 25 68 59
79 75 28 47 34 123 15 196 -21 85 -56 142 -129 214 -169 166 -423 203 -641 93
-22 -12 -94 -56 -161 -99 -171 -110 -163 -108 -221 -71 -26 17 -102 56 -168
87 -245 114 -305 155 -350 236 -24 44 -29 66 -29 119 0 76 17 114 93 209 28
35 59 77 70 95 49 80 65 252 35 375 -9 36 -38 121 -66 187 l-49 121 -50 6
c-71 9 -115 33 -177 99 -64 67 -95 77 -162 54 -25 -9 -48 -16 -52 -16 -5 0 -8
22 -8 49 0 49 -9 61 -45 61 -8 0 -39 -22 -71 -50 -103 -90 -216 -117 -449
-105 -82 4 -244 9 -360 11 -193 3 -225 6 -395 39 -257 51 -376 55 -541 21
-135 -27 -299 -77 -338 -102 -26 -18 -19 -30 19 -36 33 -6 -28 -14 -187 -26
-89 -7 -133 -15 -165 -31 -25 -11 -49 -21 -55 -21 -18 0 -49 58 -72 132 -46
151 -62 163 -209 155 -59 -3 -142 -14 -185 -25 -90 -22 -95 -13 -21 35 56 37
84 68 84 92 -1 17 -187 167 -284 227 -52 33 -62 36 -94 28 -25 -6 -43 -20 -59
-44 -34 -54 -64 -90 -74 -90 -5 0 -15 11 -21 25 -10 23 -8 29 20 58 18 18 32
43 32 55 0 21 -3 22 -73 16 -54 -5 -89 -2 -132 10 -33 10 -67 19 -75 21 -8 2
-25 -9 -38 -25z m82 -100 c-11 -11 -38 -23 -60 -27 -36 -6 -38 -5 -24 11 17
22 46 35 80 35 l24 1 -20 -20z m3672 -502 c-9 -45 -32 -66 -89 -83 -47 -14
-252 -21 -217 -8 8 4 44 24 80 46 77 47 152 76 199 77 32 0 33 -1 27 -32z
m-649 -36 c13 -24 23 -47 23 -53 0 -5 -20 -9 -45 -9 -33 0 -66 11 -129 44
-109 56 -102 69 33 64 l95 -3 23 -43z m-865 -17 c166 -74 347 -188 510 -321
51 -42 256 -241 456 -442 l364 -367 -6 48 c-13 110 -59 168 -386 482 -90 86
-136 139 -164 188 -22 38 -58 83 -80 101 -67 54 -215 150 -357 232 -74 42
-136 79 -139 81 -3 3 36 3 85 0 231 -14 513 -166 707 -380 46 -51 47 -52 74
-37 41 23 40 36 -8 66 -71 45 -98 75 -98 106 0 25 3 28 33 28 104 0 279 -82
372 -175 75 -74 108 -138 113 -224 l5 -64 -52 5 c-39 4 -62 14 -97 42 -41 31
-73 42 -101 34 -31 -9 42 -90 101 -112 70 -26 177 -45 203 -35 12 5 23 10 23
12 0 2 -11 18 -25 37 -14 19 -25 42 -25 52 0 63 143 -59 185 -158 28 -68 31
-164 4 -164 -6 0 -36 24 -68 54 -31 30 -69 60 -85 66 -27 10 -28 10 -22 -17
23 -93 111 -186 316 -336 184 -134 265 -202 321 -269 47 -56 89 -126 89 -147
0 -27 -181 -31 -284 -7 -84 20 -185 67 -232 108 -29 26 -37 28 -50 17 -11 -9
-14 -23 -11 -44 l5 -31 -73 -11 c-159 -26 -319 -115 -410 -230 -84 -106 -144
-246 -218 -510 l-15 -53 43 0 c23 0 102 -9 176 -21 90 -14 168 -19 237 -17 95
3 102 2 102 -16 0 -29 -86 -107 -153 -139 -32 -15 -86 -35 -122 -44 -57 -14
-67 -20 -97 -62 -120 -167 -298 -310 -453 -361 l-62 -21 -31 -83 c-39 -103
-136 -249 -282 -426 -104 -126 -206 -268 -198 -275 2 -2 27 9 57 23 79 39 163
136 255 296 43 75 101 162 130 193 54 60 130 103 181 103 l30 -1 -28 -20 c-32
-24 -102 -114 -140 -181 -15 -25 -58 -118 -96 -207 -38 -88 -86 -191 -107
-228 -35 -64 -141 -181 -191 -214 -22 -14 -22 -15 -10 -100 8 -49 22 -102 35
-122 l21 -37 -64 -105 c-78 -129 -106 -200 -112 -286 -5 -62 -4 -67 16 -74 30
-9 51 11 51 47 0 21 6 31 20 35 11 3 20 13 20 22 0 42 45 184 83 261 33 67 59
103 127 171 47 47 109 99 137 115 47 26 53 33 53 62 0 38 24 102 39 102 10 0
31 -84 31 -124 0 -54 -44 -158 -116 -276 -107 -176 -126 -216 -131 -280 -4
-42 -1 -67 12 -95 l18 -37 21 28 c66 93 135 127 202 99 44 -18 59 -9 68 39 8
41 27 59 58 54 16 -2 24 -12 29 -35 11 -55 47 -84 123 -97 l40 -8 -31 -14
c-19 -10 -41 -35 -58 -67 -50 -93 -85 -126 -132 -127 -29 0 -30 27 -3 80 18
36 28 100 15 100 -15 0 -151 -75 -230 -128 -108 -71 -192 -143 -262 -226 -54
-63 -64 -86 -37 -86 26 0 57 20 112 73 l52 51 0 -37 c0 -50 -19 -84 -75 -136
-63 -58 -142 -93 -226 -99 l-68 -5 -6 39 c-37 228 -122 472 -220 634 l-35 58
15 58 c37 144 -5 328 -92 405 l-36 31 6 206 c9 346 66 597 258 1137 70 196 73
201 117 235 103 79 244 202 361 315 161 157 365 374 358 381 -11 11 -75 -17
-115 -49 -22 -18 -73 -69 -113 -115 -74 -83 -190 -173 -197 -153 -6 17 74 159
131 231 28 36 88 108 133 160 136 158 200 262 238 388 6 17 3 22 -12 22 -45 0
-86 -44 -137 -145 -42 -83 -56 -103 -90 -122 -22 -12 -50 -23 -63 -23 -20 0
-23 4 -18 28 13 64 17 106 26 277 14 255 33 326 112 411 33 36 38 46 29 63 -6
10 -17 65 -25 121 -16 111 -26 129 -88 161 -49 25 -90 24 -114 -2 -15 -16 -19
-36 -19 -90 0 -38 -1 -69 -3 -69 -11 0 -166 339 -192 420 -38 118 -42 122
-199 199 -57 28 -115 61 -129 72 -33 26 -62 69 -62 92 0 23 10 20 142 -38z
m1846 -6 c17 -6 32 -15 32 -21 0 -5 -17 -42 -37 -82 -45 -86 -138 -183 -208
-215 -46 -21 -54 -22 -105 -11 -65 15 -104 33 -206 100 -42 28 -95 55 -118 62
-56 16 -63 24 -40 49 18 20 25 21 112 15 102 -7 141 2 283 65 131 58 198 67
287 38z m-3599 -38 c6 -10 13 -37 17 -60 8 -51 24 -53 83 -6 51 41 59 42 94
15 39 -31 49 -72 28 -114 -30 -58 4 -65 59 -11 l36 35 37 -65 c27 -46 48 -71
72 -82 34 -16 34 -16 18 -47 -8 -17 -51 -78 -93 -136 -84 -113 -121 -179 -140
-250 l-12 -44 -63 67 c-34 37 -71 67 -81 67 -22 0 -83 -36 -101 -59 -7 -9 -13
-28 -13 -43 0 -34 -21 -37 -50 -8 -15 15 -20 33 -20 69 l0 48 59 27 c39 17 76
26 110 26 91 0 55 53 -49 72 -178 31 -275 -113 -215 -319 l16 -55 39 5 c22 3
84 26 138 51 104 49 179 60 216 33 16 -12 15 -18 -14 -102 -33 -95 -124 -278
-147 -297 -11 -8 -34 -2 -101 30 -171 80 -309 108 -492 99 -119 -5 -120 -5
-120 17 0 33 -31 117 -81 220 -56 116 -63 178 -24 224 15 18 44 41 65 52 21
11 40 27 44 36 3 9 -5 40 -19 70 -27 58 -32 93 -12 98 67 18 71 21 92 76 21
56 28 61 97 75 15 3 36 15 47 26 19 20 41 19 41 -3 0 -6 -13 -26 -30 -45 -35
-40 -36 -44 -11 -74 l18 -23 49 64 c104 136 131 166 178 198 87 58 215 82 235
43z m1526 -25 c288 -86 444 -296 461 -621 7 -131 -11 -268 -53 -400 -27 -82
-32 -92 -68 -112 -63 -35 -194 -74 -279 -83 -68 -7 -222 3 -234 15 -3 2 5 20
17 39 23 36 98 90 233 166 42 23 94 60 114 81 l38 39 -29 0 c-34 0 -75 -23
-161 -90 -85 -66 -161 -108 -213 -116 l-45 -7 21 29 c35 47 121 126 230 208
100 76 160 134 182 175 10 18 8 21 -24 27 -38 7 -110 -8 -159 -33 -17 -9 -92
-78 -166 -154 -110 -113 -140 -139 -163 -139 -39 0 -43 22 -12 74 15 25 22 46
17 46 -6 0 -40 -33 -77 -72 -62 -67 -104 -128 -313 -450 -40 -62 -86 -129
-103 -148 l-30 -35 -104 2 c-95 2 -105 1 -105 -16 0 -24 30 -49 66 -57 17 -3
79 1 138 10 58 9 111 16 116 16 23 0 8 -60 -27 -109 -35 -47 -41 -51 -80 -51
-59 0 -178 24 -243 50 -78 31 -138 71 -279 188 -68 57 -135 111 -148 119 -75
49 5 -65 107 -152 86 -74 88 -85 14 -85 -79 0 -173 91 -208 203 l-17 54 -50
-10 c-71 -14 -159 10 -297 80 -63 32 -116 61 -118 65 -3 4 7 10 21 14 19 5 51
-6 123 -41 111 -53 187 -69 198 -40 4 10 0 38 -9 62 -19 52 -10 83 26 83 12 0
56 -16 97 -36 62 -30 89 -38 155 -42 l80 -4 25 -41 c29 -46 103 -108 172 -143
57 -29 58 -29 58 -4 0 40 -33 86 -126 175 l-95 90 6 45 c33 235 105 428 233
620 134 200 512 517 646 541 23 4 111 6 196 4 133 -2 168 -7 245 -29z m2218
-112 c10 -10 -31 -85 -67 -122 -36 -39 -73 -56 -140 -66 l-49 -8 18 29 c46 73
93 127 130 149 38 22 94 32 108 18z m-33 -250 c0 -21 -5 -24 -35 -24 -32 0
-35 3 -35 28 0 26 2 28 35 24 29 -3 35 -8 35 -28z m-129 16 c31 -17 25 -77
-18 -160 -37 -72 -37 -72 -73 -66 -49 8 -86 51 -100 121 -6 31 -9 59 -5 63 3
4 30 16 58 28 57 25 108 29 138 14z m-1286 -302 c2 -7 6 -30 10 -50 5 -32 3
-38 -11 -38 -42 0 -70 60 -42 88 16 16 38 15 43 0z m-210 -342 c7 -54 -7 -102
-26 -91 -10 7 -13 114 -3 139 10 27 22 8 29 -48z m-2477 -143 l3 -43 -55 0
-56 0 0 46 0 45 53 -3 52 -3 3 -42z m2556 -35 c3 -13 6 -64 6 -114 0 -146 -49
-276 -172 -456 -58 -85 -60 -86 -88 -76 -17 5 -60 38 -97 72 l-67 62 57 42
c90 67 92 136 3 92 -52 -25 -61 -38 -77 -109 -6 -30 -16 -51 -24 -51 -20 0
-78 70 -99 120 -68 161 -74 172 -96 160 -20 -11 -20 -13 -6 -35 33 -51 5 -78
-47 -47 -43 25 -68 72 -74 141 l-6 59 54 6 c222 28 591 105 689 145 35 14 37
14 44 -11z m-839 -108 c12 -14 20 -41 23 -80 l4 -60 -34 0 c-70 0 -104 58 -73
125 20 41 51 47 80 15z m3679 -39 c124 -44 189 -121 189 -223 0 -32 -2 -61 -6
-64 -22 -22 -465 -128 -662 -159 -131 -20 -384 -30 -460 -17 -78 13 -89 8 -69
-29 18 -37 12 -49 -28 -49 -54 0 -205 -40 -326 -87 -64 -25 -157 -61 -205 -80
-49 -19 -123 -43 -165 -53 l-77 -19 -37 24 c-21 14 -50 44 -65 67 -24 35 -28
52 -28 108 0 55 5 73 26 106 83 125 224 190 396 182 l68 -3 3 -53 3 -53 42 5
c23 3 119 15 212 27 379 46 554 124 616 275 21 50 26 55 78 75 105 39 169 49
306 45 100 -3 144 -9 189 -25z m-3864 -41 c25 -25 27 -97 4 -141 -13 -25 -18
-28 -30 -18 -39 32 -54 100 -34 153 11 31 33 33 60 6z m3016 -75 c3 -8 -4 -32
-17 -55 -18 -32 -27 -39 -43 -34 -51 15 -63 61 -24 88 28 20 77 21 84 1z
m-2763 -113 c36 -32 11 -99 -33 -84 -36 12 -50 35 -50 84 l0 49 33 -17 c17 -9
40 -23 50 -32z m-1092 -192 c173 -42 299 -90 299 -114 0 -16 -47 -60 -85 -79
-48 -23 -101 -29 -167 -17 -167 30 -328 166 -328 277 l0 30 54 -27 c29 -15
132 -46 227 -70z m-317 45 c20 -21 40 -91 31 -103 -2 -2 -17 4 -33 12 -37 19
-62 52 -62 82 0 42 30 46 64 9z m1615 -21 c117 -38 181 -72 205 -108 22 -35
21 -36 -22 -36 -58 0 -152 20 -193 40 -62 32 -165 167 -111 145 9 -4 64 -22
121 -41z m2824 -178 c12 -30 -27 -45 -64 -25 -20 10 -20 11 -2 24 23 18 59 19
66 1z m-230 -78 c35 -35 98 -115 140 -180 69 -104 76 -119 67 -143 -16 -42
-12 -103 15 -236 14 -68 28 -157 32 -196 7 -82 4 -85 -72 -87 -60 -1 -81 20
-95 101 -6 37 -18 79 -26 94 -8 16 -25 59 -38 96 -71 198 -75 337 -14 425 l19
27 -43 22 c-48 23 -98 67 -98 84 0 15 29 55 40 55 6 0 38 -28 73 -62z m600 30
c9 -7 20 -28 23 -45 l7 -33 -56 0 -56 0 14 28 c8 15 16 35 19 45 6 20 25 22
49 5z m-3223 -29 c110 -13 137 -30 181 -113 33 -62 22 -123 -50 -272 l-60
-124 -220 0 -220 0 -7 36 c-10 54 3 150 41 307 19 77 35 149 35 159 0 16 11
18 108 18 59 0 146 -5 192 -11z m3556 -40 c18 -18 55 -70 82 -115 l49 -83 -24
-6 c-26 -6 -94 21 -128 52 -27 23 -111 127 -125 153 -9 17 -7 22 12 30 41 17
98 4 134 -31z m-2068 -105 c24 -17 29 -53 10 -72 -7 -7 -30 -12 -52 -12 -49 0
-86 31 -86 72 0 27 2 28 53 28 31 0 61 -6 75 -16z m1376 -180 c3 -8 2 -12 -4
-9 -6 3 -10 10 -10 16 0 14 7 11 14 -7z m-563 -35 c35 -18 9 -29 -65 -27 -40
1 -78 -2 -84 -6 -22 -13 -12 13 10 28 26 18 109 21 139 5z m177 -47 c52 -49
12 -72 -124 -72 -57 0 -94 4 -88 9 5 5 40 19 77 31 37 12 73 31 80 41 15 25
19 24 55 -9z m812 -48 c0 -25 -80 -214 -90 -214 -34 1 -51 60 -35 125 22 83
125 157 125 89z m-316 -40 c23 -22 20 -37 -10 -51 -35 -16 -44 -9 -44 33 0 27
4 34 19 34 11 0 27 -7 35 -16z m496 -31 c-24 -39 -32 -69 -45 -166 -17 -132
-29 -168 -74 -219 -35 -40 -32 -48 16 -48 30 0 33 -3 33 -31 0 -17 4 -28 10
-24 28 17 63 103 85 208 23 113 49 182 78 205 11 10 19 2 42 -40 72 -133 27
-333 -129 -573 -31 -47 -56 -95 -56 -106 0 -12 17 -52 37 -89 32 -58 35 -70
24 -84 -18 -22 -25 -21 -65 14 -59 52 -76 102 -87 252 -5 74 -16 152 -25 175
-18 48 -63 91 -105 100 -16 3 -29 7 -29 9 0 2 11 15 25 29 32 36 41 68 59 208
9 72 22 131 33 150 24 42 94 77 155 77 l47 0 -29 -47z m-4210 -37 l0 -53 -108
-7 c-59 -4 -119 -3 -131 2 l-24 9 33 23 c27 19 189 77 223 79 4 1 7 -23 7 -53z
m2860 23 c0 -6 -4 -18 -10 -28 -14 -27 18 -38 191 -67 82 -13 174 -33 203 -45
70 -26 118 -78 114 -122 -3 -29 -7 -32 -39 -35 -32 -3 -41 2 -72 39 -41 47
-32 46 -208 34 -181 -12 -346 20 -419 82 -56 47 -41 57 104 67 77 4 100 21 90
63 -5 20 -2 23 20 23 14 0 26 -5 26 -11z m-2221 -229 l61 18 0 -71 c0 -142
-31 -188 -130 -195 -58 -4 -60 -4 -60 20 0 13 -14 46 -31 73 -32 51 -35 85
-11 147 l11 26 49 -18 c48 -18 51 -18 111 0z m2128 -52 c40 -15 38 -29 -6 -42
-44 -13 -111 8 -111 34 0 17 7 20 42 20 23 0 57 -5 75 -12z m448 -37 c54 -23
116 -44 137 -47 21 -4 38 -10 38 -14 0 -17 -84 -40 -145 -40 -111 0 -230 63
-248 132 -6 20 -3 20 56 16 42 -4 95 -19 162 -47z m403 -16 c53 -22 77 -65 77
-142 0 -61 1 -63 26 -63 42 0 53 22 45 95 -7 73 -3 77 50 44 77 -47 137 -143
163 -261 l9 -41 -48 6 c-26 3 -81 16 -122 29 -50 15 -98 23 -154 23 l-80 0
-44 108 c-41 102 -54 176 -35 206 9 16 69 13 113 -4z m-913 -50 c38 -8 93 -22
122 -30 52 -15 53 -16 53 -54 0 -71 -30 -212 -66 -310 -46 -122 -113 -250
-282 -531 -168 -280 -214 -375 -252 -517 -33 -128 -47 -159 -97 -214 -41 -45
-59 -48 -128 -15 -60 28 -77 46 -106 111 -20 44 -23 73 -29 255 -7 184 -10
214 -34 290 -85 268 -26 440 283 840 62 80 116 149 120 153 15 16 149 35 246
36 55 0 131 -6 170 -14z m653 -101 c12 -8 22 -20 22 -27 1 -28 21 -42 72 -47
l53 -5 3 -63 c2 -42 -6 -97 -23 -170 -54 -222 -55 -233 -40 -298 28 -115 17
-144 -53 -144 -27 0 -30 4 -36 42 -4 22 -29 107 -56 188 -57 168 -63 227 -29
297 12 24 36 55 55 69 19 15 32 30 29 34 -2 4 -25 3 -50 -3 -25 -6 -48 -8 -51
-5 -7 8 13 47 39 76 18 20 20 27 10 53 -11 28 -10 30 10 23 12 -3 32 -12 45
-20z m-3478 -2 c0 -25 -78 -61 -100 -47 -19 12 10 44 43 48 17 2 38 5 45 5 6
1 12 -2 12 -6z m406 -83 c106 -40 207 -146 221 -232 5 -32 3 -38 -19 -46 -13
-5 -30 -16 -37 -25 -28 -34 -128 -8 -150 40 -14 31 -14 71 -1 79 19 12 10 22
-50 54 -59 32 -100 71 -100 97 0 8 4 14 10 14 5 0 13 12 16 26 7 29 15 28 110
-7z m264 -11 c-1 -13 -34 -58 -43 -58 -14 0 -63 60 -53 64 25 10 96 6 96 -6z
m1260 -39 c0 -29 -2 -30 -37 -27 -36 3 -43 13 -34 53 1 3 17 5 36 5 32 0 35
-2 35 -31z m1955 -144 c109 -33 159 -59 174 -92 16 -35 1 -49 -67 -69 -101
-30 -225 -2 -282 62 -41 47 -39 93 8 146 14 17 17 17 46 -1 17 -10 72 -31 121
-46z m-3870 -4 c9 -29 -2 -44 -51 -70 -42 -23 -46 -23 -62 -7 -15 15 -15 19
-2 44 27 48 103 70 115 33z m-206 -58 c-21 -65 -81 -156 -148 -226 -60 -62
-143 -127 -163 -127 -12 0 36 102 73 157 18 26 80 97 139 156 107 111 125 118
99 40z m3371 -63 c68 -134 44 -247 -112 -524 -37 -66 -64 -124 -62 -128 11
-17 52 -7 77 18 14 14 39 63 56 110 40 111 68 164 86 164 18 0 63 -65 75 -110
9 -33 0 -133 -13 -146 -3 -3 -26 6 -52 21 -25 15 -47 26 -49 24 -1 -2 -8 -24
-15 -49 -7 -25 -44 -132 -82 -237 -80 -223 -104 -340 -95 -454 5 -65 4 -78
-10 -83 -28 -11 -55 -6 -81 14 -44 35 -53 27 -53 -45 0 -65 0 -65 -28 -65 -33
0 -60 26 -91 87 -25 51 -67 68 -130 54 -24 -5 -39 -5 -35 0 11 19 64 39 119
45 55 7 56 8 50 33 -29 114 -33 287 -9 411 31 167 95 312 281 645 56 99 109
199 118 222 19 49 27 48 55 -7z m-1330 23 c0 -12 -72 -73 -86 -73 -35 0 -25
43 15 65 27 15 71 20 71 8z m2185 -158 c88 -23 158 -60 221 -117 51 -47 104
-129 104 -161 0 -7 6 -21 13 -31 13 -17 15 -17 45 -2 68 35 87 27 208 -98 209
-214 345 -457 424 -763 21 -83 50 -235 50 -267 0 -18 -1 -18 -19 -2 -40 36
-134 179 -185 282 -30 60 -78 173 -107 251 l-52 143 -111 74 c-147 99 -224
161 -391 319 l-140 133 -125 22 c-159 29 -248 51 -283 69 -27 13 -28 16 -25
81 l3 67 65 12 c79 15 224 9 305 -12z m-2385 -173 c0 -54 -51 -151 -93 -180
-39 -26 -107 -41 -107 -24 0 6 36 50 81 97 44 47 85 99 91 115 14 42 28 37 28
-8z m2146 -174 c-9 -12 -16 -34 -16 -48 0 -44 -26 -70 -71 -70 -42 0 -46 5
-24 34 8 11 15 39 15 63 l0 43 56 0 c55 0 55 0 40 -22z m-3608 -375 c2 -240
-1 -333 -9 -333 -6 0 -26 15 -44 33 -60 60 -69 167 -29 340 20 88 25 132 22
205 l-3 93 30 -3 30 -3 3 -332z m1735 300 c26 -9 47 -22 47 -28 0 -6 -11 -27
-25 -46 -14 -19 -24 -42 -21 -51 2 -10 0 -18 -5 -18 -12 0 -35 49 -43 93 -4
21 -10 45 -13 53 -7 18 2 18 60 -3z m2046 -41 c10 -47 10 -63 0 -86 -13 -27
-16 -28 -62 -22 -70 8 -81 19 -73 82 9 82 11 84 70 84 l52 0 13 -58z m-2569
31 c-1 -22 -23 -53 -39 -53 -14 0 -14 25 -1 51 13 24 40 25 40 2z m2763 -60
c16 -13 34 -23 41 -23 8 0 12 -30 11 -109 0 -117 0 -117 -51 -74 -47 40 -75
101 -89 190 -5 35 -4 42 12 45 25 6 43 -1 76 -29z m-525 -233 c119 -300 157
-475 135 -628 -6 -42 -17 -90 -24 -107 l-11 -30 -15 35 c-8 19 -48 107 -88
195 -158 347 -185 518 -109 685 19 42 27 51 34 40 5 -9 40 -94 78 -190z m447
-12 c68 -158 124 -321 217 -628 99 -328 148 -474 204 -613 24 -59 44 -109 44
-110 0 -1 -28 -2 -63 -2 -51 -1 -75 -7 -137 -38 -41 -20 -96 -40 -121 -43
l-46 -6 -41 115 c-60 169 -96 299 -173 619 -38 158 -80 332 -94 387 -39 154
-38 155 57 191 90 34 84 67 -16 77 l-55 6 19 36 c10 20 24 55 30 79 l11 42 58
0 58 0 48 -112z m297 86 c15 -8 34 -27 42 -42 23 -45 50 -62 111 -70 l57 -7
48 -140 c26 -77 109 -302 183 -500 322 -859 413 -1216 424 -1676 10 -389 -41
-640 -192 -945 -82 -165 -95 -180 -170 -189 -57 -8 -293 0 -367 12 -36 5 -37
6 -23 26 32 46 22 53 -77 60 -151 11 -244 49 -313 129 -48 56 -68 97 -122 243
-68 185 -120 261 -222 327 -57 36 -62 35 -49 -4 19 -55 73 -139 144 -223 37
-44 85 -107 106 -140 l39 -60 -61 -3 c-143 -7 -217 75 -312 346 -57 163 -86
225 -156 329 -73 109 -91 149 -99 227 -5 52 -12 65 -51 109 -55 62 -76 109
-68 153 6 28 12 33 44 38 20 4 208 10 417 15 334 8 389 11 457 29 97 26 127
42 166 87 46 51 56 109 38 203 -7 40 -6 42 16 42 35 0 116 27 162 54 64 37 96
17 111 -69 4 -22 14 -48 22 -57 13 -15 19 -15 55 -2 97 34 132 88 126 193 -5
89 -50 181 -130 267 -63 67 -88 77 -124 49 -18 -14 -17 -17 34 -61 40 -36 52
-52 52 -75 0 -16 -2 -29 -5 -29 -15 0 -85 52 -117 88 -84 93 -105 174 -118
459 -11 240 -17 278 -75 428 -61 157 -84 241 -92 330 l-6 77 34 -7 c19 -4 46
-14 61 -21z m-2653 -121 c20 -17 21 -24 15 -99 l-7 -82 -30 9 c-48 14 -67 37
-67 83 0 45 31 106 54 106 7 0 23 -8 35 -17z m1709 -76 l3 -47 -55 0 c-50 0
-56 2 -56 20 0 13 13 28 35 41 19 12 35 25 35 31 0 5 8 8 18 6 13 -2 18 -15
20 -51z m-204 -68 c6 -5 5 -24 -3 -49 -12 -40 -12 -40 -37 -24 -29 20 -41 58
-24 79 13 15 45 12 64 -6z m-3214 -17 c0 -18 -85 -80 -96 -70 -2 3 7 15 21 28
14 13 25 29 25 37 0 7 11 13 25 13 14 0 25 -4 25 -8z m-614 -47 c25 -25 25
-28 19 -128 -6 -91 -4 -113 20 -206 31 -118 31 -197 0 -231 -10 -11 -21 -20
-25 -20 -11 0 -47 142 -59 231 -6 42 -13 144 -17 228 -7 151 -7 151 15 151 12
0 33 -11 47 -25z m4093 -92 c36 -71 80 -198 146 -418 88 -293 102 -338 137
-418 16 -38 28 -70 26 -72 -2 -1 -24 3 -50 9 -60 16 -128 58 -265 165 -143
111 -219 156 -311 184 -69 21 -73 24 -82 59 -17 61 -29 177 -30 276 l0 92 54
0 c69 0 120 19 198 71 69 48 139 89 150 89 4 0 16 -17 27 -37z m-1279 -43 c0
-28 -3 -30 -35 -30 -32 0 -35 2 -35 30 0 28 3 30 35 30 32 0 35 -2 35 -30z
m-2256 -56 c11 -29 6 -64 -8 -64 -16 0 -31 53 -21 70 9 15 22 12 29 -6z m2199
-66 c9 -7 19 -25 23 -40 l6 -28 -56 0 -56 0 0 40 c0 39 1 40 33 40 18 0 41 -6
50 -12z m488 -89 c30 -16 51 -55 47 -90 -3 -31 -4 -32 -20 -16 -22 23 -34 21
-63 -8 -16 -15 -25 -36 -25 -55 0 -25 -4 -30 -24 -30 -13 0 -40 14 -61 30 -21
17 -50 30 -64 30 l-26 0 30 19 c39 23 77 69 95 111 13 30 15 32 53 26 22 -4
48 -11 58 -17z m339 2 c5 -11 10 -29 10 -40 0 -19 -6 -21 -57 -21 -54 0 -55 1
-40 18 10 10 17 25 17 34 0 21 10 28 36 28 13 0 28 -9 34 -19z m-1291 -45 c34
-41 4 -111 -44 -104 -25 4 -25 53 0 92 20 30 28 32 44 12z m1155 -81 c3 -8 12
-15 21 -15 27 0 16 -19 -25 -45 -24 -15 -40 -33 -40 -45 0 -14 -5 -18 -17 -13
-38 13 -43 23 -28 54 8 15 15 39 15 54 0 22 4 25 34 25 21 0 36 -6 40 -15z
m2156 -97 c19 -27 19 -30 3 -15 -11 9 -27 17 -36 17 -16 0 -37 28 -37 50 0 17
43 -15 70 -52z m115 6 c18 -18 16 -33 -7 -47 -25 -16 -48 -1 -48 33 0 23 4 30
19 30 11 0 27 -7 36 -16z m-2603 -36 c3 -21 10 -24 78 -29 91 -7 107 -13 125
-50 24 -46 20 -59 -21 -59 -26 0 -46 9 -71 30 -56 50 -72 19 -26 -53 20 -30
27 -55 28 -89 0 -53 3 -55 65 -33 77 27 80 25 80 -56 0 -188 -54 -334 -159
-431 -33 -31 -85 -70 -115 -88 -31 -17 -56 -37 -56 -45 0 -7 15 -22 33 -32
l33 -20 18 24 c10 13 55 49 102 79 85 56 134 104 134 130 0 16 23 18 51 4 34
-19 24 -62 -30 -131 -27 -35 -48 -65 -47 -66 6 -6 96 30 107 43 6 7 9 23 6 34
-7 26 12 26 62 0 64 -32 126 -119 103 -142 -32 -32 -171 -25 -245 11 l-40 20
-36 -29 c-20 -16 -86 -48 -146 -70 -61 -22 -136 -51 -167 -65 l-58 -23 -20 28
c-20 28 -50 127 -50 167 0 20 6 22 57 25 l57 3 9 42 c4 23 33 88 62 145 115
216 136 265 142 320 7 71 -8 115 -58 172 -42 47 -53 52 -78 37 -12 -8 -9 -15
12 -41 28 -33 32 -42 21 -53 -10 -10 -44 12 -102 64 -47 43 -100 69 -141 69
-36 0 78 89 185 143 82 43 92 44 96 15z m2847 -33 c66 -109 95 -210 104 -362
2 -35 0 -63 -4 -63 -4 0 -27 15 -51 33 -87 67 -129 210 -108 365 7 45 15 82
19 82 4 0 22 -25 40 -55z m-1530 -143 c6 -20 11 -56 11 -80 0 -40 -1 -42 -20
-32 -38 20 -68 123 -53 180 l6 23 23 -26 c13 -15 28 -44 33 -65z m-4411 51
c25 -22 35 -53 23 -72 -8 -13 -12 -13 -26 -1 -18 15 -45 63 -45 80 0 16 26 12
48 -7z m3797 -33 c136 -7 172 -21 199 -77 23 -48 21 -64 -6 -59 -13 3 -47 7
-76 11 -93 10 -179 43 -222 84 -37 35 -56 72 -27 54 6 -4 66 -10 132 -13z
m1999 -31 c14 -13 21 -36 24 -79 4 -55 3 -60 -16 -60 -62 0 -92 40 -92 121 l0
51 33 -7 c17 -4 41 -15 51 -26z m-2266 -15 c5 -9 7 -38 4 -65 -6 -60 5 -62 48
-11 28 33 32 35 41 19 24 -41 157 -125 378 -237 249 -126 325 -179 361 -251
25 -48 25 -59 -1 -59 -35 0 -58 19 -84 70 -13 27 -29 51 -33 54 -5 3 -34 -21
-65 -53 -63 -66 -104 -85 -177 -79 -28 1 -50 0 -50 -4 0 -9 56 -27 111 -34 52
-7 64 -18 27 -27 -13 -2 -61 -16 -108 -29 -47 -14 -109 -28 -137 -32 l-53 -7
0 32 c0 18 -29 104 -64 193 -35 89 -67 178 -71 199 -8 39 -14 44 -33 25 -17
-17 -15 -43 8 -88 23 -44 27 -110 7 -110 -22 0 -87 60 -106 99 -29 56 -40 108
-56 258 -8 76 -15 141 -15 146 0 14 59 7 68 -9z m-804 -108 c33 -75 63 -93
129 -79 29 6 53 10 55 8 2 -2 0 -31 -4 -66 -6 -51 -13 -69 -35 -91 -16 -16
-38 -28 -53 -28 -26 0 -26 1 -26 80 0 78 -1 80 -24 80 -52 0 -85 -58 -86 -152
0 -39 -8 -45 -39 -28 -12 6 -21 27 -26 57 -8 57 -19 73 -51 73 -46 0 -16 53
49 86 49 25 67 45 67 74 0 24 7 40 17 40 2 0 14 -24 27 -54z m1351 -36 c90
-23 146 -53 198 -107 38 -39 73 -112 64 -135 -4 -11 -14 5 -32 49 0 1 -54 16
-120 32 -65 17 -138 41 -163 52 -46 23 -82 69 -82 107 0 29 29 29 135 2z m563
-154 c61 -32 85 -87 54 -125 -15 -20 -22 -22 -39 -13 -11 7 -35 13 -52 14
l-31 2 0 68 c0 62 2 68 20 68 12 0 33 -6 48 -14z m692 -31 c12 -15 5 -55 -10
-55 -5 0 -18 10 -29 22 -16 16 -18 25 -10 35 15 17 34 17 49 -2z m561 -60
c150 -50 218 -219 174 -436 l-17 -87 37 -70 c48 -94 58 -129 44 -169 -20 -62
-57 -64 -111 -6 -44 47 -59 112 -68 298 -8 166 -15 209 -40 254 -11 21 -13 21
-29 7 -31 -28 -59 -20 -81 25 -18 34 -50 165 -50 201 0 13 77 4 141 -17z
m-836 -21 c-69 -54 -195 -84 -195 -46 1 44 37 61 135 61 75 0 79 -1 60 -15z
m-3274 -152 c22 -176 -18 -314 -104 -359 l-29 -15 7 34 c3 18 27 92 51 165 28
83 47 159 51 203 3 39 7 69 9 67 2 -1 8 -44 15 -95z m2857 77 c40 -13 40 -28
3 -68 -23 -25 -37 -31 -70 -31 -40 0 -41 1 -41 35 0 22 -6 38 -15 41 -40 16
10 46 60 38 17 -3 45 -10 63 -15z m-975 -67 c10 -9 17 -29 17 -49 0 -31 -2
-33 -20 -23 -21 11 -50 60 -50 84 0 18 25 12 53 -12z m1067 -52 c45 -23 63
-49 58 -88 -4 -35 -48 -51 -147 -51 l-74 -1 50 53 c27 29 53 65 57 80 8 32 7
32 56 7z m-2051 -118 c42 -22 67 -55 76 -101 l7 -34 -47 5 c-29 4 -56 14 -72
29 -24 22 -63 98 -63 121 0 14 55 3 99 -20z m1514 -6 c37 -7 70 -16 74 -19 13
-13 -20 -36 -69 -47 -122 -30 -250 24 -155 65 40 18 64 18 150 1z m-1693 -147
c0 -11 -14 -35 -31 -52 -27 -26 -30 -35 -23 -56 7 -18 18 -27 38 -29 78 -9
150 33 162 94 7 39 14 41 55 17 36 -21 59 -69 59 -121 l0 -40 -102 -4 c-80 -3
-112 -9 -145 -26 -38 -20 -83 -64 -83 -83 0 -17 55 4 80 31 28 30 62 38 88 22
20 -13 -36 -111 -83 -144 -30 -21 -53 -29 -91 -29 -84 -2 -81 -13 -58 221 5
59 4 68 -20 104 -15 21 -26 39 -24 40 2 1 22 18 46 39 35 31 49 37 87 37 39 0
45 -3 45 -21z m-809 -120 l30 -32 -16 -51 c-35 -118 -109 -208 -315 -381
l-149 -125 -202 0 c-186 0 -200 1 -188 17 29 34 75 44 178 37 l98 -7 76 37
c99 47 159 115 257 287 68 121 167 249 192 249 6 0 23 -14 39 -31z m1264 17
c16 -12 20 -29 23 -94 l4 -80 -51 -7 c-51 -7 -131 1 -131 13 0 16 24 91 42
135 19 44 23 47 57 47 21 0 46 -6 56 -14z m-114 -231 c29 -15 29 -16 14 -45
-29 -57 -137 -89 -230 -70 l-56 12 18 31 c41 70 181 109 254 72z m-510 -115
c10 -6 19 -17 19 -25 0 -11 -13 -15 -55 -15 -52 0 -55 1 -55 25 0 22 4 25 36
25 19 0 44 -5 55 -10z m3748 -90 c76 -38 103 -152 59 -240 -25 -48 -77 -90
-114 -90 -35 0 -50 82 -35 191 25 183 20 175 90 139z m-2081 -72 c7 -7 12 -25
12 -41 0 -24 -3 -28 -17 -22 -10 4 -26 10 -35 12 -12 4 -18 15 -18 34 0 24 4
29 23 29 13 0 28 -5 35 -12z m2284 -19 c30 -29 30 -32 26 -104 -4 -57 -11 -83
-29 -109 -22 -32 -56 -56 -79 -56 -17 0 -11 74 10 135 11 32 20 82 20 112 0
61 9 65 52 22z m-2283 -165 c6 -14 11 -31 11 -39 0 -8 9 -20 20 -28 18 -12 18
-16 6 -26 -35 -29 -96 32 -96 95 0 28 3 31 24 27 13 -3 29 -16 35 -29z m-2251
-170 c51 -36 -8 -36 -74 -1 l-29 16 40 1 c22 0 51 -7 63 -16z m4311 -20 c17
-14 39 -39 48 -55 20 -33 56 -39 89 -14 29 22 34 18 34 -20 0 -44 -26 -98 -45
-92 -68 27 -95 30 -117 13 -71 -51 -64 -49 -96 -32 -39 20 -43 41 -21 112 10
32 19 71 19 87 0 23 4 27 29 27 17 0 42 -11 60 -26z m-1939 -40 c33 -30 110
-148 110 -169 0 -10 -49 22 -83 54 -24 22 -87 128 -87 146 0 14 24 2 60 -31z
m1875 -430 c-39 -167 -141 -306 -273 -371 -72 -36 -81 -38 -171 -37 -72 0
-110 5 -153 21 -55 20 -57 20 -73 3 -33 -37 -68 -43 -142 -26 -259 59 -421
165 -503 329 -22 44 -38 82 -36 85 3 2 59 -30 125 -72 66 -41 189 -113 273
-160 151 -84 153 -85 200 -76 25 5 106 32 178 60 72 28 153 55 178 60 57 10
97 52 149 155 72 143 126 199 211 220 l47 12 3 -67 c2 -38 -4 -99 -13 -136z
m163 151 c-2 -14 -6 -25 -10 -25 -5 0 -21 0 -38 0 -25 0 -30 4 -30 25 0 23 4
25 41 25 37 0 40 -2 37 -25z m-883 -405 c0 -8 -13 -21 -28 -28 -37 -18 -97 0
-97 29 0 18 6 20 63 17 47 -2 62 -7 62 -18z m1643 -685 c23 -9 42 -21 42 -26
0 -37 -158 -35 -260 4 l-65 25 35 10 c51 16 197 9 248 -13z m369 -71 c79 -16
159 -51 182 -78 11 -13 7 -16 -23 -22 -75 -14 -237 25 -376 90 l-55 26 98 0
c54 0 132 -7 174 -16z"/>
<path d="M3620 10464 c0 -69 59 -154 96 -140 16 6 16 8 -2 21 -11 7 -26 33
-33 57 -16 57 -31 86 -47 92 -10 4 -14 -4 -14 -30z"/>
<path d="M4005 9898 c29 -69 67 -127 110 -167 48 -45 65 -51 65 -23 0 72 -55
150 -139 196 l-50 27 14 -33z"/>
<path d="M3544 6086 c-45 -20 -71 -59 -101 -153 -14 -46 -36 -100 -49 -119
l-23 -34 29 0 c20 0 43 12 69 35 21 19 43 35 49 35 20 0 22 17 6 49 -19 39
-13 60 37 117 21 25 44 54 49 65 9 16 7 19 -12 19 -13 -1 -37 -7 -54 -14z"/>
<path d="M1093 10388 c-61 -106 -93 -236 -74 -306 15 -53 64 -110 116 -133 22
-10 40 -17 41 -16 1 1 -8 34 -22 72 -30 89 -32 201 -5 260 26 56 78 102 147
130 l59 25 -122 0 -121 0 -19 -32z"/>
<path d="M2683 10245 c-44 -19 -60 -51 -37 -76 20 -22 56 -26 48 -5 -3 8 12
27 35 46 23 17 41 36 41 41 0 13 -50 10 -87 -6z"/>
<path d="M2564 10071 c-54 -25 -120 -84 -132 -120 -11 -32 7 -71 33 -71 30 0
155 161 155 200 0 14 -8 13 -56 -9z"/>
<path d="M4840 8885 c0 -43 1 -45 28 -45 33 0 52 16 52 45 0 29 -19 45 -52 45
-27 0 -28 -2 -28 -45z"/>
<path d="M5090 6544 c0 -10 -18 -66 -40 -124 -66 -172 -70 -240 -19 -312 l24
-33 3 30 c2 17 17 97 34 180 31 152 34 243 10 267 -9 9 -12 7 -12 -8z"/>
<path d="M7830 8292 l0 -41 53 -5 c28 -3 93 -8 142 -11 197 -14 439 -69 734
-170 58 -19 106 -35 107 -35 2 0 -1 14 -6 31 -16 55 -57 96 -133 134 -95 47
-216 71 -457 90 -274 22 -408 35 -425 41 -12 5 -15 -2 -15 -34z"/>
<path d="M7805 5979 c-9 -13 -16 -8 97 -58 226 -98 524 -185 1098 -322 184
-44 445 -111 580 -150 294 -85 441 -117 575 -124 l100 -5 -95 30 c-176 56
-502 148 -1170 329 -366 99 -764 209 -885 245 -212 64 -287 78 -300 55z"/>
<path d="M8060 5635 c0 -18 92 -101 140 -125 74 -37 131 -53 322 -90 90 -17
251 -53 358 -80 107 -27 364 -87 570 -135 406 -93 695 -166 1085 -274 424
-117 649 -162 920 -182 85 -6 184 -8 220 -4 66 7 66 7 48 27 -24 27 -96 62
-163 82 -72 20 -155 33 -315 46 -92 9 -162 21 -240 45 -177 53 -396 100 -785
169 -418 75 -427 76 -735 150 -394 94 -1020 259 -1407 372 -10 3 -18 3 -18 -1z"/>
<path d="M12061 4737 c-13 -6 -33 -24 -44 -39 l-21 -28 21 -27 c18 -26 26 -28
97 -31 l76 -3 0 60 c0 57 -1 59 -31 70 -41 14 -68 14 -98 -2z"/>
<path d="M8315 3704 c80 -32 827 -252 1013 -298 250 -63 635 -135 615 -115
-12 11 -462 162 -638 214 -288 84 -576 150 -810 184 -127 19 -206 26 -180 15z"/>
<path d="M2678 3508 c-46 -21 -64 -41 -53 -58 3 -5 182 -67 398 -139 579 -191
789 -257 1604 -502 255 -76 552 -172 660 -213 109 -41 283 -107 386 -146 104
-39 277 -96 385 -127 317 -88 649 -186 1082 -318 1907 -581 2124 -645 2460
-730 134 -34 455 -105 473 -105 4 0 3 9 -3 20 -18 33 -107 77 -204 101 -50 12
-158 42 -241 66 -82 25 -303 87 -490 138 -187 51 -520 148 -740 215 -220 67
-578 175 -795 241 -1619 491 -3379 1059 -4555 1468 -175 61 -319 111 -320 110
0 0 -21 -10 -47 -21z"/>
<path d="M5057 2900 c-38 -33 -86 -40 -107 -15 -13 16 -42 20 -54 8 -3 -4 20
-18 51 -32 50 -21 79 -25 208 -31 103 -4 158 -11 175 -21 25 -14 24 -14 -24
-19 -27 -3 -51 -10 -53 -16 -7 -22 152 -33 216 -14 29 8 37 6 70 -20 83 -67
238 -116 520 -165 127 -22 150 -29 205 -63 33 -21 99 -55 146 -74 86 -37 484
-167 707 -232 110 -32 312 -70 322 -60 5 4 35 -5 -334 105 -170 50 -357 109
-415 129 -160 57 -272 102 -267 106 3 4 175 -32 387 -81 63 -14 327 -81 585
-147 705 -181 1248 -318 1265 -318 26 0 -626 218 -835 279 -254 74 -404 105
-632 131 -240 27 -281 38 -1123 300 -245 76 -508 157 -585 179 -128 36 -377
101 -389 101 -3 0 -21 -13 -39 -30z"/>
<path d="M6350 1943 c0 -34 26 -86 55 -112 49 -43 111 -67 268 -106 150 -37
719 -236 1067 -372 243 -95 553 -244 680 -326 81 -52 93 -57 235 -87 171 -37
236 -59 294 -100 32 -24 88 -42 280 -90 550 -138 936 -247 1266 -360 247 -85
280 -99 372 -162 125 -86 388 -181 539 -196 82 -8 182 0 212 17 28 16 -77 57
-271 105 -96 24 -196 53 -222 65 -48 21 -120 70 -113 77 7 6 156 -28 333 -78
251 -70 347 -88 477 -88 99 0 109 2 97 16 -22 27 -106 64 -181 80 -40 8 -145
19 -233 24 -207 12 -192 10 -530 92 -1017 246 -1547 421 -2970 983 -892 352
-1611 625 -1646 625 -5 0 -9 -3 -9 -7z m4533 -1599 c45 -15 61 -37 35 -47 -7
-2 -30 4 -50 14 -21 11 -47 19 -59 19 -18 0 -19 2 -9 15 16 19 25 19 83 -1z"/>
<path d="M8124 1915 c-4 -8 -1 -22 6 -30 17 -20 110 -20 136 0 18 14 18 14 -7
15 -15 0 -46 7 -69 15 -53 19 -59 19 -66 0z"/>
<path d="M8330 1860 c-20 -12 -17 -14 78 -44 86 -27 109 -30 136 -20 27 10 18
19 -22 20 -21 1 -64 14 -96 28 -62 28 -74 30 -96 16z"/>
<path d="M10175 1816 c50 -13 225 -69 390 -124 315 -106 440 -136 619 -147
101 -7 129 6 40 19 -69 9 -222 49 -464 120 -286 85 -384 111 -513 135 -144 28
-184 26 -72 -3z"/>
<path d="M9815 1764 c-8 -13 -34 -36 -57 -52 l-42 -27 55 -7 c30 -4 88 -16
129 -27 40 -12 76 -19 78 -16 13 12 -25 35 -66 40 -66 9 -94 22 -90 43 4 21
32 19 153 -14 50 -13 103 -24 119 -24 28 0 28 -1 13 -18 -21 -23 -21 -41 -2
-69 11 -16 25 -21 62 -21 27 0 86 -7 133 -17 46 -9 101 -15 121 -12 31 4 42 0
64 -23 68 -71 220 -120 468 -150 277 -34 382 -50 457 -71 82 -22 192 -72 211
-96 13 -15 9 -16 -41 -11 -30 4 -97 20 -149 37 -93 31 -145 38 -155 23 -7 -12
227 -82 532 -159 20 -5 23 -2 20 13 -2 12 -18 24 -46 32 -31 10 -42 19 -42 34
0 19 4 20 58 14 31 -4 129 -22 217 -42 312 -68 433 -92 524 -103 52 -7 106
-18 121 -26 27 -14 60 -68 60 -98 0 -9 12 -30 27 -47 25 -30 27 -31 40 -14 18
25 16 58 -8 139 -35 118 -40 148 -41 216 l0 67 -71 17 c-40 10 -169 48 -287
85 -258 82 -335 105 -417 124 -60 14 -62 13 -53 -5 14 -25 88 -74 149 -99 28
-11 123 -38 211 -60 185 -47 280 -80 327 -116 32 -24 32 -25 13 -44 -11 -11
-20 -26 -20 -34 0 -34 -24 -35 -180 -11 -278 43 -508 97 -1015 236 -159 45
-379 102 -487 129 -109 27 -202 51 -208 55 -6 4 -10 21 -8 38 3 29 0 32 -29
35 -32 3 -52 -10 -83 -56 -8 -12 -30 -25 -47 -28 -29 -6 -34 -3 -43 22 -6 16
-23 42 -38 58 -46 49 -103 66 -300 91 -132 17 -239 39 -288 60 -31 13 -34 12
-49 -11z m527 -159 c6 -31 2 -35 -39 -35 -30 0 -33 3 -33 30 0 27 3 30 34 30
28 0 34 -4 38 -25z"/>
<path d="M11461 1697 c-8 -11 1 -17 43 -30 29 -9 63 -17 75 -17 26 0 38 25 21
45 -16 19 -123 21 -139 2z"/>
<path d="M8904 1685 c19 -14 195 -60 202 -52 15 15 -140 67 -196 67 -24 -1
-24 -1 -6 -15z"/>
<path d="M11702 1661 c64 -51 192 -89 413 -121 129 -19 155 -26 221 -61 85
-44 133 -50 164 -19 11 11 20 24 20 28 0 11 -138 55 -250 81 -47 11 -188 38
-314 61 -126 22 -240 43 -255 47 l-26 6 27 -22z"/>
<path d="M9325 1581 c11 -4 36 -11 55 -15 24 -4 29 -3 15 3 -11 4 -36 11 -55
15 -24 4 -29 3 -15 -3z"/>
<path d="M9514 1535 c-19 -14 -19 -14 3 -15 12 0 56 -14 98 -31 69 -27 80 -29
108 -18 l31 13 -45 12 c-24 6 -66 21 -92 33 -57 25 -76 26 -103 6z"/>
<path d="M11066 1311 c-18 -7 -16 -9 14 -19 38 -14 110 -16 110 -4 0 28 -75
42 -124 23z"/>
<path d="M10160 1126 c64 -35 263 -94 612 -181 265 -66 466 -123 667 -190 303
-101 594 -172 654 -161 45 9 102 45 90 57 -35 35 -268 106 -553 169 -102 22
-297 70 -435 105 -621 160 -748 186 -1005 209 -50 5 -53 4 -30 -8z"/>
<path d="M11351 1046 c-12 -14 -10 -16 12 -16 15 0 42 -8 62 -17 33 -16 37
-16 52 0 15 15 14 17 -13 28 -53 20 -99 23 -113 5z"/>
<path d="M11880 908 c19 -5 141 -45 270 -89 311 -104 333 -109 488 -116 149
-7 163 1 78 41 -117 55 -345 107 -670 151 -200 27 -221 28 -166 13z"/>
<path d="M11008 720 c-12 -10 -36 -30 -52 -43 -46 -37 -31 -51 96 -91 505
-158 749 -248 925 -341 56 -30 105 -50 108 -45 3 5 28 16 55 25 28 9 50 19 50
22 0 3 -7 20 -16 38 -20 43 -47 52 -171 60 -84 5 -114 11 -169 36 -83 38 -197
75 -407 134 -89 25 -204 60 -254 77 l-93 32 0 52 c0 38 -4 53 -16 58 -24 9
-30 8 -56 -14z"/>
<path d="M9170 659 c0 -19 63 -73 126 -106 94 -50 383 -173 443 -189 69 -18
82 -18 107 0 18 14 9 19 -116 79 -124 59 -531 227 -551 227 -5 0 -9 -5 -9 -11z"/>
<path d="M12507 541 c-24 -42 -21 -51 16 -51 25 0 39 7 55 30 31 41 28 50 -16
50 -31 0 -41 -5 -55 -29z"/>
<path d="M10072 274 c-12 -8 -22 -19 -22 -23 0 -5 28 -19 63 -31 34 -13 125
-52 202 -87 177 -82 313 -135 325 -128 19 12 10 52 -17 78 -41 38 -126 74
-228 93 -70 14 -100 25 -133 51 -37 28 -123 63 -157 63 -6 0 -21 -7 -33 -16z"/>
</g>
</svg>
