<?xml version="1.0" standalone="no"?>
<!DOCTYPE svg PUBLIC "-//W3C//DTD SVG 20010904//EN"
 "http://www.w3.org/TR/2001/REC-SVG-20010904/DTD/svg10.dtd">
<svg version="1.0" xmlns="http://www.w3.org/2000/svg"
 width="640.000000pt" height="1280.000000pt" viewBox="0 0 640.000000 1280.000000"
 preserveAspectRatio="xMidYMid meet">
<metadata>
Created by potrace 1.15, written by Peter Selinger 2001-2017
</metadata>
<g transform="translate(0.000000,1280.000000) scale(0.100000,-0.100000)"
fill="#000000" stroke="none">
<path d="M3130 12782 c0 -17 -7 -19 -62 -16 -33 1 -72 8 -85 15 -22 12 -26 11
-34 -4 -6 -9 -18 -17 -28 -17 -22 0 -35 -15 -48 -55 -8 -24 -15 -29 -35 -27
-15 1 -32 -6 -43 -18 -10 -11 -23 -20 -30 -20 -6 0 -28 -17 -48 -37 -19 -21
-51 -53 -71 -72 -22 -21 -41 -52 -50 -80 -7 -25 -28 -77 -45 -116 -28 -62 -32
-78 -29 -145 2 -41 6 -77 9 -80 4 -3 8 -48 10 -100 l4 -94 -27 -14 c-29 -14
-40 -49 -13 -38 17 6 20 -9 4 -20 -7 -4 -9 -21 -6 -40 4 -23 -1 -50 -14 -79
-23 -52 -19 -76 13 -90 12 -6 29 -22 38 -37 12 -23 13 -29 1 -40 -11 -10 -14
-10 -18 0 -7 19 -23 14 -23 -8 0 -11 -6 -20 -13 -20 -7 0 -26 -13 -42 -30 -17
-18 -39 -30 -54 -30 -13 0 -34 -9 -46 -20 -11 -11 -35 -23 -53 -26 -27 -6 -31
-4 -26 10 14 36 -16 13 -39 -31 -26 -50 -36 -58 -79 -67 -15 -4 -55 -33 -90
-66 -54 -52 -67 -60 -91 -54 -32 7 -57 -9 -57 -37 0 -21 -16 -26 -23 -6 -3 6
-6 2 -6 -10 -1 -12 -15 -36 -31 -53 -18 -19 -30 -41 -30 -58 0 -15 -4 -33 -9
-41 -7 -11 -11 -10 -19 5 -11 18 -11 18 -27 -1 -32 -40 -47 -98 -20 -75 9 7
18 10 22 7 9 -10 -23 -54 -58 -79 -33 -25 -59 -66 -59 -95 0 -10 -9 -24 -20
-31 -14 -8 -20 -23 -20 -46 0 -18 -7 -39 -15 -46 -8 -6 -17 -22 -21 -33 -3
-12 -21 -63 -40 -114 -40 -109 -44 -144 -14 -136 29 8 26 -18 -9 -86 -35 -67
-71 -189 -76 -260 -2 -28 -15 -76 -29 -106 -14 -31 -28 -72 -32 -93 -3 -20
-13 -48 -21 -60 -8 -13 -17 -49 -20 -80 -5 -65 -15 -98 -48 -162 -26 -49 -33
-79 -66 -250 -12 -63 -27 -124 -32 -135 -11 -20 -13 -34 -37 -184 -12 -78 -3
-195 25 -316 7 -33 19 -118 25 -190 6 -71 16 -179 22 -240 6 -60 12 -148 13
-195 1 -47 8 -111 15 -144 6 -32 9 -73 6 -91 -4 -20 -2 -36 4 -40 6 -4 9 -13
6 -21 -3 -7 3 -19 13 -26 10 -7 23 -23 30 -35 6 -13 23 -34 36 -47 14 -14 25
-32 25 -41 0 -9 4 -13 10 -10 16 10 69 -36 80 -71 6 -18 8 -48 5 -67 -7 -36 9
-62 19 -30 17 63 16 100 -5 147 -12 27 -29 51 -40 53 -10 3 -19 9 -19 14 0 5
-13 15 -30 24 -31 16 -36 30 -20 55 8 12 13 13 30 3 11 -7 28 -13 39 -13 11 0
23 -9 26 -20 3 -11 15 -25 25 -30 21 -11 26 -36 35 -162 l5 -88 -50 -55 c-49
-54 -50 -56 -50 -119 0 -57 -3 -65 -25 -80 -23 -15 -25 -23 -25 -94 -1 -42 -4
-106 -9 -142 -13 -101 -6 -125 48 -164 25 -18 57 -37 71 -41 14 -4 28 -13 32
-19 4 -6 53 -12 121 -14 97 -4 119 -1 142 14 27 17 27 17 46 -7 10 -13 19 -27
19 -31 0 -5 9 -8 21 -8 26 0 79 52 79 79 0 11 9 25 20 31 11 6 21 25 25 48 3
20 18 74 32 118 14 46 24 94 21 109 -7 35 16 114 27 95 7 -11 10 -10 16 6 13
33 10 54 -6 48 -19 -8 -19 10 1 69 15 45 15 49 -2 75 -28 41 -50 92 -64 143
-10 40 -9 51 4 78 38 73 191 211 235 211 14 0 29 -52 24 -87 -3 -18 2 -81 11
-140 17 -111 22 -134 51 -238 31 -109 34 -120 49 -174 9 -29 16 -85 16 -125 0
-39 7 -89 14 -111 8 -22 12 -54 9 -72 -7 -39 17 -80 53 -93 16 -6 24 -17 24
-33 0 -13 5 -28 11 -34 13 -13 17 -170 6 -262 -8 -70 -27 -120 -97 -261 -26
-52 -58 -130 -70 -172 -21 -73 -23 -91 -18 -293 3 -136 9 -219 16 -228 19 -23
16 -70 -7 -109 -19 -31 -21 -42 -12 -75 18 -69 34 -234 28 -290 -4 -41 -2 -62
10 -79 11 -17 13 -36 9 -68 -5 -28 -2 -58 8 -86 11 -31 12 -49 4 -72 -6 -16
-8 -56 -5 -89 3 -32 1 -59 -4 -59 -20 0 -8 -31 16 -42 31 -14 27 -31 -8 -38
l-27 -5 20 -33 c17 -28 20 -43 14 -93 -4 -32 -13 -64 -20 -70 -17 -14 -18 -33
-2 -59 11 -16 9 -22 -7 -34 -18 -13 -19 -18 -8 -58 14 -55 3 -183 -31 -344
-14 -65 -33 -153 -41 -194 -9 -41 -21 -93 -27 -115 -5 -22 -12 -65 -15 -95 -3
-30 -11 -59 -18 -65 -7 -5 -16 -31 -20 -58 -5 -39 -3 -52 14 -73 34 -43 25
-140 -9 -99 -11 14 -15 14 -31 -1 -16 -14 -18 -30 -15 -118 1 -55 8 -111 14
-123 7 -12 12 -31 12 -42 0 -11 13 -34 29 -50 16 -16 31 -35 33 -42 2 -7 11
-10 21 -6 10 4 14 12 11 22 -4 9 -1 15 8 15 7 0 21 9 31 20 9 11 24 20 32 20
18 0 18 1 0 -45 -9 -20 -13 -46 -9 -57 11 -34 114 -66 114 -34 0 10 10 11 49
3 82 -16 162 13 166 59 0 11 23 43 51 72 44 46 55 52 90 52 50 0 79 20 94 66
11 33 15 116 8 174 -3 22 1 25 30 28 28 3 32 7 32 32 0 40 18 47 31 13 5 -15
21 -40 35 -54 20 -20 27 -45 39 -123 18 -119 33 -176 45 -176 13 0 12 57 -4
160 -12 72 -11 87 1 100 12 13 15 13 23 0 5 -8 10 -25 10 -36 0 -53 13 -86 39
-97 l26 -11 -31 -4 c-29 -3 -32 -7 -38 -49 -3 -25 -6 -107 -7 -182 -1 -75 -4
-161 -8 -191 l-7 -55 -6 40 c-42 261 -99 557 -110 570 -6 6 -15 3 -25 -10 -16
-21 -16 39 4 -1272 4 -297 3 -436 -4 -445 -13 -16 -9 -102 5 -140 10 -24 47
-286 54 -378 2 -23 8 -35 18 -35 12 0 14 15 12 85 -2 47 -7 117 -12 155 -19
144 -24 353 -10 396 12 34 11 44 -3 75 -9 19 -17 49 -16 67 1 31 1 31 10 -8 5
-23 20 -49 36 -62 l26 -21 -6 -349 c-4 -191 -11 -365 -16 -387 -6 -24 -6 -61
0 -99 12 -75 4 -126 -27 -172 -29 -43 -38 -76 -29 -104 10 -34 22 -24 29 24 4
25 11 45 16 45 18 0 23 -52 10 -106 -10 -41 -10 -57 -1 -67 6 -8 13 -36 16
-63 2 -32 8 -48 16 -46 7 2 25 -2 40 -9 23 -9 41 -8 96 9 37 11 94 23 125 27
63 7 117 42 150 95 10 17 24 30 31 30 43 0 158 135 190 223 4 9 22 27 41 38
19 11 38 29 41 40 4 10 14 19 23 19 9 0 31 9 48 19 24 15 33 28 38 60 5 35 12
44 46 61 22 11 40 27 40 34 0 15 42 46 63 46 7 0 17 15 22 32 6 18 20 38 33
44 32 16 79 62 104 101 15 25 27 33 48 33 26 0 32 7 56 60 24 54 44 77 44 50
0 -20 23 -9 56 26 19 19 38 33 43 29 5 -3 11 5 13 17 2 15 16 29 41 41 20 9
37 23 37 30 0 7 34 41 75 76 41 34 75 69 75 76 0 7 41 48 91 91 129 113 157
133 199 144 21 6 43 17 50 25 21 25 119 56 157 49 l34 -6 -3 43 c-2 36 -7 44
-27 49 l-24 6 26 17 c38 25 36 57 -3 57 -37 0 -39 13 -5 28 32 15 41 37 25 58
-10 11 -10 18 -2 26 14 14 16 28 3 28 -5 0 -14 -13 -20 -29 -8 -17 -29 -36
-57 -50 -51 -26 -64 -45 -57 -84 4 -22 8 -25 19 -16 8 7 14 7 14 1 0 -5 -6
-15 -14 -21 -10 -9 -16 -8 -26 4 -24 29 -56 17 -102 -35 -24 -28 -61 -59 -82
-69 -20 -11 -55 -40 -77 -65 -25 -28 -64 -57 -104 -76 -44 -21 -80 -49 -119
-91 -30 -33 -73 -70 -96 -81 -45 -22 -216 -188 -225 -219 -4 -11 -21 -27 -38
-36 -52 -26 -116 -85 -126 -114 -10 -30 -79 -71 -141 -84 -48 -10 -54 -15 -35
-29 27 -19 14 -48 -35 -76 -39 -23 -45 -31 -48 -63 -3 -32 -8 -39 -38 -52 -19
-8 -62 -41 -94 -74 -32 -32 -66 -61 -77 -63 -11 -2 -18 -12 -18 -25 -1 -28
-54 -85 -73 -78 -10 4 -12 0 -8 -10 8 -21 -53 -116 -93 -144 -47 -34 -66 -25
-64 29 1 24 7 46 13 50 7 4 5 18 -7 40 -15 31 -15 46 -5 140 16 142 15 183 -5
224 -15 33 -15 37 1 54 10 12 16 34 15 58 -1 22 3 63 10 93 6 29 11 70 11 90
0 21 5 42 12 49 12 12 37 93 38 125 0 21 -26 23 -34 1 -3 -9 -6 -31 -6 -50 0
-19 -4 -34 -10 -34 -6 0 -8 25 -4 62 11 128 16 142 42 116 8 -8 14 -5 22 16
14 39 12 81 -5 96 -12 10 -13 6 -8 -25 6 -36 -5 -54 -31 -55 -5 0 -6 50 -1
123 5 67 7 140 6 162 -1 22 -4 126 -7 230 -2 105 -5 199 -6 210 -4 49 3 86 22
103 13 12 28 56 45 138 14 65 35 153 46 196 21 83 25 158 8 158 -13 0 -36 -55
-50 -119 -5 -27 -17 -57 -24 -67 -13 -18 -14 -17 -15 9 0 31 21 126 51 225 21
70 24 98 9 107 -13 8 -37 -33 -45 -77 -4 -21 -14 -43 -23 -50 -13 -11 -14 -8
-9 32 4 25 10 85 13 133 7 87 7 88 39 101 18 8 36 19 39 25 4 6 16 11 27 11
14 0 19 -7 19 -25 0 -17 5 -25 18 -25 20 0 82 107 82 143 0 31 -36 77 -60 77
-32 0 -33 19 -2 48 31 29 48 62 32 62 -6 0 -10 -4 -10 -10 0 -23 -16 -7 -32
30 -12 28 -14 49 -8 69 5 19 4 33 -3 40 -8 8 -8 14 1 23 15 15 16 48 2 48 -14
0 -13 57 1 66 12 7 9 102 -7 266 -6 61 -5 68 12 74 47 17 54 33 54 123 0 47 4
93 10 101 9 15 8 17 25 -36 3 -8 10 -12 16 -8 16 10 3 62 -25 99 -24 31 -24
34 -16 140 5 60 6 128 3 152 -6 45 4 55 27 28 17 -21 47 -19 77 5 14 11 36 20
49 20 23 0 23 0 9 -47 -17 -55 -12 -66 23 -59 15 3 38 0 52 -7 22 -12 28 -11
58 12 36 28 62 53 105 100 16 17 37 31 48 31 16 0 19 5 14 19 -3 11 3 40 15
65 11 25 20 51 20 58 0 7 11 50 25 95 15 54 22 95 18 118 -4 24 -1 41 10 53
22 25 23 40 7 105 -11 48 -11 67 -1 105 11 42 10 48 -10 75 -17 24 -19 33 -10
53 13 29 6 50 -27 86 -23 25 -25 34 -22 105 4 91 4 97 -4 183 -4 36 -6 102 -5
148 0 52 -3 82 -10 82 -7 0 -11 -25 -11 -65 0 -36 -4 -65 -9 -65 -16 0 -21 29
-10 54 8 16 8 29 1 42 -7 13 -7 26 -1 37 8 13 6 17 -5 17 -11 0 -16 22 -21 95
-8 108 -2 167 25 228 10 23 22 67 25 97 11 94 32 128 70 114 19 -8 19 10 0 26
-19 16 -19 64 0 80 13 10 19 9 35 -5 27 -24 43 -9 38 36 -2 26 -7 33 -20 31
-44 -7 -1 42 46 54 16 4 31 15 33 25 3 9 17 20 31 24 l27 7 -29 11 c-22 7 -35
6 -56 -7 -64 -37 -81 -5 -26 50 l34 34 -34 15 c-34 14 -43 32 -25 50 6 6 22
57 37 115 14 58 30 109 35 115 5 5 9 35 9 66 0 74 22 98 44 47 19 -46 48 -243
50 -343 2 -93 7 -102 109 -206 58 -60 77 -87 77 -115 0 -14 -3 -15 -12 -6 -20
20 -30 14 -26 -15 2 -22 9 -29 31 -31 20 -2 29 2 35 16 7 20 7 20 47 1 22 -11
56 -35 75 -54 34 -34 39 -35 110 -35 101 0 161 29 214 105 14 19 15 19 35 1
27 -25 36 -15 37 42 1 81 22 163 44 179 18 13 20 25 20 118 0 117 -5 142 -26
124 -19 -15 -37 1 -64 55 -11 24 -42 65 -68 91 -26 26 -54 62 -62 79 -18 37
-58 46 -95 22 -32 -21 -32 -21 -37 19 -2 19 0 35 4 35 20 0 5 31 -22 45 -18 9
-32 26 -36 43 -3 15 -10 41 -15 57 -29 98 -36 143 -31 199 3 35 11 65 19 71
11 8 12 17 4 38 -6 16 -11 44 -11 62 0 28 3 33 17 28 12 -5 14 -3 8 7 -16 25
-18 74 -19 335 -1 273 -13 488 -27 480 -4 -3 -10 -19 -14 -36 -5 -21 -12 -29
-23 -27 -16 3 -31 60 -34 128 -1 27 22 172 28 179 2 2 13 -4 25 -15 l21 -19
-6 65 c-18 171 -17 170 -36 170 -23 0 -58 48 -67 92 -3 18 -11 36 -16 40 -6 3
-12 35 -14 70 -3 35 -7 70 -11 78 -6 14 -9 41 -14 105 -1 17 -9 35 -16 40 -11
9 -11 16 -1 38 10 21 10 30 1 39 -9 9 -12 8 -12 -6 0 -31 -25 -11 -31 25 -3
19 -12 50 -21 69 -36 79 -42 162 -24 303 5 37 3 49 -9 53 -9 4 -15 19 -15 39
0 19 -5 37 -10 40 -6 3 -7 17 -4 31 4 14 2 24 -5 24 -6 0 -11 15 -11 33 0 18
-5 38 -11 44 -9 9 -6 19 9 40 19 27 20 33 7 69 -8 21 -14 53 -15 69 0 17 -5
46 -10 65 -6 19 -15 80 -21 135 -13 129 -24 168 -60 217 -16 23 -29 50 -29 60
0 27 -36 94 -55 101 -8 4 -15 13 -15 20 0 8 -23 45 -50 82 -28 38 -48 75 -45
82 3 7 7 19 10 26 6 15 -81 57 -120 57 -18 0 -29 6 -32 20 -3 11 -14 20 -24
20 -10 0 -34 16 -53 35 -20 19 -40 35 -45 35 -6 0 -22 15 -36 34 -20 26 -42
39 -98 56 -98 31 -105 39 -87 93 9 24 21 42 30 42 17 0 40 56 40 98 0 16 4 36
9 45 11 22 2 100 -10 81 -14 -24 -22 -1 -26 78 -2 43 -6 88 -9 101 -7 36 -23
25 -17 -13 4 -28 2 -35 -11 -35 -12 0 -16 9 -16 38 0 50 13 70 34 53 13 -11
16 -11 16 0 0 17 -45 148 -54 156 -3 4 -6 22 -6 42 -1 44 -22 106 -46 132 -15
17 -43 82 -61 144 -3 11 -28 41 -54 67 -27 26 -49 54 -49 61 0 38 -125 90
-242 101 -43 4 -80 12 -84 17 -10 16 -34 10 -34 -9z m12 -142 c64 -28 83 -46
90 -88 8 -47 24 -82 38 -82 6 0 10 9 10 20 0 26 34 44 59 31 24 -13 36 -43 16
-39 -30 6 -15 -18 30 -49 54 -38 96 -42 125 -13 25 25 25 25 61 -1 38 -27 37
-43 -1 -21 -27 15 -32 15 -40 2 -6 -10 -3 -21 12 -37 12 -13 17 -23 11 -23 -6
0 -16 7 -24 16 -12 14 -14 14 -25 -1 -16 -21 -98 -26 -134 -8 -30 15 -67 17
-75 3 -11 -17 -22 -11 -35 20 -15 37 -30 35 -43 -6 -12 -37 -26 -54 -44 -54
-28 0 -25 31 6 75 36 51 38 60 11 45 -36 -19 -72 -8 -83 24 -8 23 -6 32 7 41
23 17 20 23 -21 41 -36 15 -37 16 -15 25 12 4 29 6 37 3 22 -9 67 5 59 17 -14
24 -55 28 -135 14 -44 -7 -87 -19 -95 -26 -24 -20 -29 -1 -7 29 11 15 35 32
54 39 42 15 120 16 151 3z m141 -36 c8 -9 -11 -44 -23 -44 -6 0 -10 8 -10 18
0 27 18 41 33 26z m132 -44 c33 -28 67 -50 77 -50 23 0 31 -15 14 -30 -12 -9
-20 -8 -39 5 -14 9 -28 22 -31 30 -3 8 -22 22 -43 33 -53 25 -83 45 -83 54 0
23 52 1 105 -42z m-565 -41 c-7 -11 -14 -18 -17 -15 -8 8 5 36 17 36 7 0 7 -6
0 -21z m160 -19 c0 -14 -30 -27 -82 -34 -56 -8 -64 -24 -12 -24 41 0 59 -13
50 -37 -5 -14 -18 -16 -73 -14 -86 5 -93 -13 -11 -31 35 -7 76 -21 92 -30 33
-18 50 -48 21 -37 -12 5 -18 1 -22 -13 -7 -28 -23 -25 -23 5 0 19 -5 25 -22
25 -13 0 -37 9 -55 20 -35 21 -55 10 -29 -16 26 -25 7 -38 -19 -14 -13 12 -39
25 -57 29 -50 10 -40 32 27 65 33 15 63 33 67 39 11 17 -2 29 -18 16 -11 -9
-14 -8 -14 3 0 18 28 44 55 51 37 9 125 7 125 -3z m-240 -35 c0 -8 -4 -15 -10
-15 -5 0 -10 7 -10 15 0 8 5 15 10 15 6 0 10 -7 10 -15z m304 -14 c7 -10 -16
-61 -28 -61 -4 0 -5 12 -2 27 5 17 3 29 -6 34 -9 6 -7 9 9 9 12 0 24 -4 27 -9z
m-384 -15 c0 -3 -4 -8 -10 -11 -5 -3 -10 -1 -10 4 0 6 5 11 10 11 6 0 10 -2
10 -4z m420 -117 c0 -5 -16 -9 -35 -9 -40 0 -41 2 -17 35 l17 24 18 -20 c9
-12 17 -25 17 -30z m-420 -23 c0 -6 -7 -3 -14 6 -7 10 -16 15 -19 11 -4 -3 -7
-2 -7 4 0 5 3 13 7 17 8 8 33 -22 33 -38z m840 -38 c0 -6 -7 -5 -15 2 -8 7
-15 17 -15 22 0 6 7 5 15 -2 8 -7 15 -17 15 -22z m-450 -8 c0 -5 -4 -10 -10
-10 -5 0 -10 5 -10 10 0 6 5 10 10 10 6 0 10 -4 10 -10z m271 -3 c-1 -12 -15
-9 -19 4 -3 6 1 10 8 8 6 -3 11 -8 11 -12z m-341 -6 c0 -6 -4 -13 -10 -16 -5
-3 -10 1 -10 9 0 9 5 16 10 16 6 0 10 -4 10 -9z m-214 -22 c10 -17 153 -81
199 -90 66 -12 196 38 210 81 6 19 7 19 28 -5 14 -15 38 -27 63 -31 37 -5 45
-3 73 25 39 38 84 42 105 9 8 -13 17 -52 21 -88 8 -77 26 -110 60 -110 31 0
44 -42 38 -120 -4 -49 -1 -60 25 -100 21 -30 28 -49 22 -60 -4 -8 -13 -42 -20
-75 -7 -33 -15 -65 -17 -72 -3 -9 4 -13 20 -13 38 0 39 -12 6 -54 -24 -28 -34
-34 -44 -26 -11 9 -16 -1 -25 -47 -7 -32 -19 -78 -27 -103 -8 -25 -18 -72 -23
-106 -4 -34 -15 -76 -23 -95 -8 -19 -21 -51 -27 -73 -8 -24 -37 -63 -79 -106
-55 -57 -76 -71 -124 -85 -53 -15 -61 -15 -114 0 -63 18 -139 73 -153 111 -5
12 -31 47 -57 76 -116 128 -151 193 -193 354 -17 65 -36 124 -41 130 -5 7 -21
15 -36 19 -23 5 -24 7 -8 19 17 12 17 18 3 102 l-15 89 22 20 c31 26 32 33 50
224 10 109 20 172 30 187 17 26 39 31 51 13z m757 -39 c-3 -11 -9 -20 -14 -20
-10 0 -12 24 -2 33 13 13 21 7 16 -13z m62 -100 c-3 -5 -10 -10 -16 -10 -5 0
-9 5 -9 10 0 6 7 10 16 10 8 0 12 -4 9 -10z m-995 -30 c0 -5 -2 -10 -4 -10 -3
0 -8 5 -11 10 -3 6 -1 10 4 10 6 0 11 -4 11 -10z m1102 -276 c-4 -23 -19 -40
-28 -31 -4 3 -3 18 0 32 8 30 33 28 28 -1z m-1152 -74 c0 -10 5 -22 10 -25 13
-8 13 -55 1 -55 -11 0 -17 17 -27 74 -5 28 -4 37 5 32 6 -4 11 -16 11 -26z
m-58 -32 c-7 -7 -12 -8 -12 -2 0 14 12 26 19 19 2 -3 -1 -11 -7 -17z m193
-285 c6 -20 4 -23 -18 -23 -13 0 -30 7 -37 15 -17 20 -5 32 15 15 26 -21 17 7
-11 35 -24 25 -25 27 -10 48 9 12 20 31 23 42 5 14 10 0 19 -45 6 -36 15 -75
19 -87z m-92 27 c27 -60 37 -72 70 -85 30 -12 42 -26 63 -70 15 -30 30 -55 34
-55 4 0 10 -10 14 -22 4 -19 133 -180 176 -223 6 -5 16 -16 23 -24 82 -94 128
-116 247 -116 72 0 75 -1 78 -25 2 -14 8 -29 13 -34 5 -6 9 -17 9 -26 0 -20
48 -41 104 -44 24 -2 54 -11 67 -20 13 -9 32 -16 42 -16 16 0 18 -5 12 -32 -4
-18 -18 -60 -31 -94 -24 -60 -28 -110 -15 -169 l7 -30 8 40 c14 72 53 94 41
23 -9 -49 -34 -90 -52 -83 -7 2 -24 -11 -39 -30 -14 -19 -32 -35 -40 -35 -7 0
-23 -23 -35 -50 -12 -28 -31 -58 -43 -68 -12 -9 -22 -30 -23 -45 -1 -15 -13
-51 -27 -80 -24 -48 -33 -87 -26 -112 5 -19 0 -45 -9 -45 -4 0 -6 11 -3 25 3
17 0 25 -9 25 -8 0 -19 16 -25 36 -9 29 -9 34 2 30 17 -6 17 -1 4 24 -9 16
-15 18 -36 10 -22 -9 -25 -7 -22 7 3 13 12 17 36 15 26 -2 32 2 32 18 0 13 9
22 25 26 17 4 27 15 31 33 11 50 27 96 37 109 21 27 46 116 36 129 -7 8 -3 17
15 28 19 13 26 26 26 49 0 33 -23 76 -35 64 -3 -3 -19 -50 -35 -105 -46 -156
-65 -198 -90 -201 -12 -2 -31 -19 -42 -38 -11 -19 -24 -34 -30 -34 -11 0 -1
59 15 78 7 9 6 20 -3 37 -8 16 -10 41 -6 79 6 48 5 57 -10 63 -22 8 -44 -21
-44 -59 0 -15 -4 -28 -10 -28 -13 0 -13 24 1 93 13 61 6 107 -15 107 -22 0
-27 -25 -36 -180 -12 -191 -26 -275 -53 -324 -33 -60 -63 -57 -99 9 -32 57
-33 65 -14 65 9 0 15 18 19 52 4 28 11 56 17 62 5 5 10 30 10 55 0 28 6 51 18
64 13 14 17 36 16 86 0 79 -18 207 -37 276 -8 28 -20 82 -26 120 -14 84 -25
105 -42 88 -10 -10 -8 -33 8 -110 12 -54 19 -100 17 -102 -2 -3 -11 4 -19 15
-14 18 -14 18 -14 -6 0 -14 6 -54 14 -90 17 -77 19 -112 6 -91 -5 7 -13 11
-18 8 -21 -13 -63 -85 -77 -129 -13 -43 -12 -50 5 -83 23 -42 23 -46 4 -39 -8
3 -17 14 -20 25 -4 10 -13 19 -22 19 -13 0 -15 -8 -10 -45 5 -33 3 -45 -6 -45
-40 0 -49 66 -17 115 11 17 20 44 20 62 0 18 5 42 11 55 7 17 6 41 -6 93 -19
82 -35 239 -39 380 -3 99 -16 155 -36 155 -6 0 -10 -31 -10 -77 0 -43 -7 -105
-15 -138 -8 -33 -14 -86 -15 -117 0 -31 -5 -80 -11 -108 -8 -39 -8 -54 1 -65
8 -10 9 -15 2 -15 -6 0 -14 5 -17 10 -11 17 -23 11 -29 -16 -4 -16 -19 -30
-38 -38 -22 -10 -42 -34 -72 -87 -38 -68 -45 -74 -77 -77 -25 -2 -40 3 -53 17
-29 32 -56 154 -56 257 0 51 -5 116 -12 144 -9 40 -9 56 0 71 15 24 15 81 0
114 -12 27 -16 29 -36 16 -11 -6 -11 -40 -2 -177 6 -93 15 -181 21 -195 12
-31 8 -85 -6 -83 -5 1 -20 30 -33 65 -23 64 -29 130 -48 556 l-7 150 39 28
c21 16 50 38 64 50 14 12 44 27 68 34 23 6 42 15 42 19 1 4 11 20 24 36 19 23
27 26 42 18 16 -8 25 -4 54 29 18 21 40 39 48 39 7 0 28 -31 45 -70z m1098 42
c14 -9 59 -50 98 -89 40 -40 78 -73 85 -73 8 0 42 -31 76 -70 50 -57 68 -70
91 -70 38 0 82 -41 72 -67 -6 -15 -4 -16 8 -6 13 10 20 8 41 -15 37 -39 60
-78 68 -115 4 -17 11 -31 17 -30 10 2 26 -49 28 -87 0 -8 8 -14 17 -14 10 1
16 -5 15 -15 -2 -30 13 -71 25 -68 19 3 37 -65 53 -203 8 -70 23 -155 33 -187
11 -35 16 -67 11 -79 -4 -10 -8 -34 -8 -51 -1 -18 -6 -33 -12 -33 -6 0 -8 9
-4 20 5 16 2 20 -14 20 -23 0 -51 -45 -51 -82 0 -22 -31 -75 -123 -213 -21
-31 -37 -58 -35 -60 11 -10 68 10 73 26 3 10 14 20 23 23 23 8 88 95 117 159
21 45 24 48 29 26 3 -13 7 -78 9 -144 3 -66 8 -130 12 -142 5 -17 3 -23 -7
-23 -8 0 -25 -12 -39 -26 -13 -14 -41 -34 -61 -45 -41 -21 -75 -62 -57 -68 6
-2 33 7 60 19 58 28 77 18 34 -16 -30 -25 -126 -83 -157 -96 -9 -4 -51 -30
-93 -57 -42 -28 -78 -51 -81 -51 -11 0 -2 38 17 69 15 25 25 32 41 28 22 -6
118 37 118 53 0 20 -23 20 -62 0 -22 -11 -41 -20 -42 -18 -2 2 -8 18 -16 36
-17 44 -8 51 78 60 71 8 112 29 112 59 0 7 6 13 14 13 15 0 86 74 86 90 0 21
-28 8 -65 -31 -45 -46 -76 -64 -144 -85 -60 -18 -91 -18 -91 1 0 8 5 15 10 15
6 0 10 9 10 20 0 13 7 20 20 20 24 0 26 15 4 24 -15 6 -14 10 6 31 16 17 19
25 9 25 -36 -1 -99 -91 -80 -114 11 -13 -10 -46 -28 -46 -6 0 -11 -4 -11 -10
0 -5 -16 -16 -36 -25 -33 -13 -35 -17 -29 -49 8 -39 -1 -76 -17 -76 -14 0 -4
150 12 196 11 31 48 66 160 151 73 55 114 99 101 107 -6 4 -39 -15 -73 -42
-73 -57 -164 -109 -173 -100 -14 13 8 49 38 64 35 18 87 63 87 76 0 19 -50 6
-85 -22 -21 -17 -43 -29 -49 -27 -7 2 -11 31 -10 69 0 51 6 75 26 109 14 24
28 57 32 72 4 16 21 53 39 83 80 137 88 163 62 198 -8 11 -15 28 -15 38 0 10
-5 18 -11 18 -8 0 -9 14 -5 45 6 38 4 46 -13 57 -26 16 -26 31 -1 87 18 38 18
46 6 60 -8 10 -12 28 -9 47 6 37 -7 49 -31 31 -14 -11 -15 -17 -6 -42 16 -41
7 -85 -36 -191 -20 -49 -45 -116 -54 -148 -9 -33 -23 -62 -30 -64 -9 -3 -11 1
-6 14 5 11 14 134 21 274 7 140 17 279 21 309 6 44 4 53 -7 49 -15 -5 -18 -10
-80 -142 -39 -82 -41 -91 -30 -120 8 -17 14 -38 14 -46 1 -36 -24 -199 -37
-242 -13 -40 -13 -48 0 -59 11 -9 17 -9 29 1 9 7 18 11 20 8 6 -6 -22 -289
-30 -296 -2 -2 -21 -5 -42 -6 -42 -1 -41 -3 -28 80 5 29 3 44 -5 49 -14 9 -29
-12 -47 -65 l-11 -35 -1 48 c-1 26 -5 47 -9 47 -4 0 -20 -27 -35 -60 -16 -33
-29 -60 -30 -60 -1 0 -2 64 -2 143 0 116 3 148 18 174 9 18 17 39 17 48 0 8 5
15 11 15 16 0 41 68 50 135 4 33 15 96 24 140 13 64 14 88 5 117 -13 46 -24
48 -50 6 -17 -28 -18 -34 -5 -36 8 -2 15 -10 15 -18 0 -12 -4 -12 -20 -2 -17
11 -24 8 -55 -22 -57 -55 -43 -12 25 78 33 44 60 85 60 91 0 21 -26 11 -42
-16 -23 -39 -88 -113 -98 -113 -17 0 28 83 73 135 25 30 36 65 20 65 -4 0 -16
-9 -28 -20 l-22 -20 5 30 c2 17 8 32 12 35 11 7 -8 76 -26 94 -12 13 -16 12
-32 -2 -36 -33 -57 -13 -27 26 7 11 17 37 20 59 10 58 33 109 63 141 30 32 30
32 63 9z m324 -152 c3 -5 1 -10 -4 -10 -6 0 -11 5 -11 10 0 6 2 10 4 10 3 0 8
-4 11 -10z m65 -40 c6 -11 9 -20 7 -20 -2 0 -12 9 -22 20 -10 11 -13 20 -7 20
6 0 16 -9 22 -20z m-1976 -191 c7 -115 15 -177 50 -364 39 -211 41 -280 8
-253 -13 11 -14 10 -4 -8 6 -11 17 -26 25 -33 8 -6 25 -37 37 -67 18 -42 20
-60 12 -77 -9 -21 -10 -21 -16 8 -4 17 -15 46 -24 65 -18 37 -244 263 -268
268 -11 3 -14 -9 -14 -53 0 -46 4 -60 25 -80 13 -14 28 -25 34 -25 5 0 30 -28
56 -62 89 -118 113 -141 146 -134 17 3 29 1 29 -5 0 -17 -43 -48 -67 -49 -27
0 -30 -12 -8 -30 17 -14 20 -30 5 -30 -5 0 -17 12 -27 26 -13 21 -14 30 -5 45
11 16 4 30 -50 101 -58 76 -156 168 -178 168 -19 0 -10 -28 15 -44 30 -20 33
-41 5 -32 -11 3 -29 9 -40 12 -38 12 -21 -22 31 -62 75 -58 183 -171 195 -204
12 -36 25 -50 50 -54 19 -3 20 -17 5 -58 -6 -17 -18 -5 -75 81 -55 83 -83 113
-143 159 -42 31 -86 65 -99 75 -13 10 -30 17 -36 14 -16 -5 98 -119 141 -141
25 -14 91 -108 91 -131 0 -5 -30 21 -67 57 -38 35 -81 73 -98 83 -74 47 -104
77 -111 111 -6 31 -26 45 -38 26 -3 -5 2 -37 10 -71 12 -55 12 -65 -1 -84 -22
-32 -18 -47 13 -47 21 -1 33 -11 56 -46 15 -25 26 -47 23 -50 -3 -3 -24 4 -47
16 -47 24 -83 23 -88 -2 -2 -12 8 -20 39 -28 50 -14 88 -39 89 -60 0 -12 3
-11 11 2 9 16 13 17 37 4 15 -8 43 -34 63 -58 54 -65 56 -72 20 -53 -122 63
-361 111 -361 73 0 -20 20 -38 43 -38 10 0 28 -5 40 -12 12 -6 33 -13 46 -14
27 -3 69 -40 58 -50 -4 -4 -29 3 -55 15 -50 24 -92 25 -99 4 -3 -7 8 -15 24
-18 71 -16 98 -31 107 -60 14 -50 22 -59 52 -66 16 -3 47 -16 69 -29 22 -13
41 -24 41 -24 1 -1 -1 -21 -5 -44 l-6 -44 -75 62 c-90 74 -206 144 -225 136
-26 -9 -6 -30 63 -68 71 -38 177 -116 169 -125 -3 -2 -27 7 -54 20 -26 14 -83
37 -125 52 -85 30 -128 28 -128 -5 0 -20 9 -24 85 -34 37 -5 245 -99 245 -110
0 -10 -64 6 -106 25 -57 27 -182 52 -221 44 -64 -12 -50 -45 20 -45 52 0 168
-30 190 -48 9 -8 17 -22 17 -30 0 -8 17 -30 37 -48 44 -40 31 -43 -38 -9 -27
14 -54 23 -59 20 -16 -10 -12 -31 10 -50 33 -30 24 -38 -33 -31 -54 7 -94 -8
-79 -29 4 -6 45 -21 92 -34 130 -36 158 -62 105 -97 -14 -9 -25 -22 -25 -29 0
-8 -31 3 -82 28 -95 48 -173 58 -173 22 0 -14 14 -24 54 -40 58 -22 70 -37 51
-60 -16 -19 -6 -31 40 -55 45 -23 53 -34 45 -59 -5 -17 -16 -19 -88 -19 -109
0 -175 -25 -255 -97 -33 -30 -62 -55 -65 -55 -2 0 -5 11 -6 25 -1 25 -1 29 0
88 1 71 22 215 40 272 10 33 19 86 19 119 0 32 7 79 15 105 8 25 24 91 35 146
12 55 39 149 61 208 21 59 39 116 39 125 0 10 6 26 14 37 7 11 17 35 21 53 4
19 20 43 41 60 39 31 42 42 14 67 -24 22 -20 60 11 111 10 17 19 48 19 69 0
21 17 89 37 152 30 94 41 116 60 124 20 7 22 11 11 28 -10 17 -8 28 14 68 15
26 33 48 40 48 27 1 37 16 31 49 -10 63 37 121 114 142 27 7 40 13 31 13 -15
1 -18 10 -18 54 0 55 12 77 42 77 19 0 88 56 88 72 0 16 41 69 49 63 5 -2 11
-59 15 -126z m1446 87 c0 -11 -19 -15 -25 -6 -3 5 1 10 9 10 9 0 16 -2 16 -4z
m40 -89 c0 -5 -4 -5 -10 -2 -5 3 -10 14 -10 23 0 15 2 15 10 2 5 -8 10 -19 10
-23z m-100 -102 c0 -8 -4 -15 -10 -15 -5 0 -10 7 -10 15 0 8 5 15 10 15 6 0
10 -7 10 -15z m-24 -83 c-8 -9 -19 -12 -23 -8 -4 4 -3 10 3 14 6 4 14 16 19
27 8 19 8 19 13 1 2 -10 -3 -25 -12 -34z m-1296 18 c0 -5 -2 -10 -4 -10 -3 0
-8 5 -11 10 -3 6 -1 10 4 10 6 0 11 -4 11 -10z m1224 -25 c20 -15 20 -15 -1
-34 -12 -11 -23 -26 -26 -33 -2 -7 -8 -10 -12 -6 -4 4 -2 22 4 39 9 25 8 34
-1 41 -10 6 -9 8 2 8 8 -1 24 -7 34 -15z m126 -35 c-6 -12 -14 -19 -17 -17 -2
3 1 15 7 27 6 12 14 19 17 17 2 -3 -1 -15 -7 -27z m128 -12 c-2 -6 -10 -14
-16 -16 -7 -2 -10 2 -6 12 7 18 28 22 22 4z m-228 -8 c0 -5 -5 -10 -11 -10 -5
0 -7 5 -4 10 3 6 8 10 11 10 2 0 4 -4 4 -10z m160 0 c0 -5 -5 -10 -11 -10 -5
0 -7 5 -4 10 3 6 8 10 11 10 2 0 4 -4 4 -10z m120 -90 c0 -5 -2 -10 -4 -10 -3
0 -8 5 -11 10 -3 6 -1 10 4 10 6 0 11 -4 11 -10z m-2060 -10 c0 -5 -4 -10 -10
-10 -5 0 -10 5 -10 10 0 6 5 10 10 10 6 0 10 -4 10 -10z m1050 -71 c0 -11 -4
-17 -10 -14 -5 3 -10 13 -10 21 0 8 5 14 10 14 6 0 10 -9 10 -21z m950 -60
c-13 -24 -35 -26 -25 -1 4 9 9 26 10 37 5 31 6 31 16 7 6 -15 5 -30 -1 -43z
m-2040 5 c0 -27 -4 -43 -10 -39 -5 3 -10 24 -10 46 0 21 5 39 10 39 6 0 10
-21 10 -46z m2430 -15 c-7 -11 -14 -18 -17 -15 -8 8 5 36 17 36 7 0 7 -6 0
-21z m-1314 -35 c-3 -9 -6 -18 -6 -20 0 -3 -4 -3 -10 1 -11 7 -2 35 12 35 6 0
7 -7 4 -16z m214 1 c0 -8 -2 -15 -4 -15 -2 0 -6 7 -10 15 -3 8 -1 15 4 15 6 0
10 -7 10 -15z m660 11 c0 -3 -4 -8 -10 -11 -5 -3 -10 -1 -10 4 0 6 5 11 10 11
6 0 10 -2 10 -4z m395 -91 c-9 -26 -20 -44 -23 -41 -2 3 3 26 13 51 9 26 20
44 23 41 2 -3 -3 -26 -13 -51z m-1922 -34 c37 -38 67 -74 67 -80 0 -22 -21
-10 -41 22 -11 17 -40 48 -64 67 -40 32 -57 60 -37 60 4 0 38 -31 75 -69z
m563 14 c14 -13 14 -16 0 -21 -9 -3 -16 -12 -16 -19 0 -21 -31 -48 -42 -37 -7
7 -2 25 13 51 26 47 25 46 45 26z m1424 1 c0 -7 -7 -19 -15 -26 -12 -10 -15
-9 -15 7 0 11 3 23 7 26 11 12 23 8 23 -7z m-1130 -54 c0 -15 -2 -15 -10 -2
-13 20 -13 33 0 25 6 -3 10 -14 10 -23z m-290 -36 c0 -3 -4 -8 -10 -11 -5 -3
-10 -1 -10 4 0 6 5 11 10 11 6 0 10 -2 10 -4z m1410 -26 c0 -5 -4 -10 -10 -10
-5 0 -10 5 -10 10 0 6 5 10 10 10 6 0 10 -4 10 -10z m-1370 -45 c0 -8 -4 -15
-10 -15 -5 0 -10 7 -10 15 0 8 5 15 10 15 6 0 10 -7 10 -15z m-372 -52 c-3
-42 -28 -59 -28 -20 0 32 9 57 22 57 5 0 8 -17 6 -37z m1219 11 c3 -8 -4 -25
-16 -38 -11 -12 -21 -30 -21 -39 0 -11 -8 -17 -24 -17 l-24 0 30 55 c30 57 44
67 55 39z m-1167 -4 c0 -5 -7 -10 -15 -10 -8 0 -15 5 -15 10 0 6 7 10 15 10 8
0 15 -4 15 -10z m-458 -97 c54 -54 98 -101 98 -105 0 -14 -27 -8 -41 9 -8 9
-44 40 -81 70 -57 45 -98 94 -98 118 0 20 38 -8 122 -92z m2108 82 c0 -8 -4
-15 -10 -15 -5 0 -10 7 -10 15 0 8 5 15 10 15 6 0 10 -7 10 -15z m-1390 -5 c0
-5 -2 -10 -4 -10 -3 0 -8 5 -11 10 -3 6 -1 10 4 10 6 0 11 -4 11 -10z m315
-19 c3 -5 1 -12 -5 -16 -5 -3 -10 1 -10 9 0 18 6 21 15 7z m225 -16 c0 -8 -4
-15 -10 -15 -5 0 -7 7 -4 15 4 8 8 15 10 15 2 0 4 -7 4 -15z m-630 -9 c0 -3
-4 -8 -10 -11 -5 -3 -10 -1 -10 4 0 6 5 11 10 11 6 0 10 -2 10 -4z m-67 -113
c4 -35 3 -63 -2 -63 -8 0 -41 87 -41 109 0 5 5 22 11 38 l12 28 7 -25 c4 -14
10 -53 13 -87z m249 68 c31 -16 45 -61 34 -113 -3 -18 -1 -37 5 -44 8 -10 8
-14 1 -14 -14 0 -58 75 -67 113 -4 15 -14 31 -23 36 -14 8 -14 12 -3 25 8 9
17 15 20 14 3 -2 18 -10 33 -17z m734 -39 c-21 -40 -41 -53 -31 -21 19 61 26
72 36 62 8 -8 6 -20 -5 -41z m174 26 c0 -13 -23 -5 -28 10 -2 7 2 10 12 6 9
-3 16 -11 16 -16z m-1372 -11 c2 -10 -3 -17 -12 -17 -10 0 -16 9 -16 21 0 24
23 21 28 -4z m57 13 c3 -5 -1 -10 -10 -10 -9 0 -13 5 -10 10 3 6 8 10 10 10 2
0 7 -4 10 -10z m1445 0 c0 -5 -13 -38 -29 -72 -16 -35 -32 -75 -35 -90 -7 -31
-26 -38 -26 -10 0 28 50 166 63 174 17 11 27 10 27 -2z m-950 -10 c0 -5 -6
-10 -14 -10 -8 0 -18 5 -21 10 -3 6 3 10 14 10 12 0 21 -4 21 -10z m1029 -42
c1 -10 -6 -26 -15 -35 -8 -10 -24 -29 -34 -43 l-19 -25 -1 27 c0 17 7 31 19
38 12 6 22 26 26 52 6 35 9 39 16 23 4 -11 8 -28 8 -37z m-1179 16 c0 -9 -5
-14 -12 -12 -18 6 -21 28 -4 28 9 0 16 -7 16 -16z m180 -23 c0 -12 -20 -25
-27 -18 -7 7 6 27 18 27 5 0 9 -4 9 -9z m775 -1 c-3 -5 -11 -10 -16 -10 -6 0
-7 5 -4 10 3 6 11 10 16 10 6 0 7 -4 4 -10z m-1691 -19 c40 -25 89 -81 106
-121 7 -17 21 -37 32 -44 17 -12 18 -17 7 -34 -10 -16 -10 -24 -1 -35 9 -10 9
-18 -1 -31 -12 -16 -16 -13 -39 31 -17 31 -24 54 -18 62 13 22 -9 70 -40 86
-15 8 -42 32 -59 54 -45 56 -41 65 13 32z m950 -38 c10 -21 26 -55 37 -75 25
-48 24 -50 -8 -46 -26 3 -28 7 -31 49 -2 31 -10 53 -23 64 -18 18 -19 17 -19
-18 0 -42 -17 -49 -26 -11 -5 18 0 32 17 50 12 13 25 24 28 24 4 0 15 -17 25
-37z m306 22 c0 -8 -4 -15 -10 -15 -5 0 -10 7 -10 15 0 8 5 15 10 15 6 0 10
-7 10 -15z m-1085 -35 c17 -33 18 -40 7 -40 -8 0 -42 52 -42 64 0 17 21 2 35
-24z m465 -3 c0 -5 -4 -5 -10 -2 -5 3 -10 14 -10 23 0 15 2 15 10 2 5 -8 10
-19 10 -23z m840 -7 c-12 -22 -30 -19 -30 5 0 16 33 38 38 25 2 -5 -2 -18 -8
-30z m-703 -4 c-4 -9 -11 -16 -17 -16 -11 0 -14 33 -3 44 11 10 26 -11 20 -28z
m813 27 c0 -24 -30 -115 -44 -134 -9 -13 -16 -38 -16 -56 0 -17 -5 -35 -10
-38 -6 -3 -7 -17 -4 -30 4 -17 0 -26 -14 -34 -11 -6 -22 -7 -26 -4 -9 10 -7
48 3 59 16 16 92 225 86 235 -4 5 1 9 9 9 9 0 16 -3 16 -7z m355 -24 c5 -14 2
-25 -6 -30 -10 -6 -13 -27 -11 -74 3 -54 1 -65 -12 -65 -19 0 -18 -3 -7 37 6
20 6 35 0 38 -20 13 -2 115 20 115 5 0 13 -10 16 -21z m-1369 -11 c5 -7 7 -25
6 -40 -1 -14 2 -29 8 -33 24 -15 8 -27 -28 -22 -37 4 -39 4 -34 -21 4 -21 2
-24 -12 -19 -10 4 -18 7 -19 7 -1 0 -2 15 -1 32 1 26 6 34 25 38 18 4 25 13
27 38 3 33 15 41 28 20z m941 -60 c-3 -7 -5 -2 -5 12 0 14 2 19 5 13 2 -7 2
-19 0 -25z m-829 10 c14 -14 16 -38 4 -38 -5 0 -14 11 -20 25 -12 26 -4 33 16
13z m562 -28 c0 -11 -7 -20 -15 -20 -15 0 -21 21 -8 33 12 13 23 7 23 -13z
m187 -12 c-3 -8 -6 -5 -6 6 -1 11 2 17 5 13 3 -3 4 -12 1 -19z m-260 0 c-2 -7
-10 -12 -17 -10 -7 2 -17 -3 -21 -10 -7 -10 -9 -9 -9 3 0 21 9 29 33 29 11 0
17 -5 14 -12z m453 2 c0 -5 -2 -10 -4 -10 -3 0 -8 5 -11 10 -3 6 -1 10 4 10 6
0 11 -4 11 -10z m430 -11 c0 -6 -4 -7 -10 -4 -5 3 -10 11 -10 16 0 6 5 7 10 4
6 -3 10 -11 10 -16z m-2160 -20 c0 -5 -7 -9 -15 -9 -15 0 -20 12 -9 23 8 8 24
-1 24 -14z m542 -1 c-7 -7 -12 -8 -12 -2 0 14 12 26 19 19 2 -3 -1 -11 -7 -17z
m288 7 c0 -8 -7 -15 -15 -15 -16 0 -20 12 -8 23 11 12 23 8 23 -8z m47 9 c-3
-3 -12 -4 -19 -1 -8 3 -5 6 6 6 11 1 17 -2 13 -5z m1033 -2 c0 -13 -12 -22
-22 -16 -10 6 -1 24 13 24 5 0 9 -4 9 -8z m-1864 -29 c-7 -7 -26 7 -26 19 0 6
6 6 15 -2 9 -7 13 -15 11 -17z m394 23 c0 -3 -4 -8 -10 -11 -5 -3 -10 -1 -10
4 0 6 5 11 10 11 6 0 10 -2 10 -4z m220 -6 c0 -5 -5 -10 -11 -10 -5 0 -7 5 -4
10 3 6 8 10 11 10 2 0 4 -4 4 -10z m397 -42 c-3 -8 -6 -5 -6 6 -1 11 2 17 5
13 3 -3 4 -12 1 -19z m388 11 c4 -6 -7 -28 -24 -49 -17 -21 -36 -50 -42 -64
-7 -14 -16 -26 -21 -26 -11 0 -10 17 1 25 5 3 17 27 27 53 25 69 43 87 59 61z
m-815 -25 c0 -8 -4 -12 -10 -9 -5 3 -10 13 -10 21 0 8 5 12 10 9 6 -3 10 -13
10 -21z m240 16 c0 -5 -4 -10 -10 -10 -5 0 -10 5 -10 10 0 6 5 10 10 10 6 0
10 -4 10 -10z m-106 -9 c3 -5 0 -14 -8 -20 -10 -9 -15 -8 -19 3 -9 22 15 37
27 17z m236 -21 c0 -5 -5 -10 -11 -10 -5 0 -7 5 -4 10 3 6 8 10 11 10 2 0 4
-4 4 -10z m30 0 c0 -5 -4 -10 -10 -10 -5 0 -10 5 -10 10 0 6 5 10 10 10 6 0
10 -4 10 -10z m-860 -26 c11 -12 11 -18 -2 -30 -14 -14 -18 -14 -42 1 -14 10
-26 24 -26 31 0 19 54 18 70 -2z m1575 6 c3 -5 1 -10 -4 -10 -6 0 -11 5 -11
10 0 6 2 10 4 10 3 0 8 -4 11 -10z m-228 -6 c-3 -3 -12 -4 -19 -1 -8 3 -5 6 6
6 11 1 17 -2 13 -5z m-180 -21 c2 -6 -5 -13 -17 -16 -12 -3 -20 0 -20 7 0 26
29 33 37 9z m-621 -49 c-5 -14 -8 -14 -21 0 -20 19 -19 34 3 38 18 4 27 -14
18 -38z m1942 33 c-2 -7 9 -37 24 -67 41 -84 59 -155 67 -261 l6 -96 -27 -16
c-15 -8 -36 -33 -47 -54 -24 -44 -55 -83 -68 -83 -15 0 -134 -130 -184 -201
-13 -19 -26 -23 -63 -24 -73 0 -88 -48 -19 -61 28 -5 46 -1 84 20 27 14 55 26
63 26 18 0 28 25 20 55 -4 18 -1 24 20 29 32 8 127 101 185 179 26 36 47 55
52 50 12 -12 79 -203 79 -225 0 -10 -4 -18 -9 -18 -5 0 -11 -18 -13 -40 -3
-29 1 -45 13 -56 14 -13 16 -28 12 -87 -4 -55 0 -92 16 -156 17 -64 19 -86 10
-97 -15 -19 -334 -21 -345 -2 -8 13 -12 10 131 105 124 82 145 100 145 130 0
33 -37 30 -114 -7 -33 -16 -88 -36 -121 -45 -68 -17 -122 -61 -111 -90 5 -13
14 -16 36 -11 33 6 42 -9 10 -19 -26 -8 -70 -62 -70 -86 0 -15 7 -19 31 -19
26 0 30 -3 24 -17 -21 -52 -20 -53 33 -53 60 0 72 -13 42 -45 -24 -25 -20 -45
9 -45 24 0 46 26 66 78 21 51 38 57 145 48 l77 -6 13 30 c17 40 26 38 34 -7 9
-55 7 -123 -3 -123 -4 0 -21 10 -36 22 -35 28 -130 37 -159 15 -28 -20 -11
-37 37 -37 23 0 49 -5 57 -10 13 -9 13 -12 -4 -25 -21 -16 -15 -45 10 -45 13
0 15 -6 9 -27 -4 -16 -8 -38 -10 -51 -1 -12 -10 -31 -19 -41 -17 -19 -22 -71
-6 -71 6 0 10 7 10 16 0 30 18 3 25 -36 4 -27 3 -46 -5 -55 -20 -24 -3 -81 30
-105 17 -12 30 -27 30 -35 0 -7 11 -27 25 -43 21 -26 24 -36 18 -81 -3 -28
-10 -54 -15 -57 -4 -3 -34 19 -66 48 -31 29 -73 62 -92 72 -40 22 -120 95
-120 111 0 6 -34 10 -90 10 -101 0 -115 8 -103 60 3 17 5 35 4 40 -1 6 -3 31
-4 57 -2 36 -7 50 -28 67 -15 11 -39 50 -55 87 -26 62 -27 69 -16 122 14 67 9
93 -28 147 -48 70 -54 235 -10 235 10 0 23 -7 30 -15 22 -27 73 -17 175 35 55
28 112 50 127 50 21 0 31 7 38 25 5 14 16 25 23 25 23 0 67 40 67 60 0 11 11
27 25 36 14 9 25 24 25 33 0 18 -88 94 -100 86 -4 -2 -10 -22 -14 -44 -5 -32
-19 -51 -81 -109 -42 -39 -101 -83 -131 -98 -49 -24 -58 -25 -79 -14 -19 10
-33 11 -61 2 -35 -10 -36 -10 -49 21 -7 18 -16 47 -20 65 -4 19 -18 40 -32 49
-24 16 -73 103 -73 131 0 7 12 -1 28 -17 27 -30 83 -44 109 -28 6 4 14 3 18
-3 13 -21 60 -9 141 35 83 46 154 114 154 149 0 22 -3 21 -57 -20 -107 -82
-223 -106 -313 -65 -35 15 -39 20 -26 28 9 5 24 24 34 43 9 18 24 36 32 40 24
10 79 40 155 81 39 21 76 39 83 39 22 0 12 -28 -18 -52 -17 -13 -45 -35 -63
-50 -18 -14 -43 -28 -56 -30 -14 -1 -26 -9 -29 -15 -6 -19 38 -15 73 7 17 10
62 35 102 55 86 43 97 55 90 97 -4 25 1 39 19 58 25 28 24 70 -3 70 -14 0 -29
-10 -114 -77 -44 -36 -54 -39 -65 -22 -9 15 55 70 128 109 68 37 88 55 88 81
0 25 -31 25 -55 0 -38 -43 -310 -180 -325 -164 -3 3 3 10 13 17 10 6 45 30 78
54 32 23 63 42 69 42 18 0 106 48 139 75 23 20 31 35 31 59 0 18 5 37 12 44
15 15 20 15 16 -1z m-1478 -18 c0 -11 -4 -18 -10 -14 -5 3 -7 12 -3 20 7 21
13 19 13 -6z m912 -11 c-7 -7 -12 -8 -12 -2 0 14 12 26 19 19 2 -3 -1 -11 -7
-17z m-1842 8 c0 -3 -4 -8 -10 -11 -5 -3 -10 -1 -10 4 0 6 5 11 10 11 6 0 10
-2 10 -4z m1600 -82 c0 -19 -4 -34 -10 -34 -5 0 -10 17 -10 38 0 20 -4 44 -9
52 -6 8 -7 18 -4 23 9 14 33 -43 33 -79z m-1353 54 c-3 -8 -6 -5 -6 6 -1 11 2
17 5 13 3 -3 4 -12 1 -19z m153 3 c0 -11 6 -22 13 -24 6 -3 -2 -6 -20 -6 -40
-1 -65 8 -57 21 4 6 9 6 14 -2 6 -9 11 -7 19 9 14 26 31 27 31 2z m836 -9 c24
4 29 -22 9 -47 -14 -19 -15 -19 -26 -2 -8 13 -18 17 -34 13 -22 -6 -23 -5 -12
29 10 32 12 34 28 19 9 -8 25 -14 35 -12z m-932 3 c-4 -8 -10 -12 -15 -9 -11
6 -2 24 11 24 5 0 7 -7 4 -15z m-210 -11 c12 -30 6 -170 -10 -229 -12 -50 -13
-68 -3 -105 12 -45 28 -310 19 -310 -3 0 -6 -30 -8 -66 -2 -47 3 -82 18 -126
30 -86 39 -271 16 -327 -20 -50 -21 -137 -2 -188 13 -38 27 -96 51 -226 6 -37
15 -70 18 -73 3 -3 15 0 27 6 31 17 39 2 11 -19 -35 -27 -18 -44 36 -38 53 6
60 11 39 32 -18 18 -22 55 -6 55 6 0 10 -11 10 -23 0 -38 34 -46 183 -42 75 2
147 7 160 10 14 4 28 2 31 -4 4 -6 15 -11 25 -11 10 0 31 -10 46 -22 l28 -22
-5 22 c-6 22 3 35 59 85 20 17 22 17 52 -1 27 -17 30 -21 16 -32 -12 -10 -15
-10 -15 4 0 26 -38 20 -42 -6 -4 -31 29 -58 57 -48 12 4 64 6 116 3 51 -2 121
-6 154 -7 33 -2 69 -7 80 -12 11 -4 38 -7 60 -6 22 1 60 2 84 2 24 0 49 4 56
10 9 7 16 6 25 -5 7 -8 16 -12 21 -9 5 3 19 -2 31 -10 15 -11 34 -13 66 -9 36
5 48 3 58 -11 10 -15 16 -16 34 -6 14 7 40 9 70 5 30 -4 56 -2 70 5 40 22 260
-7 450 -57 63 -17 128 -50 185 -93 22 -16 53 -38 69 -48 44 -26 106 -83 106
-97 0 -6 14 -26 30 -43 17 -18 30 -39 30 -48 0 -23 31 -116 47 -139 7 -11 13
-35 13 -54 0 -34 6 -56 41 -157 16 -47 40 -334 27 -334 -13 0 -66 32 -80 47
-11 13 -17 49 -21 118 -4 55 -9 111 -12 126 -5 20 -2 27 19 37 33 15 33 29 1
44 -14 6 -32 25 -39 42 -30 70 -36 88 -36 107 0 12 -8 33 -17 47 -36 54 -43
68 -54 93 -5 14 -57 65 -114 114 -57 48 -106 93 -108 100 -3 6 -38 17 -78 24
-41 8 -126 24 -190 37 -64 12 -183 28 -265 34 -82 6 -155 13 -162 15 -7 3 -32
-2 -55 -10 -27 -9 -45 -11 -51 -5 -11 11 -146 13 -194 4 -39 -8 -54 -43 -54
-126 0 -44 -5 -68 -16 -81 -13 -15 -14 -22 -4 -38 17 -27 7 -39 -33 -39 l-33
0 -6 68 c-4 37 -9 88 -11 113 -4 37 -1 49 15 64 11 10 20 21 20 25 0 28 -308
72 -364 52 -27 -10 -40 -9 -67 2 -28 11 -67 13 -207 6 -96 -4 -182 -6 -192 -3
-32 8 -192 -37 -265 -75 -73 -38 -196 -151 -225 -207 -8 -16 -25 -40 -38 -54
-72 -80 -89 -115 -100 -209 -6 -50 -18 -106 -28 -123 l-17 -33 -18 23 c-27 33
-24 111 6 202 40 117 145 317 180 342 16 12 43 37 59 55 16 19 52 49 80 68
141 94 162 118 132 144 -13 10 -17 9 -22 -4 -3 -8 -26 -25 -50 -37 -24 -12
-64 -39 -90 -61 -25 -21 -50 -38 -54 -38 -5 0 -30 -27 -56 -60 -26 -33 -52
-59 -58 -57 -22 7 -49 169 -77 462 -6 61 -15 144 -20 185 -21 179 -22 256 -3
317 10 32 28 72 42 90 33 44 70 155 77 233 7 71 23 154 36 185 4 11 15 45 24
75 9 30 31 84 50 120 35 68 75 196 75 241 0 39 22 54 34 23z m1756 6 c0 -5 -5
-10 -11 -10 -5 0 -7 5 -4 10 3 6 8 10 11 10 2 0 4 -4 4 -10z m-1300 -26 c0
-18 -4 -25 -14 -21 -9 3 -17 -3 -21 -16 -6 -18 -8 -19 -12 -5 -5 18 23 68 38
68 5 0 9 -12 9 -26z m120 6 c0 -5 -2 -10 -4 -10 -3 0 -8 5 -11 10 -3 6 -1 10
4 10 6 0 11 -4 11 -10z m470 0 c0 -5 -4 -10 -10 -10 -5 0 -10 5 -10 10 0 6 5
10 10 10 6 0 10 -4 10 -10z m615 0 c3 -5 1 -10 -4 -10 -6 0 -11 5 -11 10 0 6
2 10 4 10 3 0 8 -4 11 -10z m35 -14 c0 -3 -4 -8 -10 -11 -5 -3 -10 -1 -10 4 0
6 5 11 10 11 6 0 10 -2 10 -4z m235 -5 c8 -13 -57 -131 -73 -131 -9 0 -10 5
-2 19 5 11 10 32 10 48 0 49 46 94 65 64z m-1375 -42 c0 -14 -31 -39 -41 -34
-12 8 -11 17 2 52 10 27 11 27 25 9 8 -11 14 -23 14 -27z m220 21 c0 -11 -4
-20 -9 -20 -11 0 -22 26 -14 34 12 12 23 5 23 -14z m645 -32 c-14 -29 -25 -61
-25 -70 0 -31 -26 -19 -37 17 -6 20 -7 35 -2 35 5 0 9 11 9 24 0 18 4 23 18
19 10 -2 24 3 31 11 27 32 29 15 6 -36z m-1160 32 c-3 -5 -10 -10 -16 -10 -5
0 -9 5 -9 10 0 6 7 10 16 10 8 0 12 -4 9 -10z m315 0 c0 -5 -2 -10 -4 -10 -3
0 -8 5 -11 10 -3 6 -1 10 4 10 6 0 11 -4 11 -10z m98 -2 c21 -21 13 -25 -22
-14 -19 6 -32 14 -30 18 8 12 38 10 52 -4z m152 -8 c0 -5 -4 -10 -10 -10 -5 0
-10 5 -10 10 0 6 5 10 10 10 6 0 10 -4 10 -10z m59 -32 c-7 -13 -14 -18 -16
-11 -3 7 1 22 8 35 7 13 14 18 16 11 3 -7 -1 -22 -8 -35z m701 11 c0 -6 -4 -7
-10 -4 -5 3 -10 11 -10 16 0 6 5 7 10 4 6 -3 10 -11 10 -16z m-850 -15 c0 -8
-4 -14 -10 -14 -5 0 -10 9 -10 21 0 11 5 17 10 14 6 -3 10 -13 10 -21z m470
21 c0 -3 -16 -23 -36 -45 -37 -40 -64 -52 -64 -26 0 18 31 42 98 75 1 0 2 -1
2 -4z m458 -33 c2 -7 -3 -12 -12 -12 -9 0 -16 7 -16 16 0 17 22 14 28 -4z
m-1438 4 c0 -3 -4 -8 -10 -11 -5 -3 -10 -1 -10 4 0 6 5 11 10 11 6 0 10 -2 10
-4z m459 -62 c-9 -11 -14 -12 -20 -3 -8 13 -2 36 15 58 9 12 12 9 14 -13 2
-15 -2 -34 -9 -42z m-269 41 c0 -8 -4 -15 -10 -15 -5 0 -10 7 -10 15 0 8 5 15
10 15 6 0 10 -7 10 -15z m180 0 c11 -13 10 -18 -4 -28 -9 -7 -20 -32 -24 -57
l-8 -45 -7 64 c-4 34 -4 67 -1 72 8 14 30 11 44 -6z m194 -11 c8 -22 8 -24 -8
-24 -8 0 -23 -11 -34 -25 -27 -34 -38 -32 -14 3 10 15 22 35 25 45 8 21 23 22
31 1z m666 0 c0 -9 -5 -14 -12 -12 -18 6 -21 28 -4 28 9 0 16 -7 16 -16z
m-475 -4 c3 -5 1 -10 -4 -10 -6 0 -11 5 -11 10 0 6 2 10 4 10 3 0 8 -4 11 -10z
m-735 -58 c-6 -2 -19 -13 -30 -24 -10 -11 -21 -15 -24 -10 -3 5 3 17 14 27 10
9 16 23 14 30 -3 7 3 15 13 17 20 4 33 -34 13 -40z m610 34 c0 -15 -18 -31
-26 -23 -7 7 7 37 17 37 5 0 9 -6 9 -14z m-380 -6 c0 -5 -12 -10 -27 -10 -22
0 -25 2 -13 10 20 13 40 13 40 0z m417 -5 c9 -24 -1 -27 -15 -5 -8 13 -8 20
-2 20 6 0 13 -7 17 -15z m187 -10 c-4 -8 -8 -15 -10 -15 -2 0 -4 7 -4 15 0 8
4 15 10 15 5 0 7 -7 4 -15z m-714 -4 c0 -13 -28 -22 -35 -11 -3 4 1 11 7 13
20 8 28 8 28 -2z m-213 -7 c-3 -3 -12 -4 -19 -1 -8 3 -5 6 6 6 11 1 17 -2 13
-5z m271 -30 c-10 -10 -28 6 -28 24 0 15 1 15 17 -1 9 -9 14 -19 11 -23z
m1179 10 c-9 -9 -28 6 -21 18 4 6 10 6 17 -1 6 -6 8 -13 4 -17z m-1067 6 c0
-5 -6 -10 -14 -10 -8 0 -18 5 -21 10 -3 6 3 10 14 10 12 0 21 -4 21 -10z m-83
-22 c-3 -8 -6 -5 -6 6 -1 11 2 17 5 13 3 -3 4 -12 1 -19z m1243 18 c0 -3 -4
-8 -10 -11 -5 -3 -10 -1 -10 4 0 6 5 11 10 11 6 0 10 -2 10 -4z m137 -18 c-3
-8 -6 -5 -6 6 -1 11 2 17 5 13 3 -3 4 -12 1 -19z m-847 3 c0 -5 -7 -14 -15
-21 -16 -14 -18 -10 -9 14 6 17 24 22 24 7z m891 -43 c-15 -43 -14 -75 4 -85
12 -7 13 -18 6 -57 -11 -59 -31 -85 -31 -40 0 17 -7 54 -16 84 -17 56 -14 72
23 130 21 31 29 11 14 -32z m-1521 0 c0 -14 -18 -9 -24 8 -11 28 -6 39 9 20 8
-11 15 -23 15 -28z m188 4 c3 -26 -2 -33 -27 -47 -38 -19 -40 -29 -5 -21 22 6
24 4 16 -11 -8 -13 -6 -20 6 -30 16 -11 16 -12 1 -13 -9 0 -22 7 -30 16 -7 9
-22 14 -36 11 -21 -4 -24 -1 -21 21 2 16 14 32 33 42 20 11 31 26 33 44 5 36
26 28 30 -12z m962 29 c0 -12 -20 -25 -27 -18 -7 7 6 27 18 27 5 0 9 -4 9 -9z
m-1464 -37 c-4 -9 -9 -15 -11 -12 -3 3 -3 13 1 22 4 9 9 15 11 12 3 -3 3 -13
-1 -22z m2054 6 c0 -12 -40 -33 -47 -26 -9 8 28 47 38 40 5 -3 9 -9 9 -14z
m-1500 -5 c0 -8 -4 -15 -10 -15 -5 0 -10 7 -10 15 0 8 5 15 10 15 6 0 10 -7
10 -15z m430 -10 c7 -8 8 -15 2 -15 -5 0 -15 7 -22 15 -7 8 -8 15 -2 15 5 0
15 -7 22 -15z m734 6 c3 -4 3 -11 0 -14 -8 -8 -34 3 -34 14 0 11 27 12 34 0z
m-1574 -16 c0 -8 -3 -15 -7 -15 -5 0 -18 -3 -30 -6 -17 -5 -23 -2 -23 9 0 13
9 18 53 26 4 0 7 -6 7 -14z m1068 -31 c14 -52 12 -60 -23 -66 -30 -6 -34 8 -5
17 21 7 27 30 10 40 -12 7 -14 55 -2 55 4 0 13 -21 20 -46z m127 36 c3 -5 1
-10 -4 -10 -6 0 -11 5 -11 10 0 6 2 10 4 10 3 0 8 -4 11 -10z m179 -4 c22 -11
24 -15 12 -25 -22 -18 -51 -9 -54 17 -4 25 5 27 42 8z m150 -18 c-3 -4 -12 -4
-21 -1 -9 4 -21 -1 -29 -12 -20 -27 -28 -11 -9 18 14 22 19 23 40 14 13 -7 21
-15 19 -19z m246 22 c0 -5 -8 -10 -17 -10 -15 0 -16 2 -3 10 19 12 20 12 20 0z
m-2340 -40 c0 -5 -4 -10 -9 -10 -6 0 -13 5 -16 10 -3 6 1 10 9 10 9 0 16 -4
16 -10z m685 -1 c4 -6 4 -13 0 -17 -3 -3 -10 -1 -14 6 -4 8 -15 10 -26 6 -13
-5 -16 -4 -11 4 9 15 43 16 51 1z m795 1 c0 -5 -8 -10 -17 -10 -15 0 -16 2 -3
10 19 12 20 12 20 0z m677 -16 c-3 -3 -12 -4 -19 -1 -8 3 -5 6 6 6 11 1 17 -2
13 -5z m-1413 -23 c22 -24 24 -86 6 -128 -15 -34 -49 -49 -35 -15 15 35 17 52
7 52 -23 0 -42 -13 -42 -28 0 -12 -3 -13 -11 -5 -16 16 10 76 27 62 16 -13 48
18 36 35 -14 18 -22 46 -13 46 4 0 16 -8 25 -19z m-155 -87 c-7 -8 -18 -13
-26 -10 -19 8 -16 -14 5 -30 16 -13 16 -13 -3 -14 -21 0 -38 21 -67 83 l-18
39 31 -26 c17 -14 35 -26 41 -26 5 0 17 18 26 40 l17 39 3 -40 c2 -22 -2 -47
-9 -55z m-54 66 c3 -5 2 -10 -4 -10 -5 0 -13 5 -16 10 -3 6 -2 10 4 10 5 0 13
-4 16 -10z m425 -31 c0 -6 -4 -7 -10 -4 -5 3 -10 11 -10 16 0 6 5 7 10 4 6 -3
10 -11 10 -16z m1060 -5 c0 -8 -4 -12 -10 -9 -5 3 -10 13 -10 21 0 8 5 12 10
9 6 -3 10 -13 10 -21z m-360 -5 c0 -24 -23 -21 -28 4 -2 10 3 17 12 17 10 0
16 -9 16 -21z m155 -17 c-9 -9 -35 8 -35 24 0 16 2 16 20 -1 11 -10 18 -20 15
-23z m-1008 6 c-3 -8 -6 -5 -6 6 -1 11 2 17 5 13 3 -3 4 -12 1 -19z m793 6 c0
-8 -5 -12 -10 -9 -6 4 -8 11 -5 16 9 14 15 11 15 -7z m383 -15 c5 -20 5 -20
-13 -4 -11 10 -17 22 -14 26 8 13 21 3 27 -22z m-898 11 c3 -5 1 -10 -4 -10
-6 0 -11 5 -11 10 0 6 2 10 4 10 3 0 8 -4 11 -10z m612 -12 c-3 -8 -6 -5 -6 6
-1 11 2 17 5 13 3 -3 4 -12 1 -19z m-1217 8 c0 -3 -4 -8 -10 -11 -5 -3 -10 -1
-10 4 0 6 5 11 10 11 6 0 10 -2 10 -4z m1276 -33 c-11 -11 -19 6 -11 24 8 17
8 17 12 0 3 -10 2 -21 -1 -24z m314 12 c0 -8 -7 -15 -15 -15 -26 0 -18 20 13
29 1 1 2 -6 2 -14z m96 -14 c-8 -13 -36 -15 -36 -3 0 4 5 13 12 20 14 14 34 0
24 -17z m-1351 -11 c8 0 17 5 20 10 3 6 11 10 17 10 6 0 2 -10 -9 -22 -12 -13
-23 -36 -25 -52 -4 -37 -23 -44 -33 -14 -11 34 -12 61 -1 83 9 18 10 18 14 3
2 -10 10 -18 17 -18z m719 11 c3 -5 -1 -12 -10 -15 -20 -8 -29 -1 -19 13 8 13
22 14 29 2z m-894 -16 c7 -9 8 -15 2 -15 -5 0 -12 7 -16 15 -3 8 -4 15 -2 15
2 0 9 -7 16 -15z m528 -44 c-15 -5 -42 25 -33 38 4 8 13 4 25 -11 10 -13 14
-25 8 -27z m237 13 c12 -19 14 -29 6 -37 -6 -6 -11 -26 -11 -44 0 -18 -4 -33
-10 -33 -13 0 -13 56 0 81 9 16 7 19 -15 19 -27 0 -32 9 -13 28 17 17 24 15
43 -14z m65 1 c0 -8 -4 -17 -10 -20 -6 -4 -10 5 -10 20 0 15 4 24 10 20 6 -3
10 -12 10 -20z m224 -24 c-6 -6 -24 19 -24 34 1 6 7 1 15 -9 8 -11 12 -22 9
-25z m-834 9 c0 -11 -4 -20 -10 -20 -5 0 -10 9 -10 20 0 11 5 20 10 20 6 0 10
-9 10 -20z m410 -5 c10 -12 10 -15 -3 -15 -8 0 -20 7 -27 15 -10 12 -10 15 3
15 8 0 20 -7 27 -15z m530 5 c0 -5 -5 -10 -11 -10 -5 0 -7 5 -4 10 3 6 8 10
11 10 2 0 4 -4 4 -10z m-2360 -10 c0 -5 -5 -10 -11 -10 -5 0 -7 5 -4 10 3 6 8
10 11 10 2 0 4 -4 4 -10z m2740 6 c0 -3 -4 -8 -10 -11 -5 -3 -10 -1 -10 4 0 6
5 11 10 11 6 0 10 -2 10 -4z m-310 -31 c0 -8 -4 -17 -10 -20 -6 -4 -10 5 -10
20 0 15 4 24 10 20 6 -3 10 -12 10 -20z m-1768 10 c3 -3 -3 -51 -13 -106 -14
-82 -27 -117 -70 -197 -44 -82 -52 -107 -56 -162 -2 -36 -7 -103 -11 -150 -5
-61 -3 -96 6 -125 8 -24 11 -58 8 -84 -4 -33 -2 -47 9 -55 10 -7 18 -42 24
-108 5 -53 14 -106 21 -118 6 -11 10 -35 8 -53 l-3 -32 -75 -2 c-57 -1 -88 -7
-130 -27 -30 -14 -67 -26 -83 -26 -23 0 -29 5 -33 30 -4 16 -13 35 -20 41 -12
9 -14 4 -14 -29 0 -45 -25 -72 -66 -72 -29 0 -34 17 -34 110 0 91 5 110 31
110 23 0 24 16 4 63 -8 20 -15 55 -15 77 0 22 -7 57 -15 77 -8 19 -15 53 -15
75 0 21 -6 49 -14 61 -13 21 -24 127 -32 310 l-4 87 41 0 c36 0 41 3 55 35 22
52 104 91 214 100 84 7 85 7 124 -24 21 -17 43 -31 49 -31 10 0 6 30 -8 64 -7
17 -5 18 28 12 31 -6 38 -3 48 16 7 13 13 45 14 73 2 27 3 53 4 58 1 8 15 9
23 2z m2198 -4 c0 -12 -20 -25 -27 -18 -7 7 6 27 18 27 5 0 9 -4 9 -9z m-1717
-18 c11 -10 -24 -43 -46 -43 -20 0 -20 1 3 25 25 26 32 29 43 18z m-1153 -23
c0 -11 -4 -20 -10 -20 -5 0 -10 9 -10 20 0 11 5 20 10 20 6 0 10 -9 10 -20z
m1335 10 c-3 -5 -11 -10 -16 -10 -6 0 -7 5 -4 10 3 6 11 10 16 10 6 0 7 -4 4
-10z m1230 0 c-3 -5 -15 -10 -26 -10 -11 0 -17 5 -14 10 3 6 15 10 26 10 11 0
17 -4 14 -10z m-2014 -33 c-8 -8 -11 -7 -11 4 0 20 13 34 18 19 3 -7 -1 -17
-7 -23z m679 13 c0 -5 -7 -10 -15 -10 -8 0 -15 5 -15 10 0 6 7 10 15 10 8 0
15 -4 15 -10z m594 1 c3 -5 -1 -12 -10 -15 -22 -9 -24 -8 -24 9 0 16 25 21 34
6z m926 -16 c0 -8 -7 -15 -15 -15 -26 0 -18 20 13 29 1 1 2 -6 2 -14z m-453
-21 c-9 -9 -28 6 -21 18 4 6 10 6 17 -1 6 -6 8 -13 4 -17z m-2313 -88 c-7 -92
-24 -108 -24 -24 0 47 18 123 28 114 2 -2 0 -42 -4 -90z m2215 70 c10 -12 8
-13 -8 -9 -12 3 -21 9 -21 14 0 14 16 11 29 -5z m411 -2 c0 -8 -4 -12 -10 -9
-5 3 -10 10 -10 16 0 5 5 9 10 9 6 0 10 -7 10 -16z m-1350 -45 c0 -10 -4 -21
-10 -24 -5 -3 -10 3 -10 14 0 10 -3 28 -7 38 -6 16 -5 16 10 4 9 -7 17 -22 17
-32z m910 15 c0 -8 -4 -12 -10 -9 -5 3 -10 13 -10 21 0 8 5 12 10 9 6 -3 10
-13 10 -21z m-640 -4 c0 -5 -4 -10 -10 -10 -5 0 -10 5 -10 10 0 6 5 10 10 10
6 0 10 -4 10 -10z m186 -35 c-7 -18 -26 -20 -26 -2 0 18 24 41 28 27 2 -6 1
-17 -2 -25z m624 25 c0 -5 -2 -10 -4 -10 -3 0 -8 5 -11 10 -3 6 -1 10 4 10 6
0 11 -4 11 -10z m-970 -18 c0 -5 9 -19 20 -32 20 -23 26 -40 13 -40 -4 0 -22
15 -41 33 -32 31 -34 31 -48 13 -18 -26 -29 -14 -12 13 13 21 68 31 68 13z
m1300 -2 c0 -5 -4 -10 -10 -10 -5 0 -10 5 -10 10 0 6 5 10 10 10 6 0 10 -4 10
-10z m165 -10 c3 -5 1 -10 -4 -10 -6 0 -11 5 -11 10 0 6 2 10 4 10 3 0 8 -4
11 -10z m-270 -20 c0 -7 -6 -15 -12 -17 -8 -3 -13 4 -13 17 0 13 5 20 13 18 6
-3 12 -11 12 -18z m-1455 -44 c0 -5 -9 -1 -20 9 -24 21 -47 14 -52 -17 -2 -16
-5 -19 -11 -10 -5 8 3 23 23 44 l32 32 14 -25 c7 -13 13 -28 14 -33z m930 50
c0 -3 -4 -8 -10 -11 -5 -3 -10 -1 -10 4 0 6 5 11 10 11 6 0 10 -2 10 -4z m663
-23 c3 -15 1 -36 -4 -45 -10 -19 -80 -70 -87 -63 -10 10 12 65 39 98 36 44 45
46 52 10z m-1465 -1 c2 -7 -2 -10 -12 -6 -9 3 -16 11 -16 16 0 13 23 5 28 -10z
m837 -2 c-3 -5 -13 -10 -21 -10 -8 0 -14 5 -14 10 0 6 9 10 21 10 11 0 17 -4
14 -10z m-327 -19 c3 -8 -1 -12 -9 -9 -7 2 -15 10 -17 17 -3 8 1 12 9 9 7 -2
15 -10 17 -17z m642 3 c0 -8 -4 -12 -10 -9 -5 3 -10 10 -10 16 0 5 5 9 10 9 6
0 10 -7 10 -16z m-1123 -16 c-3 -8 -6 -5 -6 6 -1 11 2 17 5 13 3 -3 4 -12 1
-19z m1173 12 c0 -5 -4 -10 -10 -10 -5 0 -10 5 -10 10 0 6 5 10 10 10 6 0 10
-4 10 -10z m-845 -10 c3 -5 1 -10 -4 -10 -6 0 -11 5 -11 10 0 6 2 10 4 10 3 0
8 -4 11 -10z m55 -10 c0 -5 -4 -10 -10 -10 -5 0 -10 5 -10 10 0 6 5 10 10 10
6 0 10 -4 10 -10z m1520 6 c0 -3 -4 -8 -10 -11 -5 -3 -10 -1 -10 4 0 6 5 11
10 11 6 0 10 -2 10 -4z m-645 -15 c3 -5 1 -12 -5 -16 -5 -3 -10 1 -10 9 0 18
6 21 15 7z m-1295 -34 c0 -4 -4 -5 -10 -2 -5 3 -10 1 -10 -4 0 -6 -4 -11 -10
-11 -5 0 -10 11 -10 25 0 23 2 24 20 13 11 -7 20 -16 20 -21z m250 8 c0 -8 -4
-15 -9 -15 -13 0 -22 16 -14 24 11 11 23 6 23 -9z m-380 -5 c0 -5 -4 -10 -10
-10 -5 0 -10 5 -10 10 0 6 5 10 10 10 6 0 10 -4 10 -10z m180 0 c0 -5 -2 -10
-4 -10 -3 0 -8 5 -11 10 -3 6 -1 10 4 10 6 0 11 -4 11 -10z m130 0 c0 -5 -5
-10 -11 -10 -5 0 -7 5 -4 10 3 6 8 10 11 10 2 0 4 -4 4 -10z m1315 -30 c3 -5
-10 -23 -29 -41 -20 -17 -38 -41 -42 -52 -7 -21 -7 -21 -24 1 -10 12 -23 22
-29 22 -30 0 -5 31 42 54 58 27 73 30 82 16z m-745 -23 c0 -12 -6 -17 -17 -15
-26 5 -28 34 -3 34 13 0 20 -7 20 -19z m51 -32 l-8 -30 -12 23 c-10 18 -10 26
0 38 18 22 30 3 20 -31z m433 -6 c-7 -12 -45 10 -52 30 -3 9 5 8 27 -4 18 -9
29 -20 25 -26z m76 15 c0 -8 -4 -12 -10 -9 -5 3 -10 10 -10 16 0 5 5 9 10 9 6
0 10 -7 10 -16z m-1370 -19 c0 -15 30 -74 30 -60 1 17 40 -39 40 -57 0 -22
-33 -24 -50 -3 -22 27 -40 18 -33 -16 5 -27 3 -31 -13 -27 -11 2 -20 13 -22
26 -3 17 -9 22 -24 20 -12 -2 -23 2 -25 8 -4 12 39 34 67 34 11 0 20 7 20 15
0 8 -4 15 -9 15 -10 0 -22 51 -15 62 7 11 34 -3 34 -17z m680 15 c0 -5 -2 -10
-4 -10 -3 0 -8 5 -11 10 -3 6 -1 10 4 10 6 0 11 -4 11 -10z m-800 -10 c0 -5
-7 -10 -16 -10 -8 0 -12 5 -9 10 3 6 10 10 16 10 5 0 9 -4 9 -10z m260 6 c0
-3 -4 -8 -10 -11 -5 -3 -10 -1 -10 4 0 6 5 11 10 11 6 0 10 -2 10 -4z m1400
-36 c0 -5 -4 -10 -10 -10 -5 0 -10 5 -10 10 0 6 5 10 10 10 6 0 10 -4 10 -10z
m-216 -46 c-25 -35 -30 -44 -42 -74 -10 -25 -11 -24 -11 8 -1 37 -10 40 -36
12 -19 -21 -35 -26 -35 -11 0 19 46 58 82 70 21 7 40 17 44 22 3 6 8 8 11 5 3
-3 -3 -17 -13 -32z m-1086 -25 c2 -23 2 -23 -13 -5 -18 24 -20 39 -2 34 6 -3
13 -15 15 -29z m642 16 c0 -8 -7 -15 -15 -15 -9 0 -12 6 -9 15 4 8 10 15 15
15 5 0 9 -7 9 -15z m674 -5 c18 -17 -8 -30 -59 -30 -30 0 -77 -9 -105 -19 -55
-21 -64 -14 -24 18 18 14 41 21 69 21 29 0 45 5 49 15 4 11 13 14 33 9 16 -4
32 -10 37 -14z m-931 -48 c-21 -5 -35 11 -27 31 5 15 8 14 24 -6 16 -19 16
-22 3 -25z m422 38 c3 -5 1 -10 -4 -10 -6 0 -11 5 -11 10 0 6 2 10 4 10 3 0 8
-4 11 -10z m-345 -5 c0 -11 -40 -48 -46 -43 -8 9 19 48 33 48 7 0 13 -2 13 -5z
m875 -25 c3 -5 1 -10 -4 -10 -6 0 -11 5 -11 10 0 6 2 10 4 10 3 0 8 -4 11 -10z
m-865 -37 c-1 -24 -2 -26 -11 -10 -5 9 -7 22 -4 27 10 17 15 11 15 -17z m-590
-2 c0 -11 -51 -33 -59 -26 -8 9 39 46 50 39 5 -3 9 -9 9 -13z m640 -14 c0 -20
0 -20 -15 -1 -19 25 -19 35 0 28 8 -4 15 -16 15 -27z m-868 -9 c-7 -7 -12 -8
-12 -2 0 14 12 26 19 19 2 -3 -1 -11 -7 -17z m1145 -15 c-3 -10 -5 -4 -5 12 0
17 2 24 5 18 2 -7 2 -21 0 -30z m-205 -5 c-15 -15 -26 -4 -18 18 5 13 9 15 18
6 9 -9 9 -15 0 -24z m348 11 c-16 -28 -39 -35 -58 -15 -15 15 -15 16 3 17 11
1 25 1 32 0 6 -1 14 3 18 9 12 19 16 10 5 -11z m57 -1 c-3 -8 -6 -5 -6 6 -1
11 2 17 5 13 3 -3 4 -12 1 -19z m163 8 c0 -8 -7 -16 -15 -20 -17 -6 -18 -4 -9
18 8 20 24 21 24 2z m-1164 -36 c30 -12 34 -44 4 -36 -11 3 -28 8 -37 11 -25
6 -40 -6 -44 -35 -3 -20 -11 -26 -36 -28 -37 -4 -44 12 -13 28 26 14 26 30 0
37 l-21 6 21 14 c16 11 24 12 35 3 11 -9 17 -6 31 15 15 23 19 24 26 10 5 -9
21 -20 34 -25z m-236 11 c0 -12 -9 -20 -25 -23 -33 -7 -39 1 -18 24 21 23 43
23 43 -1z m594 -45 c-21 -34 -30 -33 -29 4 0 36 38 71 43 40 2 -10 -4 -30 -14
-44z m286 54 c0 -5 -4 -10 -10 -10 -5 0 -10 5 -10 10 0 6 5 10 10 10 6 0 10
-4 10 -10z m-520 -25 c0 -8 -4 -15 -9 -15 -13 0 -22 16 -14 24 11 11 23 6 23
-9z m1000 -49 c0 -5 -7 -3 -15 4 -8 7 -15 22 -15 34 1 20 2 20 15 -4 8 -14 14
-29 15 -34z m226 41 c4 -4 -6 -7 -22 -7 -16 0 -54 -3 -84 -6 -58 -7 -64 3 -8
16 39 8 105 7 114 -3z m128 -3 c12 -31 6 -82 -10 -88 -29 -11 -103 -6 -111 8
-4 7 -15 15 -23 18 -11 4 -7 9 13 17 15 6 27 15 27 20 0 5 8 7 18 4 10 -2 29
5 43 16 29 25 35 25 43 5z m-1244 -4 c0 -5 -5 -10 -11 -10 -5 0 -7 5 -4 10 3
6 8 10 11 10 2 0 4 -4 4 -10z m-585 -10 c3 -5 2 -10 -4 -10 -5 0 -13 5 -16 10
-3 6 -2 10 4 10 5 0 13 -4 16 -10z m192 4 c-3 -3 -12 -4 -19 -1 -8 3 -5 6 6 6
11 1 17 -2 13 -5z m723 -8 c0 -17 -14 -29 -23 -20 -8 8 3 34 14 34 5 0 9 -6 9
-14z m-783 -21 c-4 -8 -11 -15 -17 -15 -7 0 -7 6 0 21 13 23 26 19 17 -6z
m289 -22 c-10 -10 -19 5 -10 18 6 11 8 11 12 0 2 -7 1 -15 -2 -18z m-376 -37
c0 -6 -7 -2 -15 8 -8 11 -15 25 -15 30 0 6 7 2 15 -8 8 -11 15 -25 15 -30z
m874 8 c4 -15 4 -29 1 -32 -8 -8 -25 19 -25 41 0 26 17 20 24 -9z m366 -23 c0
-32 11 -51 29 -51 23 0 31 -9 24 -26 -10 -26 -32 -15 -53 26 -22 43 -26 70
-10 70 6 0 10 -9 10 -19z m-850 -5 c0 -17 -14 -29 -23 -20 -8 8 3 34 14 34 5
0 9 -6 9 -14z m130 -17 c10 -17 7 -19 -20 -19 -31 0 -39 17 -18 38 13 13 24 8
38 -19z m1937 9 c-3 -8 -6 -5 -6 6 -1 11 2 17 5 13 3 -3 4 -12 1 -19z m-2278
-2 c9 -11 7 -15 -11 -19 -28 -8 -49 10 -28 23 20 13 26 12 39 -4z m121 4 c-20
-13 -93 -13 -85 0 3 6 27 10 53 10 34 0 43 -3 32 -10z m160 0 c0 -13 -11 -13
-30 0 -12 8 -11 10 8 10 12 0 22 -4 22 -10z m1187 -20 c21 -11 44 -20 51 -20
17 0 94 -41 105 -55 18 -25 18 -57 -2 -98 -27 -55 -26 -64 4 -109 14 -20 25
-42 25 -48 0 -8 -83 -9 -287 -5 -158 4 -290 8 -292 11 -3 2 5 17 17 33 11 15
28 45 36 65 9 21 29 50 44 64 16 15 36 41 45 57 14 29 122 95 187 115 14 5 26
9 28 9 1 1 19 -8 39 -19z m-1362 -27 c11 -15 84 -23 110 -12 6 2 12 0 15 -6 5
-11 -85 -23 -211 -29 -41 -2 -85 -8 -96 -15 -31 -16 -43 -14 -43 8 0 30 26 46
54 33 25 -11 109 7 130 28 14 14 27 12 41 -7z m655 1 c0 -8 -4 -12 -10 -9 -5
3 -10 10 -10 16 0 5 5 9 10 9 6 0 10 -7 10 -16z m-439 -42 c-34 -5 -78 7 -62
17 7 5 30 3 50 -3 31 -9 33 -11 12 -14z m109 -19 c0 -27 -3 -34 -11 -26 -7 7
-9 23 -5 37 9 37 16 32 16 -11z m-159 -23 c5 0 9 -4 9 -10 0 -6 -41 -10 -102
-10 -64 0 -98 4 -92 9 9 10 135 20 162 14 8 -2 18 -3 23 -3z m55 -27 c-11 -11
-19 6 -11 24 8 17 8 17 12 0 3 -10 2 -21 -1 -24z m644 27 c0 -5 -5 -10 -11
-10 -5 0 -7 5 -4 10 3 6 8 10 11 10 2 0 4 -4 4 -10z m-280 -10 c0 -5 -4 -10
-10 -10 -5 0 -10 5 -10 10 0 6 5 10 10 10 6 0 10 -4 10 -10z m-620 -9 c0 -6
-21 -13 -47 -16 -27 -3 -70 -11 -96 -17 -26 -6 -51 -7 -54 -4 -4 3 1 6 11 6 9
0 19 7 22 15 4 9 14 14 23 11 9 -2 36 -1 61 4 65 11 80 11 80 1z m690 -21 c0
-5 -9 -10 -21 -10 -11 0 -17 5 -14 10 3 6 13 10 21 10 8 0 14 -4 14 -10z m142
-12 c-7 -7 -12 -8 -12 -2 0 14 12 26 19 19 2 -3 -1 -11 -7 -17z m-222 2 c0 -5
-4 -10 -10 -10 -5 0 -10 5 -10 10 0 6 5 10 10 10 6 0 10 -4 10 -10z m-475 -10
c3 -5 1 -10 -4 -10 -6 0 -11 5 -11 10 0 6 2 10 4 10 3 0 8 -4 11 -10z m417
-12 c-7 -7 -12 -8 -12 -2 0 14 12 26 19 19 2 -3 -1 -11 -7 -17z m-357 2 c-3
-5 -10 -10 -16 -10 -5 0 -9 5 -9 10 0 6 7 10 16 10 8 0 12 -4 9 -10z m104 -31
c-13 -26 -20 -21 -12 9 3 12 9 19 14 16 5 -3 4 -14 -2 -25z m-356 -27 c40 -39
46 -52 21 -52 -9 0 -18 9 -21 20 -3 11 -9 20 -13 20 -5 0 -12 -9 -15 -20 -7
-22 -25 -27 -25 -7 0 7 -7 4 -15 -7 -15 -20 -15 -20 -29 0 -24 32 -25 54 -4
73 26 25 54 17 101 -27z m152 18 c3 -5 -3 -10 -14 -10 -12 0 -21 5 -21 10 0 6
6 10 14 10 8 0 18 -4 21 -10z m35 6 c0 -3 -4 -8 -10 -11 -5 -3 -10 -1 -10 4 0
6 5 11 10 11 6 0 10 -2 10 -4z m362 -58 c-15 -15 -26 -4 -18 18 5 13 9 15 18
6 9 -9 9 -15 0 -24z m228 22 c0 -5 -2 -10 -4 -10 -3 0 -8 5 -11 10 -3 6 -1 10
4 10 6 0 11 -4 11 -10z m-654 -48 c-12 -11 -18 7 -10 30 l8 23 4 -23 c2 -13 1
-26 -2 -30z m54 33 c0 -8 -4 -15 -10 -15 -5 0 -10 7 -10 15 0 8 5 15 10 15 6
0 10 -7 10 -15z m580 -45 c0 -5 -5 -10 -11 -10 -5 0 -7 5 -4 10 3 6 8 10 11
10 2 0 4 -4 4 -10z m1457 -42 c-3 -8 -6 -5 -6 6 -1 11 2 17 5 13 3 -3 4 -12 1
-19z m63 -122 c0 -11 -19 -15 -25 -6 -3 5 1 10 9 10 9 0 16 -2 16 -4z m-2990
-19 c30 -10 37 -19 52 -67 24 -77 22 -102 -12 -170 -16 -32 -40 -90 -52 -127
-11 -37 -32 -80 -46 -95 -22 -24 -24 -33 -19 -80 3 -29 17 -90 30 -136 23 -78
24 -86 10 -133 -15 -50 -27 -58 -64 -39 -28 15 -48 61 -69 156 -20 95 -22 99
-45 91 -20 -8 -19 -42 5 -112 11 -32 20 -66 20 -75 0 -9 11 -38 25 -64 13 -25
21 -46 17 -46 -17 0 -73 87 -87 134 -8 27 -24 60 -36 72 -19 20 -20 29 -14 89
5 48 12 68 24 73 76 28 191 135 191 176 0 42 -16 38 -65 -16 -26 -29 -50 -52
-54 -50 -3 1 -7 42 -8 91 -1 66 -9 109 -27 163 -14 41 -26 88 -26 105 0 29 3
31 48 38 26 3 58 13 72 20 30 17 83 18 130 2z m878 -21 c10 -20 18 -26 30 -21
10 4 44 11 77 15 33 5 69 10 80 12 15 2 21 -3 23 -22 3 -25 0 -26 -100 -43
-57 -9 -113 -19 -125 -23 -19 -5 -23 -2 -23 17 l0 24 -20 -25 c-11 -14 -20
-33 -20 -43 0 -21 -23 -32 -47 -22 -16 6 -16 8 3 23 12 9 24 25 27 35 4 9 13
17 20 17 8 0 22 9 32 20 18 19 17 20 -6 20 -13 0 -52 -10 -86 -22 -58 -20 -62
-23 -48 -38 11 -13 13 -23 6 -41 -9 -25 -10 -25 -26 26 -2 9 -16 15 -32 15
l-27 0 24 17 c14 9 27 18 29 20 2 1 -4 13 -15 25 -19 21 -19 21 1 13 11 -5 43
-10 70 -12 42 -4 56 0 85 21 40 31 50 29 68 -8z m572 -8 c0 -18 -2 -20 -9 -8
-6 8 -7 18 -5 22 9 14 14 9 14 -14z m-1850 -3 c0 -8 -2 -15 -4 -15 -2 0 -6 7
-10 15 -3 8 -1 15 4 15 6 0 10 -7 10 -15z m1615 -6 c10 -15 4 -18 -48 -25 -39
-6 -47 -4 -47 9 0 10 11 17 33 20 17 2 37 5 44 5 6 1 15 -3 18 -9z m175 1 c20
-12 17 -150 -4 -191 -12 -25 -13 -29 0 -29 18 0 18 -28 -1 -73 -11 -27 -14
-76 -12 -218 l2 -184 -73 -8 c-53 -7 -77 -6 -87 3 -21 18 -19 29 10 42 24 11
36 48 15 48 -5 0 -10 16 -10 35 0 26 -4 35 -17 36 -31 2 -57 -3 -78 -14 -11
-6 -30 -10 -42 -8 -30 3 -128 -25 -141 -42 -6 -7 -7 -18 -3 -26 7 -10 20 -9
69 9 44 16 71 20 97 16 30 -6 34 -10 25 -22 -7 -7 -29 -18 -49 -24 -42 -11
-79 -46 -86 -80 -2 -12 -6 -24 -7 -25 -8 -7 -154 -65 -164 -65 -27 0 -32 95
-9 161 18 49 14 69 -12 69 -11 0 2 13 31 31 34 22 45 34 38 41 -8 8 -31 0 -81
-26 -43 -22 -72 -32 -76 -26 -10 16 50 69 84 76 34 7 66 37 56 53 -10 17 -31
13 -62 -11 -15 -13 -50 -34 -77 -47 -26 -14 -50 -31 -53 -38 -14 -36 -73 4
-73 50 0 32 50 87 79 87 22 0 63 38 56 51 -4 5 -15 9 -25 9 -10 0 -21 4 -24 9
-8 13 13 27 62 42 24 7 48 21 53 31 17 31 -17 33 -72 4 -63 -32 -74 -33 -54
-3 17 26 12 37 -17 37 -23 0 -23 12 1 27 15 10 22 9 31 -2 7 -8 23 -15 37 -15
28 0 73 41 73 67 0 35 111 63 248 63 78 0 90 -14 20 -23 -23 -3 -48 -13 -55
-23 -9 -13 -16 -14 -26 -6 -10 9 -29 9 -73 1 -32 -6 -69 -13 -81 -15 -26 -5
-31 -29 -7 -38 9 -3 32 -6 52 -6 37 0 37 0 12 -14 -14 -7 -29 -9 -34 -4 -15
12 -36 10 -36 -5 0 -8 11 -24 25 -37 23 -21 26 -22 42 -8 42 36 321 68 311 36
-3 -8 -36 -16 -87 -21 -45 -4 -98 -14 -118 -22 -19 -8 -43 -15 -52 -15 -26 0
-61 -29 -55 -45 4 -8 13 -15 21 -15 8 0 17 -9 20 -20 6 -23 17 -24 62 -9 31
11 81 6 81 -9 0 -4 -14 -13 -31 -19 -27 -11 -30 -15 -19 -28 8 -10 30 -15 60
-15 27 0 56 -3 65 -6 23 -9 -40 -31 -124 -43 -62 -10 -101 -31 -101 -58 0 -17
23 -17 68 3 32 14 147 32 234 37 14 1 30 5 34 9 12 13 -17 37 -52 44 -19 3
-34 10 -34 15 0 16 27 21 63 11 48 -13 65 3 35 35 -21 23 -21 23 -2 37 18 14
18 15 1 34 -18 20 -18 21 2 41 17 17 19 25 10 48 -12 31 -3 149 12 158 5 4 9
15 9 25 0 14 -10 21 -35 26 -40 7 -46 21 -12 27 42 8 122 7 137 -3z m454 -6
c4 -10 1 -14 -6 -12 -15 5 -23 28 -10 28 5 0 13 -7 16 -16z m66 6 c0 -5 17
-12 38 -15 20 -3 45 -10 55 -16 9 -5 81 -11 160 -14 141 -4 261 -20 285 -38 6
-5 12 -25 12 -43 0 -19 4 -42 9 -52 14 -26 83 -243 79 -248 -3 -2 -14 3 -26
12 -16 11 -20 21 -16 43 4 16 2 37 -4 47 -9 16 -13 14 -32 -19 -14 -23 -28
-36 -36 -33 -7 3 -19 -3 -27 -14 -9 -13 -17 -16 -27 -9 -24 14 -29 11 -40 -28
-11 -35 -15 -38 -47 -38 -26 0 -41 8 -59 28 -13 16 -24 35 -24 43 0 24 -63
153 -77 158 -20 8 -46 -62 -44 -119 1 -27 -4 -63 -10 -78 -10 -24 -9 -32 10
-57 11 -16 21 -33 21 -38 0 -5 9 -21 20 -34 19 -25 19 -25 -1 -44 -17 -15 -19
-27 -15 -77 3 -32 1 -69 -4 -82 -5 -13 -12 -59 -15 -102 -13 -174 -19 -189
-54 -133 -11 19 -20 59 -24 107 -4 55 -10 79 -21 85 -12 7 -16 25 -16 74 0 60
-2 65 -25 74 -29 11 -29 13 -13 43 6 12 11 34 10 49 -1 15 2 29 8 33 5 3 10
33 10 66 0 44 7 73 26 110 24 49 25 53 10 84 -9 18 -16 47 -16 63 0 17 -10 43
-24 59 -13 15 -31 44 -41 63 -10 18 -24 40 -31 48 -15 14 -18 35 -7 45 9 10
23 8 23 -3z m-2200 -41 c0 -6 -4 -7 -10 -4 -5 3 -10 11 -10 16 0 6 5 7 10 4 6
-3 10 -11 10 -16z m2092 -4 c6 -14 14 -25 18 -25 4 0 24 -26 45 -57 26 -39 38
-69 40 -97 1 -23 7 -54 13 -69 16 -39 15 -49 -12 -157 -13 -52 -34 -145 -45
-205 l-21 -111 25 -119 c53 -252 79 -434 71 -508 -3 -34 -9 -113 -12 -174 -8
-129 -16 -138 -73 -79 -40 41 -47 70 -61 256 -6 80 -16 204 -22 275 -25 299
-39 503 -38 555 1 36 -6 56 -29 90 -17 25 -31 49 -31 53 0 4 10 21 21 37 26
35 21 77 -17 131 -24 34 -24 40 -18 132 l7 97 64 0 c58 0 64 -2 75 -25z m-598
-31 c23 -9 20 -19 -9 -32 -21 -10 -26 -9 -35 8 -5 10 -10 21 -10 24 0 8 34 8
54 0z m1423 -59 c33 -9 143 -93 143 -108 0 -9 -10 -12 -32 -10 -130 14 -165
14 -181 -1 -8 -9 -17 -16 -19 -16 -2 0 -1 25 0 55 3 48 1 57 -24 82 -15 15
-23 28 -18 30 5 2 20 9 34 17 23 12 27 11 50 -14 14 -16 35 -31 47 -35z
m-2057 5 c0 -11 -4 -20 -10 -20 -5 0 -10 9 -10 20 0 11 5 20 10 20 6 0 10 -9
10 -20z m881 -17 c-9 -16 -10 -14 -11 12 0 21 3 26 11 18 8 -8 8 -16 0 -30z
m-782 -14 c-7 -4 -17 -5 -22 -2 -5 3 -3 9 4 14 7 4 17 5 22 2 5 -3 3 -9 -4
-14z m562 4 c6 -6 -12 -10 -51 -9 -58 1 -68 5 -52 20 9 10 91 1 103 -11z
m-146 -2 c3 -6 -16 -12 -42 -16 -27 -3 -63 -8 -82 -11 -24 -4 -32 -2 -29 8 4
11 50 21 125 26 12 1 24 -2 28 -7z m-310 -10 c-6 -5 -23 -13 -40 -17 -27 -7
-29 -6 -16 9 7 10 25 17 39 17 16 0 22 -4 17 -9z m-175 -31 c0 -5 -4 -10 -10
-10 -5 0 -10 5 -10 10 0 6 5 10 10 10 6 0 10 -4 10 -10z m1345 -20 c3 -5 1
-10 -4 -10 -6 0 -11 5 -11 10 0 6 2 10 4 10 3 0 8 -4 11 -10z m-750 -79 c-6
-5 -28 -14 -49 -20 -30 -8 -43 -7 -57 3 -28 19 -13 26 55 26 36 0 56 -4 51 -9z
m375 -11 c0 -37 -71 -55 -88 -22 -16 30 -3 42 44 42 37 0 44 -3 44 -20z m49
-4 c16 -30 6 -53 -15 -35 -15 12 -20 59 -6 59 5 0 14 -11 21 -24z m1132 -6
c11 0 30 7 43 16 24 15 24 14 36 -23 6 -21 23 -61 36 -89 14 -29 28 -78 31
-110 3 -35 13 -67 23 -79 17 -19 30 -71 34 -125 1 -24 -1 -25 -59 -26 -40 0
-71 -7 -92 -19 -47 -28 -59 -17 -66 62 -3 37 -12 82 -19 100 -11 30 -10 33 15
53 30 24 34 42 12 60 -13 11 -12 15 4 39 25 35 15 115 -17 137 -12 8 -22 21
-22 27 0 7 5 4 11 -5 5 -10 19 -18 30 -18z m-2111 16 c0 -3 -4 -8 -10 -11 -5
-3 -10 -1 -10 4 0 6 5 11 10 11 6 0 10 -2 10 -4z m397 -13 c-9 -9 -20 -13 -24
-9 -4 4 -1 11 7 16 25 16 35 11 17 -7z m1526 -3 c3 -11 1 -20 -4 -20 -5 0 -9
9 -9 20 0 11 2 20 4 20 2 0 6 -9 9 -20z m-1136 -52 c-3 -8 -6 -5 -6 6 -1 11 2
17 5 13 3 -3 4 -12 1 -19z m-297 2 c0 -5 -5 -10 -11 -10 -5 0 -7 5 -4 10 3 6
8 10 11 10 2 0 4 -4 4 -10z m1565 0 c3 -5 1 -10 -4 -10 -6 0 -11 5 -11 10 0 6
2 10 4 10 3 0 8 -4 11 -10z m-2473 -146 c17 -67 3 -121 -55 -209 -29 -45 -64
-86 -80 -93 -29 -14 -34 -32 -15 -61 9 -15 7 -23 -8 -44 -25 -34 -30 -34 -54
6 -44 72 -9 192 89 300 53 58 70 117 45 152 -18 24 -18 24 7 64 l21 35 20 -55
c11 -30 25 -72 30 -95z m383 116 c-10 -11 -20 -18 -23 -15 -7 6 18 35 31 35 5
0 2 -9 -8 -20z m1780 -59 c-4 -17 -11 -31 -16 -31 -11 0 -11 0 2 39 14 39 23
34 14 -8z m-230 1 c5 -12 13 -22 17 -22 5 0 8 -11 8 -25 0 -32 -15 -32 -45 1
-27 29 -28 34 -19 59 8 21 26 15 39 -13z m-700 -11 c-3 -6 -11 -11 -17 -11 -6
0 -6 6 2 15 14 17 26 13 15 -4z m72 5 c-8 -21 2 -26 29 -16 19 8 29 5 45 -11
17 -17 20 -29 15 -62 -3 -23 -9 -282 -12 -574 l-7 -533 -86 0 c-83 0 -85 1
-65 18 16 13 25 41 37 112 27 155 27 164 37 445 21 601 21 554 -1 576 -20 20
-18 59 3 59 5 0 8 -6 5 -14z m1173 -31 c0 -8 -2 -15 -4 -15 -2 0 -6 7 -10 15
-3 8 -1 15 4 15 6 0 10 -7 10 -15z m-463 -57 c-3 -7 -5 -2 -5 12 0 14 2 19 5
13 2 -7 2 -19 0 -25z m188 15 c-12 -30 -39 -119 -90 -295 -18 -65 -38 -81 -22
-18 15 56 -2 73 -32 31 -13 -17 -29 -31 -37 -31 -20 0 -18 13 5 32 11 9 25 36
31 60 27 108 34 123 59 126 13 2 26 12 28 23 3 10 9 19 14 19 5 0 9 9 9 19 0
31 11 51 27 51 10 0 13 -5 8 -17z m-123 -15 c-7 -7 -12 -8 -12 -2 0 14 12 26
19 19 2 -3 -1 -11 -7 -17z m-850 -40 c-9 -9 -15 -9 -24 0 -10 10 -10 15 2 22
20 12 38 -6 22 -22z m-742 2 c0 -5 -7 -10 -15 -10 -8 0 -15 5 -15 10 0 6 7 10
15 10 8 0 15 -4 15 -10z m510 -20 c0 -5 -4 -10 -10 -10 -5 0 -10 5 -10 10 0 6
5 10 10 10 6 0 10 -4 10 -10z m1250 -24 c5 -13 14 -27 19 -31 6 -3 11 -29 11
-56 0 -35 4 -51 15 -55 17 -7 10 -24 -10 -24 -7 0 -20 7 -29 15 -9 9 -17 11
-21 5 -3 -6 -17 -7 -29 -4 -16 4 -25 0 -29 -10 -7 -19 -27 -22 -27 -4 0 6 7
19 16 29 8 9 18 43 21 75 3 33 10 65 16 72 15 19 37 14 47 -12z m-245 -29 c-6
-24 -8 -24 -26 -9 -17 15 -17 17 -2 34 21 23 36 9 28 -25z m1004 -35 c94 -93
111 -123 111 -198 0 -97 -76 -226 -115 -194 -33 28 -6 136 37 142 35 5 33 32
-4 49 -18 7 -43 29 -56 48 -36 55 -76 221 -53 221 7 0 42 -30 80 -68z m-1559
24 c0 -3 -4 -8 -10 -11 -5 -3 -10 -1 -10 4 0 6 5 11 10 11 6 0 10 -2 10 -4z
m600 0 c0 -3 -4 -8 -10 -11 -5 -3 -10 -1 -10 4 0 6 5 11 10 11 6 0 10 -2 10
-4z m-2552 -41 c21 -46 12 -71 -16 -43 -14 14 -16 68 -4 68 5 0 14 -11 20 -25z
m2222 3 c0 -7 -5 -20 -10 -28 -8 -12 -10 -9 -10 13 0 15 5 27 10 27 6 0 10 -6
10 -12z m255 -48 c3 -5 2 -10 -4 -10 -5 0 -13 5 -16 10 -3 6 -2 10 4 10 5 0
13 -4 16 -10z m50 -1 c10 -15 -1 -23 -20 -15 -9 3 -13 10 -10 16 8 13 22 13
30 -1z m-875 -65 c16 -40 13 -287 -4 -326 -7 -18 -18 -46 -24 -63 -15 -45 -58
-145 -65 -151 -3 -3 -1 12 4 33 12 53 11 100 -2 109 -18 11 -29 -17 -29 -76 0
-30 -5 -73 -12 -95 l-11 -40 -9 30 c-4 17 -5 53 -2 81 4 35 2 54 -6 59 -21 13
-28 -8 -39 -117 -7 -59 -19 -131 -28 -160 -14 -48 -16 -51 -26 -30 -5 12 -14
22 -19 22 -16 0 -40 -73 -59 -185 -11 -60 -27 -152 -36 -204 -15 -83 -15 -96
-2 -120 18 -33 39 -37 68 -14 31 25 53 177 36 245 -8 31 8 39 97 43 50 3 60 0
69 -17 9 -17 18 -19 49 -15 59 8 69 -5 36 -47 l-27 -36 -19 22 c-17 20 -19 21
-20 5 0 -10 -18 -36 -41 -58 -33 -32 -40 -45 -37 -72 2 -21 9 -33 21 -35 32
-6 64 7 70 29 5 18 11 20 34 15 15 -4 31 -11 35 -15 15 -14 10 -165 -6 -203
-9 -21 -16 -47 -16 -58 0 -11 -4 -20 -10 -20 -6 0 -10 42 -10 105 0 103 0 105
-23 105 -13 0 -31 -8 -40 -18 -17 -19 -37 -120 -37 -191 0 -30 -6 -52 -19 -65
-10 -12 -26 -46 -36 -76 -30 -94 -63 -160 -79 -160 -8 0 -31 -13 -49 -30 -19
-16 -39 -30 -45 -30 -6 0 -13 14 -17 30 -10 43 -29 38 -22 -6 5 -31 4 -35 -11
-29 -9 3 -50 10 -91 15 -84 11 -133 35 -143 71 -19 69 -29 205 -27 384 2 205
4 239 19 230 14 -9 18 34 4 46 -25 21 -17 98 20 185 42 99 74 164 91 184 8 8
15 38 17 65 3 44 1 50 -17 53 -20 3 -20 8 -17 167 4 164 4 164 -21 194 -14 17
-28 44 -32 60 -5 25 -1 35 27 60 37 34 45 36 72 16 22 -16 46 -4 46 22 0 9 6
13 15 9 8 -3 15 -1 15 4 0 24 66 50 125 50 37 0 69 6 81 15 13 8 52 15 100 18
43 1 89 4 102 5 16 1 25 -5 32 -24z m1606 -52 c-13 -12 -18 9 -10 45 l8 38 4
-39 c2 -21 1 -41 -2 -44z m-80 33 c2 -39 4 -44 27 -51 12 -3 47 -23 78 -44 30
-21 69 -41 86 -44 22 -5 35 -16 43 -36 7 -16 21 -39 31 -51 69 -80 -71 -109
-161 -34 -31 26 -53 35 -96 41 -45 5 -62 13 -89 41 -31 32 -33 38 -32 103 l1
69 35 15 c47 20 76 16 77 -9z m-3156 -65 c0 -16 -14 -11 -37 14 -23 23 -29 47
-17 59 7 7 54 -58 54 -73z m2200 60 c0 -5 -5 -10 -11 -10 -5 0 -7 5 -4 10 3 6
8 10 11 10 2 0 4 -4 4 -10z m560 0 c0 -5 -4 -10 -10 -10 -5 0 -10 5 -10 10 0
6 5 10 10 10 6 0 10 -4 10 -10z m-2725 -10 c3 -5 1 -10 -4 -10 -6 0 -11 5 -11
10 0 6 2 10 4 10 3 0 8 -4 11 -10z m3396 -23 c-8 -8 -11 -7 -11 4 0 20 13 34
18 19 3 -7 -1 -17 -7 -23z m-931 -29 c0 -5 -4 -8 -10 -8 -5 0 -10 10 -10 23 0
18 2 19 10 7 5 -8 10 -18 10 -22z m-280 -7 c0 -5 -7 -14 -15 -21 -12 -10 -15
-10 -15 2 0 8 3 18 7 21 9 10 23 9 23 -2z m346 -11 c5 -5 32 -13 58 -16 40 -6
50 -4 58 10 16 28 28 8 12 -22 -7 -15 -14 -32 -14 -39 0 -6 -26 -33 -57 -61
-42 -36 -68 -51 -96 -54 -35 -4 -38 -2 -31 16 4 12 9 48 11 81 6 73 32 112 59
85z m-633 -71 c-3 -10 -9 -19 -14 -19 -11 0 -12 44 -2 53 10 11 21 -13 16 -34z
m309 11 c10 0 18 -7 18 -16 0 -13 -6 -15 -27 -9 -35 8 -47 20 -38 35 5 8 10 9
18 1 6 -6 19 -11 29 -11z m218 10 c0 -5 -4 -10 -10 -10 -5 0 -10 5 -10 10 0 6
5 10 10 10 6 0 10 -4 10 -10z m-54 -47 c-7 -7 -26 7 -26 19 0 6 6 6 15 -2 9
-7 13 -15 11 -17z m1224 -7 c0 -45 -104 -156 -146 -156 -24 0 -15 20 15 38 16
9 46 44 67 79 41 65 64 80 64 39z m-1685 -115 c-6 -22 -8 -23 -22 -8 -12 12
-14 26 -8 64 l7 48 15 -40 c7 -22 11 -51 8 -64z m771 68 c3 -6 -1 -18 -10 -27
-15 -15 -16 -14 -16 11 0 27 13 36 26 16z m-241 -9 c3 -5 1 -10 -4 -10 -6 0
-11 5 -11 10 0 6 2 10 4 10 3 0 8 -4 11 -10z m-755 -41 c0 -11 -4 -18 -10 -14
-5 3 -7 12 -3 20 7 21 13 19 13 -6z m986 -36 c-10 -10 -19 5 -10 18 6 11 8 11
12 0 2 -7 1 -15 -2 -18z m-36 -3 c0 -12 -28 -25 -36 -17 -9 9 6 27 22 27 8 0
14 -5 14 -10z m-734 -47 c-10 -10 -19 5 -10 18 6 11 8 11 12 0 2 -7 1 -15 -2
-18z m334 -13 c0 -5 -4 -10 -10 -10 -5 0 -10 5 -10 10 0 6 5 10 10 10 6 0 10
-4 10 -10z m-326 -9 c3 -5 -1 -12 -10 -15 -20 -8 -29 -1 -19 13 8 13 22 14 29
2z m644 -41 c3 -21 2 -22 -12 -11 -19 16 -21 44 -3 39 6 -3 14 -15 15 -28z
m-110 -24 c3 -13 -1 -17 -14 -14 -11 2 -20 11 -22 22 -3 13 1 17 14 14 11 -2
20 -11 22 -22z m-509 -79 c6 -43 11 -125 11 -182 l0 -103 -30 -4 -30 -5 0 174
c0 119 4 179 12 193 18 28 25 14 37 -73z m291 13 c0 -5 -4 -10 -10 -10 -5 0
-10 5 -10 10 0 6 5 10 10 10 6 0 10 -4 10 -10z m112 -22 c-9 -9 -15 -9 -24 0
-9 9 -7 12 12 12 19 0 21 -3 12 -12z m-787 -65 c-2 -16 -6 -56 -9 -91 -10
-108 -12 -112 -63 -112 -45 0 -78 -22 -110 -75 -11 -18 -12 -17 -12 14 -1 47
36 120 65 131 13 5 32 23 43 41 10 17 28 37 39 45 11 8 23 28 27 44 8 38 26
40 20 3z m1000 -12 c-7 -32 -25 -43 -25 -16 0 17 22 56 28 50 2 -2 1 -17 -3
-34z m-115 19 c0 -5 -4 -10 -10 -10 -5 0 -10 5 -10 10 0 6 5 10 10 10 6 0 10
-4 10 -10z m60 -4 c0 -3 -4 -8 -10 -11 -5 -3 -10 -1 -10 4 0 6 5 11 10 11 6 0
10 -2 10 -4z m-1060 -66 c0 -10 -4 -22 -10 -25 -6 -4 -10 7 -10 25 0 18 4 29
10 25 6 -3 10 -15 10 -25z m184 13 c3 -10 8 -55 12 -100 6 -73 5 -83 -11 -89
-27 -11 -50 10 -49 42 1 44 28 164 36 164 3 0 9 -8 12 -17z m506 -238 c0 -16
-6 -25 -15 -25 -15 0 -21 31 -8 43 13 14 23 6 23 -18z m-192 -42 c-41 -44 -68
-25 -37 26 19 32 21 33 40 15 19 -17 19 -18 -3 -41z m112 42 c0 -8 -4 -15 -10
-15 -5 0 -10 7 -10 15 0 8 5 15 10 15 6 0 10 -7 10 -15z m-275 -15 c10 -16
-16 -43 -28 -31 -11 11 -2 41 12 41 5 0 13 -5 16 -10z m-85 -30 c0 -5 -9 -10
-19 -10 -11 0 -23 5 -26 10 -4 6 5 10 19 10 14 0 26 -4 26 -10z m-10 -50 c0
-5 -2 -10 -4 -10 -3 0 -8 5 -11 10 -3 6 -1 10 4 10 6 0 11 -4 11 -10z m120
-10 c0 -5 6 -7 13 -4 20 7 56 -35 80 -92 20 -48 21 -68 23 -734 1 -377 0 -688
-2 -692 -2 -3 -5 -296 -7 -650 -1 -354 -6 -649 -11 -657 -12 -19 -26 5 -26 46
0 17 -8 39 -17 49 -17 17 -18 12 -25 -102 -9 -148 -20 -216 -34 -221 -7 -2
-13 34 -18 109 -5 85 -10 116 -22 125 -13 10 -15 36 -9 200 4 107 2 208 -3
235 -6 32 -6 48 1 51 6 2 7 9 3 16 -6 9 -11 8 -22 -6 -12 -16 -13 -15 -14 19
0 20 -5 48 -11 62 -8 17 -9 37 -2 63 10 44 2 184 -10 166 -5 -7 -14 -13 -21
-13 -19 0 -7 62 16 81 16 13 21 32 25 105 4 49 5 105 4 124 -2 19 -2 204 -1
410 l1 376 -30 41 c-22 30 -26 43 -17 46 24 9 28 75 30 445 l2 363 29 25 c28
24 75 33 75 14z m253 1 c17 -6 17 -8 -2 -25 -11 -10 -17 -24 -14 -32 3 -8 -1
-14 -11 -14 -12 0 -16 10 -16 40 0 41 7 46 43 31z m281 -22 c-3 -5 -10 -7 -15
-3 -5 3 -7 10 -3 15 3 5 10 7 15 3 5 -3 7 -10 3 -15z m-213 -301 c-1 -151 -6
-292 -11 -312 -4 -20 -6 -45 -3 -56 5 -20 -12 -50 -28 -50 -5 0 -9 132 -9 293
-1 237 -3 296 -15 311 -11 14 -12 24 -3 40 13 26 50 57 62 53 6 -2 8 -116 7
-279z m169 254 c0 -15 -2 -15 -10 -2 -13 20 -13 33 0 25 6 -3 10 -14 10 -23z
m-303 -195 c3 -176 19 -436 29 -461 6 -14 2 -17 -17 -14 l-24 3 -7 280 c-7
266 -4 364 10 350 4 -3 8 -75 9 -158z m-337 133 c0 -5 -5 -10 -11 -10 -5 0 -7
5 -4 10 3 6 8 10 11 10 2 0 4 -4 4 -10z m645 -10 c3 -6 3 -20 0 -31 l-7 -21
-24 23 c-13 12 -21 26 -18 30 7 12 41 11 49 -1z m-1428 -52 c-2 -13 -4 -5 -4
17 -1 22 1 32 4 23 2 -10 2 -28 0 -40z m413 22 c0 -5 -2 -10 -4 -10 -3 0 -8 5
-11 10 -3 6 -1 10 4 10 6 0 11 -4 11 -10z m1170 -10 c0 -5 -4 -10 -10 -10 -5
0 -10 5 -10 10 0 6 5 10 10 10 6 0 10 -4 10 -10z m-70 -69 c0 -5 -7 -14 -15
-21 -13 -10 -15 -9 -15 9 0 12 6 21 15 21 8 0 15 -4 15 -9z m245 -39 c6 -21 5
-23 -13 -13 -14 7 -18 17 -15 32 6 23 17 15 28 -19z m-435 -138 c0 -14 -4 -23
-10 -19 -5 3 -10 15 -10 26 0 10 5 19 10 19 6 0 10 -12 10 -26z m350 6 c0 -5
-2 -10 -4 -10 -3 0 -8 5 -11 10 -3 6 -1 10 4 10 6 0 11 -4 11 -10z m-915 -282
c-3 -150 -10 -307 -16 -348 -16 -126 -40 -290 -56 -390 -8 -52 -17 -123 -20
-157 -5 -64 -23 -88 -23 -32 0 29 -2 31 -27 24 l-28 -6 32 33 c39 41 41 62 48
428 4 204 10 289 21 329 13 44 54 332 54 379 0 6 5 12 11 12 7 0 9 -81 4 -272z
m745 222 c0 -16 -4 -30 -10 -30 -11 0 -14 43 -3 53 11 12 13 8 13 -23z m-153
-17 c-3 -10 -5 -4 -5 12 0 17 2 24 5 18 2 -7 2 -21 0 -30z m-1312 -136 c8 -97
-6 -120 -24 -39 -20 94 -22 109 -10 138 10 27 12 28 19 9 4 -12 11 -60 15
-108z m1515 94 c0 -11 -4 -23 -10 -26 -6 -4 -10 5 -10 19 0 14 5 26 10 26 6 0
10 -9 10 -19z m-199 -14 c-13 -13 -26 -3 -16 12 3 6 11 8 17 5 6 -4 6 -10 -1
-17z m146 -20 c-12 -83 -20 -255 -13 -280 4 -19 14 -26 41 -31 26 -5 36 -13
41 -32 3 -13 15 -29 25 -35 11 -5 19 -15 19 -22 0 -7 13 -31 30 -55 27 -40 29
-42 39 -23 6 11 11 45 11 75 0 31 5 56 10 56 6 0 10 -7 10 -15 0 -9 6 -26 14
-38 13 -19 12 -28 -1 -66 -11 -33 -12 -49 -3 -70 8 -22 6 -40 -11 -96 -19 -64
-22 -68 -35 -50 -8 10 -14 29 -14 42 0 47 -72 160 -111 175 -33 13 -66 -7 -73
-44 -9 -46 -57 -178 -65 -178 -9 0 -29 150 -35 261 -4 73 -2 92 15 123 12 24
19 57 20 98 0 35 7 101 15 148 l13 85 -4 -110 c-5 -98 3 -153 17 -129 3 5 9
56 12 114 8 117 12 140 28 140 7 0 9 -16 5 -43z m-887 -79 c0 -46 -4 -78 -10
-78 -5 0 -10 15 -11 33 0 17 -4 41 -8 52 -4 10 -3 37 2 58 14 57 27 27 27 -65z
m730 52 c0 -5 -5 -10 -11 -10 -5 0 -7 5 -4 10 3 6 8 10 11 10 2 0 4 -4 4 -10z
m41 -83 c-4 -61 -11 -59 -11 3 0 29 3 50 7 46 4 -4 6 -26 4 -49z m404 43 c3
-5 1 -10 -4 -10 -6 0 -11 5 -11 10 0 6 2 10 4 10 3 0 8 -4 11 -10z m-60 -53
c-8 -4 -15 -17 -15 -27 0 -11 -4 -20 -10 -20 -5 0 -10 5 -10 11 0 7 -8 17 -17
24 -14 11 -15 16 -5 28 10 12 18 13 42 4 23 -9 27 -13 15 -20z m-179 -47 c8 0
14 10 14 24 0 14 5 28 10 31 11 7 12 -42 1 -90 -5 -24 -8 -26 -13 -12 -9 21
-28 23 -28 2 0 -8 -4 -15 -10 -15 -12 0 -13 73 -2 110 6 23 7 21 10 -12 2 -25
8 -38 18 -38z m84 53 c0 -23 -17 -49 -26 -41 -9 10 4 58 16 58 6 0 10 -8 10
-17z m150 -13 c0 -5 -4 -10 -10 -10 -5 0 -10 5 -10 10 0 6 5 10 10 10 6 0 10
-4 10 -10z m-445 -40 c3 -5 -3 -10 -14 -10 -12 0 -21 5 -21 10 0 6 6 10 14 10
8 0 18 -4 21 -10z m-83 -97 c10 -54 11 -86 4 -104 -7 -19 -5 -37 8 -68 19 -50
15 -61 -25 -61 -47 0 -54 28 -42 169 6 65 14 124 17 130 15 24 25 7 38 -66z
m63 27 c0 -22 -29 -18 -33 3 -3 14 1 18 15 15 10 -2 18 -10 18 -18z m-776
-222 c8 -293 8 -819 -2 -842 -6 -14 -10 -16 -21 -7 -11 9 -18 8 -30 -4 -18
-18 -21 -51 -6 -60 18 -11 10 -34 -25 -73 -29 -33 -35 -48 -42 -108 l-7 -69
-7 55 c-4 30 -9 188 -10 350 -3 267 -1 308 19 430 13 74 32 192 43 262 19 123
65 296 76 285 3 -3 8 -102 12 -219z m585 206 c8 -21 7 -69 -1 -119 l-7 -40 -7
30 c-17 77 -5 182 15 129z m498 -26 c-13 -13 -24 5 -16 27 7 16 8 16 17 0 6
-11 6 -20 -1 -27z m98 -22 c-1 -21 -1 -21 -15 -2 -8 11 -15 29 -15 40 1 21 1
21 15 2 8 -11 15 -29 15 -40z m-1570 -6 c0 -5 7 -7 15 -4 8 4 15 2 15 -4 0 -5
-7 -12 -15 -16 -8 -3 -15 -15 -15 -26 0 -12 -4 -18 -10 -15 -5 3 -10 22 -10
41 0 19 5 34 10 34 6 0 10 -4 10 -10z m80 -80 c0 -53 -4 -90 -10 -90 -5 0 -10
24 -10 53 0 53 10 127 16 127 2 0 4 -40 4 -90z m392 68 c-7 -7 -12 -8 -12 -2
0 6 3 14 7 17 3 4 9 5 12 2 2 -3 -1 -11 -7 -17z m-232 -63 c0 -19 0 -19 -14 0
-7 11 -16 31 -20 45 l-7 25 20 -25 c11 -14 21 -34 21 -45z m1405 45 c3 -5 -1
-10 -9 -10 -8 0 -18 5 -21 10 -3 6 1 10 9 10 8 0 18 -4 21 -10z m-1725 -65 c0
-18 -1 -18 -16 3 -8 12 -12 27 -8 33 8 14 24 -8 24 -36z m90 -5 c0 -5 -2 -10
-4 -10 -3 0 -8 5 -11 10 -3 6 -1 10 4 10 6 0 11 -4 11 -10z m965 -468 c-15
-16 -20 25 -19 166 0 87 5 180 10 207 7 39 10 3 12 -159 1 -115 0 -211 -3
-214z m-998 316 c-3 -7 -5 -2 -5 12 0 14 2 19 5 13 2 -7 2 -19 0 -25z m79 -36
c-12 -11 -16 6 -9 39 l8 34 3 -33 c2 -19 1 -36 -2 -40z m1092 19 c2 -7 -6 -26
-18 -43 -24 -33 -39 -116 -40 -218 0 -36 -4 -71 -9 -78 -4 -8 -10 64 -14 165
-3 97 -3 181 0 185 7 13 76 3 81 -11z m-984 -6 c-4 -8 -8 -15 -10 -15 -2 0 -4
7 -4 15 0 8 4 15 10 15 5 0 7 -7 4 -15z m-24 -60 c0 -19 -5 -37 -11 -40 -16
-11 -18 -3 -12 42 6 49 23 48 23 -2z m-110 -50 c0 -14 -4 -25 -10 -25 -5 0
-10 11 -10 25 0 14 5 25 10 25 6 0 10 -11 10 -25z m576 -231 c-6 -22 -34 -40
-44 -29 -4 3 1 45 11 93 9 48 20 105 24 127 6 32 9 18 11 -65 2 -58 0 -115 -2
-126z m783 204 c5 -13 7 -25 5 -27 -7 -7 -34 21 -34 35 0 22 20 16 29 -8z
m-79 -13 c0 -8 -7 -15 -15 -15 -26 0 -18 20 13 29 1 1 2 -6 2 -14z m-830 -46
c0 -5 -4 -9 -10 -9 -5 0 -10 7 -10 16 0 8 5 12 10 9 6 -3 10 -10 10 -16z
m-548 -31 c-7 -7 -12 -8 -12 -2 0 14 12 26 19 19 2 -3 -1 -11 -7 -17z m118
-34 c0 -8 -4 -14 -10 -14 -5 0 -10 9 -10 21 0 11 5 17 10 14 6 -3 10 -13 10
-21z m80 -24 c0 -5 -5 -10 -11 -10 -5 0 -7 5 -4 10 3 6 8 10 11 10 2 0 4 -4 4
-10z m850 -66 c6 -15 10 -253 10 -602 1 -476 3 -584 15 -617 14 -37 21 -88 8
-57 -3 7 -20 19 -39 27 -27 11 -34 20 -35 42 -3 144 8 1050 15 1211 1 30 14
28 26 -4z m-940 -55 c0 -11 -4 -17 -10 -14 -5 3 -10 15 -10 26 0 11 5 17 10
14 6 -3 10 -15 10 -26z m549 -17 c6 -12 4 -52 -9 -122 -9 -58 -21 -140 -25
-183 -5 -56 -12 -84 -25 -97 -13 -13 -15 -21 -7 -29 12 -12 -9 -121 -23 -121
-19 0 -15 105 7 170 14 43 25 116 33 215 14 171 26 210 49 167z m-429 -6 c0
-11 -19 -15 -25 -6 -3 5 1 10 9 10 9 0 16 -2 16 -4z m917 -48 c-2 -13 -4 -5
-4 17 -1 22 1 32 4 23 2 -10 2 -28 0 -40z m-417 34 c0 -13 -12 -22 -22 -16
-10 6 -1 24 13 24 5 0 9 -4 9 -8z m-750 -31 c0 -12 -29 -35 -36 -28 -11 10 5
37 21 37 8 0 15 -4 15 -9z m730 -51 c0 -5 -5 -10 -11 -10 -5 0 -7 5 -4 10 3 6
8 10 11 10 2 0 4 -4 4 -10z m-140 -30 c0 -5 -7 -10 -16 -10 -8 0 -12 5 -9 10
3 6 10 10 16 10 5 0 9 -4 9 -10z m-476 -35 c11 -8 17 -17 15 -20 -7 -6 -59 18
-59 28 0 12 23 8 44 -8z m-74 -35 c0 -11 -4 -20 -10 -20 -5 0 -14 9 -20 20 -9
17 -8 20 10 20 13 0 20 -7 20 -20z m110 -10 c0 -5 -4 -10 -10 -10 -5 0 -10 5
-10 10 0 6 5 10 10 10 6 0 10 -4 10 -10z m-190 -40 c0 -11 -4 -20 -10 -20 -5
0 -10 9 -10 20 0 11 5 20 10 20 6 0 10 -9 10 -20z m760 -32 c-27 -22 -41 -23
-34 -3 4 8 12 15 19 15 7 0 16 8 20 18 6 13 8 14 13 3 2 -8 -5 -23 -18 -33z
m-580 -19 c0 -11 -4 -17 -10 -14 -5 3 -10 15 -10 26 0 11 5 17 10 14 6 -3 10
-15 10 -26z m43 -41 c4 -12 4 -24 1 -27 -8 -9 -37 27 -30 38 11 17 23 13 29
-11z m982 -27 c-7 -32 -25 -43 -25 -15 0 19 20 57 27 51 3 -3 2 -19 -2 -36z
m-935 4 c0 -8 -4 -15 -10 -15 -5 0 -10 7 -10 15 0 8 5 15 10 15 6 0 10 -7 10
-15z m457 -109 c-3 -61 -14 -151 -25 -201 -11 -49 -25 -124 -32 -165 -7 -41
-17 -79 -22 -85 -6 -6 -7 0 -4 15 3 14 10 77 16 140 6 63 17 162 25 220 8 58
17 126 21 153 3 30 9 45 16 41 7 -5 9 -44 5 -118z m-641 103 c10 -17 -13 -36
-27 -22 -12 12 -4 33 11 33 5 0 12 -5 16 -11z m1069 -9 c3 -5 1 -10 -4 -10 -6
0 -11 5 -11 10 0 6 2 10 4 10 3 0 8 -4 11 -10z m-1170 -49 c-9 -16 -25 -3 -18
15 4 10 9 12 15 6 6 -6 7 -15 3 -21z m557 -32 c-10 -603 -14 -663 -37 -699
-12 -20 -26 -55 -30 -78 -7 -43 -20 -61 -27 -39 -3 6 -1 75 3 152 5 77 12 244
17 370 8 207 11 235 32 283 23 54 42 58 42 11z m-555 -21 c-3 -8 -6 -5 -6 6
-1 11 2 17 5 13 3 -3 4 -12 1 -19z m345 -345 c-3 -221 -7 -313 -15 -313 -6 0
-33 23 -59 51 -46 50 -61 90 -38 104 7 4 8 30 4 69 -5 48 -3 70 10 94 19 38
12 62 -20 62 -18 0 -25 7 -32 33 -10 37 -35 43 -40 9 -4 -29 -24 -37 -52 -22
-17 9 -19 14 -10 26 15 17 6 44 -14 44 -27 0 -46 -41 -39 -83 5 -36 3 -42 -36
-77 -37 -34 -41 -42 -41 -84 0 -33 4 -46 14 -46 17 0 56 51 56 74 0 9 8 16 20
16 21 0 28 -24 10 -35 -16 -10 -12 -45 6 -52 10 -4 22 1 30 11 15 21 53 18 67
-5 8 -13 6 -24 -7 -44 -16 -25 -23 -27 -62 -22 -36 4 -44 2 -44 -12 0 -9 -9
-29 -20 -46 -11 -16 -20 -42 -20 -57 0 -26 2 -27 25 -16 18 8 29 8 36 1 25
-25 -3 -34 -105 -31 l-102 3 8 40 c5 22 14 78 19 125 6 47 19 126 30 175 10
50 26 131 34 180 9 50 18 98 21 108 8 25 24 21 24 -7 0 -32 53 -76 90 -76 32
0 60 31 60 67 0 30 14 36 34 14 16 -18 16 -21 1 -44 -12 -19 -13 -27 -4 -32 7
-5 39 22 82 69 57 61 73 73 77 59 3 -10 4 -159 2 -330z m448 257 c0 -5 -2 -10
-4 -10 -3 0 -8 5 -11 10 -3 6 -1 10 4 10 6 0 11 -4 11 -10z m-156 -126 c-5
-46 -9 -61 -15 -48 -7 19 9 129 18 121 2 -3 1 -35 -3 -73z m-44 -24 c0 -5 -4
-10 -10 -10 -5 0 -10 5 -10 10 0 6 5 10 10 10 6 0 10 -4 10 -10z m-366 -75 c3
-8 1 -15 -4 -15 -6 0 -10 7 -10 15 0 8 2 15 4 15 2 0 6 -7 10 -15z m402 -11
c-3 -9 -6 -20 -6 -25 0 -5 -4 -9 -10 -9 -5 0 -10 11 -10 25 0 16 6 25 16 25
11 0 14 -5 10 -16z m-466 -18 c0 -34 -24 -51 -44 -31 -29 29 -19 55 21 55 18
0 23 -6 23 -24z m571 -137 c-1 -68 -4 -125 -6 -127 -2 -2 0 -14 5 -26 9 -26
-2 -52 -19 -42 -14 9 -78 -22 -95 -46 -14 -19 -15 -19 -24 -1 -22 40 -12 163
13 163 7 0 15 7 19 15 8 23 23 18 30 -11 18 -69 53 32 55 156 1 47 4 61 12 53
7 -7 11 -56 10 -134z m-554 69 c-3 -8 -6 -5 -6 6 -1 11 2 17 5 13 3 -3 4 -12
1 -19z m647 7 c-4 -8 -8 -15 -10 -15 -2 0 -4 7 -4 15 0 8 4 15 10 15 5 0 7 -7
4 -15z m-6 -78 c15 -42 16 -79 2 -57 -5 8 -10 25 -10 38 0 15 -6 22 -20 22
-20 0 -26 11 -13 23 14 15 30 5 41 -26z m-161 -9 c-3 -8 -6 -5 -6 6 -1 11 2
17 5 13 3 -3 4 -12 1 -19z m-239 -13 c-3 -3 -9 2 -12 12 -6 14 -5 15 5 6 7 -7
10 -15 7 -18z m-285 -135 c-3 -11 -9 -20 -14 -20 -5 0 -9 9 -9 20 0 11 6 20
14 20 9 0 12 -7 9 -20z m49 -22 c-15 -15 -26 -4 -18 18 5 13 9 15 18 6 9 -9 9
-15 0 -24z m-320 -77 c19 -16 23 -26 20 -55 -2 -20 -8 -36 -13 -36 -10 0 -34
49 -30 63 0 4 -3 17 -9 27 -14 25 0 25 32 1z m288 -50 c0 -6 -9 -11 -20 -11
-14 0 -20 -7 -20 -21 0 -18 4 -20 30 -15 17 3 43 9 60 12 16 3 37 3 47 0 15
-6 14 -8 -5 -22 -25 -17 -28 -36 -9 -52 16 -13 57 11 57 32 0 7 10 26 22 41
21 27 21 28 2 42 -19 14 -19 14 0 29 11 8 24 14 29 14 5 0 8 -48 6 -113 l-4
-112 -47 -75 c-26 -41 -54 -84 -62 -95 -14 -19 -14 -19 -21 10 -17 80 -28 112
-44 134 -16 20 -21 22 -41 11 -18 -9 -27 -9 -46 0 -39 21 -57 5 -100 -92 -17
-38 -36 -46 -64 -28 -12 8 -12 10 3 15 15 6 15 10 2 42 -16 39 -13 53 14 53
21 0 41 19 41 38 0 8 10 28 22 44 11 17 38 66 60 110 l38 80 25 -30 c14 -17
25 -35 25 -41z m557 61 c14 -9 33 -56 33 -83 0 -16 -7 -19 -44 -19 -43 0 -43
0 -50 42 -6 34 -3 45 10 55 20 15 34 16 51 5z m-737 -17 c0 -10 -10 -15 -30
-15 -29 0 -38 9 -23 23 13 13 53 7 53 -8z m868 -3 c6 -18 -15 -14 -22 4 -4 10
-1 14 6 12 6 -2 14 -10 16 -16z m281 -51 c-25 -21 -39 -26 -39 -13 0 9 53 42
59 37 2 -3 -7 -13 -20 -24z m-1151 0 c3 -8 -1 -12 -9 -9 -7 2 -15 10 -17 17
-3 8 1 12 9 9 7 -2 15 -10 17 -17z m1062 -8 c0 -23 -17 -49 -26 -41 -9 10 4
58 16 58 6 0 10 -8 10 -17z m-605 -23 c-5 -8 -11 -8 -17 -2 -6 6 -7 16 -3 22
5 8 11 8 17 2 6 -6 7 -16 3 -22z m392 -84 c-11 -20 -12 -19 -15 12 -2 19 0 41
4 50 5 13 8 11 15 -12 5 -19 4 -36 -4 -50z m-900 32 c-3 -8 -6 -5 -6 6 -1 11
2 17 5 13 3 -3 4 -12 1 -19z m1113 -2 c0 -3 -4 -8 -10 -11 -5 -3 -10 -1 -10 4
0 6 5 11 10 11 6 0 10 -2 10 -4z m-604 -67 c1 -30 3 -65 5 -79 3 -19 -1 -26
-17 -28 -20 -3 -21 1 -19 80 2 96 1 91 18 85 7 -2 13 -24 13 -58z m346 -21
c-7 -7 -12 -8 -12 -2 0 6 3 14 7 17 3 4 9 5 12 2 2 -3 -1 -11 -7 -17z m84 -25
c-10 -10 -19 5 -10 18 6 11 8 11 12 0 2 -7 1 -15 -2 -18z m-46 -4 c0 -5 -4 -9
-10 -9 -5 0 -10 7 -10 16 0 8 5 12 10 9 6 -3 10 -10 10 -16z m97 -21 c19 -24
25 -99 10 -117 -8 -9 -18 -29 -21 -46 -7 -25 -9 -27 -17 -12 -7 11 -6 24 2 38
7 14 9 44 4 85 -6 63 1 79 22 52z m-1073 -47 c-7 -7 -34 28 -34 43 1 6 10 0
21 -13 11 -13 17 -27 13 -30z m202 -17 c-3 -8 -10 -14 -16 -14 -14 0 -13 33 3
49 10 10 13 9 15 -4 2 -9 1 -23 -2 -31z m132 18 c2 -12 -5 -40 -14 -62 -18
-40 -42 -51 -71 -32 -17 11 -29 72 -14 72 6 0 11 7 11 15 0 8 5 15 10 15 6 0
13 -7 16 -15 10 -25 34 -17 34 11 0 31 23 28 28 -4z m852 -71 c0 -6 -4 -13
-10 -16 -5 -3 -10 1 -10 9 0 9 5 16 10 16 6 0 10 -4 10 -9z m-1026 -16 c-6
-16 -34 -21 -34 -7 0 13 11 22 26 22 8 0 11 -6 8 -15z m803 -32 c-3 -10 -5 -4
-5 12 0 17 2 24 5 18 2 -7 2 -21 0 -30z m93 -118 c0 -8 -4 -15 -10 -15 -5 0
-10 7 -10 15 0 8 5 15 10 15 6 0 10 -7 10 -15z m-95 -15 c3 -5 -1 -10 -10 -10
-9 0 -13 5 -10 10 3 6 8 10 10 10 2 0 7 -4 10 -10z m-136 -182 c1 -26 6 -50
11 -53 6 -4 8 -9 6 -13 -2 -4 4 -54 15 -111 21 -117 28 -338 10 -367 -6 -11
-11 -14 -11 -9 0 6 -7 65 -15 130 -19 150 -45 453 -44 520 l1 50 13 -50 c7
-27 14 -71 14 -97z m137 85 c-11 -11 -19 6 -11 24 8 17 8 17 12 0 3 -10 2 -21
-1 -24z m154 23 c0 -11 -19 -15 -25 -6 -3 5 1 10 9 10 9 0 16 -2 16 -4z m-353
-28 c-3 -8 -6 -5 -6 6 -1 11 2 17 5 13 3 -3 4 -12 1 -19z m280 -40 c-3 -8 -6
-5 -6 6 -1 11 2 17 5 13 3 -3 4 -12 1 -19z m-77 -2 c0 -8 -4 -18 -10 -21 -5
-3 -10 3 -10 14 0 12 5 21 10 21 6 0 10 -6 10 -14z m74 -151 c-9 -93 -22 -56
-16 45 4 61 6 70 14 50 5 -14 6 -56 2 -95z m86 60 c0 -19 -4 -35 -10 -35 -5 0
-10 16 -10 35 0 19 5 35 10 35 6 0 10 -16 10 -35z m-349 -112 c-8 -15 -10 -15
-11 -2 0 17 10 32 18 25 2 -3 -1 -13 -7 -23z m189 7 c0 -5 -5 -10 -11 -10 -5
0 -7 5 -4 10 3 6 8 10 11 10 2 0 4 -4 4 -10z m115 -40 c3 -5 1 -10 -4 -10 -6
0 -11 5 -11 10 0 6 2 10 4 10 3 0 8 -4 11 -10z m36 -82 l-9 -33 -1 41 c-1 22
2 44 7 48 12 12 14 -19 3 -56z m-332 10 c-1 -41 -1 -42 -11 -15 -5 15 -7 34
-4 42 10 27 16 16 15 -27z m248 -140 c-2 -13 -4 -3 -4 22 0 25 2 35 4 23 2
-13 2 -33 0 -45z m83 52 c0 -5 -4 -10 -10 -10 -5 0 -10 5 -10 10 0 6 5 10 10
10 6 0 10 -4 10 -10z m-308 -97 c8 -72 27 -197 49 -333 10 -60 2 -170 -13
-170 -11 0 -28 44 -28 73 0 11 -10 31 -21 43 -22 24 -24 58 -16 359 1 39 -1
80 -5 91 -4 12 -4 25 -1 28 14 14 26 -16 35 -91z m259 -6 c-13 -13 -14 5 -3
54 l7 34 3 -39 c2 -21 -1 -43 -7 -49z m-121 -37 c0 -5 -4 -10 -10 -10 -5 0
-10 5 -10 10 0 6 5 10 10 10 6 0 10 -4 10 -10z m119 -64 c-9 -8 -10 -7 -5 7 3
10 7 24 7 30 1 7 3 4 6 -7 3 -10 -1 -23 -8 -30z m51 40 c0 -3 -4 -8 -10 -11
-5 -3 -10 -1 -10 4 0 6 5 11 10 11 6 0 10 -2 10 -4z m50 -6 c0 -5 -5 -10 -11
-10 -5 0 -7 5 -4 10 3 6 8 10 11 10 2 0 4 -4 4 -10z m-210 -10 c0 -5 -4 -10
-10 -10 -5 0 -10 5 -10 10 0 6 5 10 10 10 6 0 10 -4 10 -10z m71 -107 c-9 -15
-10 -12 -11 18 0 20 3 39 8 43 11 12 14 -42 3 -61z m1884 -3 c3 -5 -1 -10 -9
-10 -8 0 -18 5 -21 10 -3 6 1 10 9 10 8 0 18 -4 21 -10z m-1935 -36 c0 -8 -4
-12 -10 -9 -5 3 -10 10 -10 16 0 5 5 9 10 9 6 0 10 -7 10 -16z m1851 -17 c-8
-8 -11 -7 -11 4 0 20 13 34 18 19 3 -7 -1 -17 -7 -23z m-1751 -139 c0 -10 -4
-18 -10 -18 -5 0 -10 -7 -10 -16 0 -8 -4 -12 -10 -9 -11 7 -13 64 -3 90 5 15
8 14 19 -6 7 -13 13 -32 14 -41z m-105 -74 c-9 -77 -26 -79 -19 -2 3 35 8 70
11 78 11 27 15 -19 8 -76z m72 -106 c-3 -8 -6 -5 -6 6 -1 11 2 17 5 13 3 -3 4
-12 1 -19z m-10 -130 c-3 -7 -5 -2 -5 12 0 14 2 19 5 13 2 -7 2 -19 0 -25z m3
-113 c0 -50 -4 -85 -10 -85 -6 0 -10 35 -10 85 0 50 4 85 10 85 6 0 10 -35 10
-85z m-15 -305 c3 -5 1 -10 -4 -10 -6 0 -11 5 -11 10 0 6 2 10 4 10 3 0 8 -4
11 -10z m-105 -25 c0 -8 -4 -17 -10 -20 -6 -4 -10 5 -10 20 0 15 4 24 10 20 6
-3 10 -12 10 -20z m-13 -92 c-3 -10 -5 -4 -5 12 0 17 2 24 5 18 2 -7 2 -21 0
-30z m153 17 c0 -5 -4 -10 -9 -10 -6 0 -13 5 -16 10 -3 6 1 10 9 10 9 0 16 -4
16 -10z m-150 -106 c0 -15 -6 -24 -15 -24 -21 0 -30 27 -15 45 16 19 30 10 30
-21z m60 17 c0 -12 -20 -25 -27 -18 -7 7 6 27 18 27 5 0 9 -4 9 -9z m-20 -57
c0 -8 -5 -12 -10 -9 -6 4 -8 11 -5 16 9 14 15 11 15 -7z m-37 -34 c-3 -11 -7
-20 -9 -20 -2 0 -4 9 -4 20 0 11 4 20 9 20 5 0 7 -9 4 -20z m159 3 c21 -19 23
-44 6 -61 -22 -22 -36 -13 -41 26 -6 55 3 65 35 35z m-62 3 c0 -3 -4 -8 -10
-11 -5 -3 -10 -1 -10 4 0 6 5 11 10 11 6 0 10 -2 10 -4z m-72 -68 c13 19 22
-8 22 -62 0 -53 -6 -59 -41 -40 -37 18 -37 36 -1 32 37 -4 39 33 2 42 -14 3
-25 11 -24 18 3 33 5 35 19 16 12 -15 16 -16 23 -6z m22 -198 c0 -5 -4 -10
-10 -10 -5 0 -10 5 -10 10 0 6 5 10 10 10 6 0 10 -4 10 -10z m109 -92 c1 -42
-1 -43 -32 -27 -19 10 -87 76 -87 84 0 2 17 1 38 -2 28 -4 42 -1 52 12 14 16
15 16 21 -6 4 -13 7 -41 8 -61z m76 -47 c3 -5 1 -13 -5 -16 -15 -9 -43 3 -35
15 8 13 32 13 40 1z"/>
<path d="M3325 11889 c-27 -10 -61 -18 -75 -19 -23 0 -28 -8 -47 -65 -21 -64
-21 -65 -2 -102 10 -20 25 -41 33 -45 16 -9 67 7 78 25 5 8 12 6 26 -6 21 -19
111 -24 142 -7 37 20 42 45 15 74 -22 24 -31 26 -98 26 -40 0 -76 3 -80 6 -8
8 11 57 26 66 19 12 125 9 146 -4 22 -13 51 -4 51 16 0 10 -19 21 -51 30 -80
24 -111 25 -164 5z"/>
<path d="M2884 11879 c-36 -10 -59 -33 -49 -49 3 -5 24 -10 46 -10 46 0 117
-27 103 -38 -5 -5 -39 -21 -76 -36 -84 -35 -105 -57 -92 -94 l10 -27 104 2
c58 1 117 6 133 12 35 14 36 47 2 63 -45 20 -29 65 25 70 30 3 35 7 38 31 3
23 -2 30 -32 42 -19 8 -49 15 -66 15 -17 0 -39 4 -48 9 -30 15 -66 19 -98 10z"/>
<path d="M3283 11330 c-21 -24 -39 -25 -88 -4 -21 8 -44 13 -52 10 -22 -9 -12
-59 14 -71 12 -5 26 -19 32 -32 6 -13 19 -23 31 -23 12 0 30 -5 41 -11 17 -8
26 -4 54 24 39 39 46 84 19 111 -20 21 -31 20 -51 -4z m-73 -34 c0 -8 -4 -18
-10 -21 -5 -3 -10 3 -10 14 0 12 5 21 10 21 6 0 10 -6 10 -14z"/>
<path d="M3346 11184 c-15 -14 -28 -15 -84 -9 -92 11 -181 8 -198 -6 -21 -17
-17 -57 7 -70 12 -6 37 -9 55 -6 36 6 86 -12 80 -28 -2 -5 -10 -8 -17 -6 -53
15 -59 14 -59 -10 0 -13 9 -39 20 -56 17 -28 25 -33 58 -33 30 0 41 5 48 21 6
12 25 27 44 33 18 6 36 18 40 26 4 8 17 36 29 63 11 26 26 47 32 47 6 0 9 10
7 23 -4 28 -39 34 -62 11z m-66 -78 c0 -3 -4 -8 -10 -11 -5 -3 -10 -1 -10 4 0
6 5 11 10 11 6 0 10 -2 10 -4z m-70 -126 c0 -5 -4 -10 -10 -10 -5 0 -10 5 -10
10 0 6 5 10 10 10 6 0 10 -4 10 -10z"/>
<path d="M2570 11139 c0 -9 7 -22 15 -29 19 -16 19 0 0 26 -12 16 -14 16 -15
3z"/>
<path d="M2910 10943 c0 -5 11 -39 25 -77 51 -145 159 -246 205 -191 7 8 20
15 30 15 19 0 50 30 50 49 0 18 -84 52 -130 53 -34 0 -44 6 -74 43 -19 23 -45
59 -56 79 -19 31 -50 50 -50 29z m210 -204 c0 -5 -4 -9 -10 -9 -5 0 -10 7 -10
16 0 8 5 12 10 9 6 -3 10 -10 10 -16z"/>
<path d="M2530 10880 c-8 -4 -26 -13 -40 -18 l-25 -11 26 0 c15 -1 37 8 50 19
24 19 17 26 -11 10z"/>
<path d="M4307 10673 c-4 -3 -7 -23 -7 -43 0 -73 -20 -146 -65 -235 -25 -49
-45 -95 -45 -102 0 -6 -3 -13 -8 -15 -4 -1 -25 -25 -47 -53 -21 -27 -51 -63
-66 -80 -30 -33 -47 -85 -28 -85 18 0 72 64 148 175 114 168 161 276 161 376
0 52 -22 84 -43 62z"/>
<path d="M4201 10135 c-22 -31 -41 -60 -41 -64 0 -5 -7 -11 -15 -15 -24 -9
-18 -26 9 -26 40 0 138 123 120 151 -12 20 -33 7 -73 -46z"/>
<path d="M4209 9810 c-13 -10 -19 -19 -12 -20 18 0 63 22 63 32 0 14 -27 9
-51 -12z"/>
<path d="M4256 9634 c-4 -9 -4 -19 -2 -21 8 -8 26 8 26 23 0 19 -16 18 -24 -2z"/>
<path d="M2020 11028 c0 -61 38 -250 71 -352 l28 -88 -29 6 c-17 3 -30 2 -30
-2 0 -4 19 -30 43 -57 44 -50 67 -51 42 -1 -9 16 -12 39 -8 57 6 31 -11 124
-48 270 -10 42 -19 95 -19 117 0 52 -15 92 -35 92 -11 0 -15 -11 -15 -42z"/>
<path d="M1950 11020 c0 -5 5 -10 10 -10 6 0 10 5 10 10 0 6 -4 10 -10 10 -5
0 -10 -4 -10 -10z"/>
<path d="M1680 10529 c0 -5 5 -7 10 -4 6 3 10 8 10 11 0 2 -4 4 -10 4 -5 0
-10 -5 -10 -11z"/>
<path d="M1543 8853 c-26 -5 -47 -28 -38 -43 8 -13 42 -13 51 1 10 16 93 5
146 -20 44 -20 65 -15 54 14 -15 39 -128 65 -213 48z"/>
<path d="M1565 8753 c-57 -13 -90 -28 -120 -55 -62 -54 -101 -142 -69 -155 11
-4 38 17 90 68 l75 74 78 0 c86 0 101 6 80 31 -22 26 -94 46 -134 37z"/>
<path d="M1552 8581 c-44 -37 -40 -65 8 -69 52 -5 110 15 110 38 0 21 -45 60
-69 60 -9 -1 -31 -14 -49 -29z"/>
<path d="M1360 8355 c0 -8 5 -15 10 -15 6 0 10 7 10 15 0 8 -4 15 -10 15 -5 0
-10 -7 -10 -15z"/>
<path d="M1384 8270 c3 -16 9 -44 12 -61 7 -33 29 -48 45 -32 7 7 7 17 1 29
-5 11 -17 36 -27 57 -22 45 -40 49 -31 7z"/>
<path d="M3925 8090 c-3 -5 -1 -10 4 -10 6 0 11 5 11 10 0 6 -2 10 -4 10 -3 0
-8 -4 -11 -10z"/>
<path d="M2424 8066 c-10 -8 -16 -18 -11 -22 10 -10 59 8 65 24 5 17 -30 15
-54 -2z"/>
<path d="M2602 7483 c-32 -13 -51 -38 -39 -50 12 -11 77 8 87 26 15 29 -8 41
-48 24z"/>
<path d="M2560 7383 c-25 -15 -49 -31 -55 -36 -5 -4 -25 -17 -43 -28 -33 -19
-50 -44 -38 -56 3 -4 19 5 34 19 15 14 36 28 47 31 52 14 129 48 137 59 28 44
-16 50 -82 11z"/>
<path d="M2743 7347 c-29 -13 -37 -37 -19 -56 14 -13 18 -12 41 9 40 38 26 69
-22 47z"/>
<path d="M2872 6432 c-50 -17 -70 -48 -79 -124 l-6 -51 31 6 c19 4 32 2 34 -5
14 -42 78 83 78 153 0 36 -6 38 -58 21z"/>
<path d="M2535 5520 c-3 -5 -1 -10 4 -10 6 0 11 5 11 10 0 6 -2 10 -4 10 -3 0
-8 -4 -11 -10z"/>
<path d="M2530 5353 c0 -84 12 -120 30 -93 5 8 10 21 10 28 0 7 5 21 11 31 16
24 -9 104 -33 109 -16 3 -18 -6 -18 -75z"/>
<path d="M2820 5210 c0 -5 5 -10 10 -10 6 0 10 5 10 10 0 6 -4 10 -10 10 -5 0
-10 -4 -10 -10z"/>
<path d="M3305 4170 c-3 -5 1 -10 10 -10 9 0 13 5 10 10 -3 6 -8 10 -10 10 -2
0 -7 -4 -10 -10z"/>
<path d="M3302 3787 c-12 -14 -11 -19 15 -97 8 -25 35 37 31 73 -3 35 -27 47
-46 24z"/>
<path d="M3384 3476 c-8 -22 2 -46 21 -46 19 0 20 34 0 50 -12 10 -16 9 -21
-4z"/>
<path d="M3787 11563 c-13 -12 -7 -23 13 -23 11 0 20 7 20 15 0 15 -21 21 -33
8z"/>
<path d="M1480 10321 c0 -11 5 -23 10 -26 6 -3 10 3 10 14 0 11 -4 23 -10 26
-5 3 -10 -3 -10 -14z"/>
<path d="M4560 9925 c0 -14 21 -45 31 -45 18 0 5 45 -13 48 -10 2 -18 1 -18
-3z"/>
<path d="M4586 9824 c-9 -23 -7 -54 2 -54 5 0 14 11 20 24 8 19 8 27 -2 35
-10 9 -15 8 -20 -5z"/>
<path d="M4620 9760 c0 -5 5 -10 11 -10 5 0 7 5 4 10 -3 6 -8 10 -11 10 -2 0
-4 -4 -4 -10z"/>
<path d="M4586 9734 c-9 -23 -8 -24 14 -24 16 0 20 -7 20 -34 0 -25 5 -35 20
-39 17 -4 18 -2 9 15 -6 11 -9 31 -6 44 4 24 -4 36 -35 47 -10 3 -19 0 -22 -9z"/>
<path d="M4800 8821 c0 -6 5 -13 10 -16 6 -3 10 1 10 9 0 9 -4 16 -10 16 -5 0
-10 -4 -10 -9z"/>
<path d="M4783 8714 c-3 -8 -1 -25 5 -37 9 -18 11 -19 11 -4 1 9 6 17 11 17 6
0 10 9 10 20 0 24 -28 27 -37 4z"/>
<path d="M1120 8599 c0 -5 5 -7 10 -4 6 3 10 8 10 11 0 2 -4 4 -10 4 -5 0 -10
-5 -10 -11z"/>
<path d="M1352 7454 c1 -10 16 -21 31 -25 25 -7 28 -5 25 14 -2 16 -11 23 -31
25 -23 3 -28 0 -25 -14z"/>
<path d="M1363 7353 c-12 -4 -19 -63 -9 -63 3 0 17 11 31 24 35 33 21 57 -22
39z"/>
<path d="M1397 7283 c-4 -3 -7 -11 -7 -17 0 -6 5 -5 12 2 6 6 9 14 7 17 -3 3
-9 2 -12 -2z"/>
<path d="M2461 6643 c-1 -37 7 -63 20 -63 13 0 10 30 -6 65 l-13 30 -1 -32z"/>
<path d="M4355 6570 c-4 -6 -3 -16 3 -22 6 -6 12 -6 17 2 4 6 3 16 -3 22 -6 6
-12 6 -17 -2z"/>
<path d="M2491 6504 c0 -11 3 -14 6 -6 3 7 2 16 -1 19 -3 4 -6 -2 -5 -13z"/>
<path d="M4245 4614 c-28 -37 -27 -56 3 -38 13 9 37 74 27 74 -1 0 -15 -16
-30 -36z"/>
<path d="M4284 4585 c-3 -25 -10 -45 -15 -45 -18 0 -8 -22 12 -27 16 -5 20
-12 17 -41 -2 -32 0 -36 26 -43 40 -11 63 12 48 47 -13 28 -32 32 -32 7 0 -12
-3 -14 -10 -7 -6 6 -14 43 -17 82 -3 40 -9 72 -14 72 -4 0 -11 -20 -15 -45z"/>
<path d="M4295 4370 c-11 -17 5 -32 21 -19 8 6 14 15 14 20 0 12 -27 11 -35
-1z"/>
<path d="M3792 4314 c3 -17 21 -21 26 -6 1 5 -4 12 -13 16 -11 4 -15 1 -13
-10z"/>
<path d="M4420 4315 c-7 -9 -11 -18 -8 -20 3 -3 11 1 18 10 7 9 11 18 8 20 -3
3 -11 -1 -18 -10z"/>
<path d="M4491 4321 c-12 -8 -11 -13 10 -29 20 -17 25 -18 32 -6 5 9 4 21 -3
30 -14 16 -20 17 -39 5z"/>
<path d="M4300 4269 c0 -16 3 -18 19 -9 30 16 32 25 5 26 -18 1 -24 -3 -24
-17z"/>
<path d="M4135 4261 c-3 -5 4 -13 16 -16 23 -8 34 -1 24 14 -8 13 -32 14 -40
2z"/>
<path d="M4206 4253 c-10 -24 8 -37 33 -24 12 7 18 17 15 26 -8 20 -40 19 -48
-2z"/>
<path d="M4517 4224 c-17 -18 -6 -35 21 -32 16 2 27 9 27 18 0 16 -36 26 -48
14z"/>
<path d="M4025 4210 c-3 -5 -1 -19 6 -31 10 -20 12 -21 21 -5 16 29 -10 64
-27 36z"/>
<path d="M4200 4190 c0 -5 5 -10 10 -10 6 0 10 5 10 10 0 6 -4 10 -10 10 -5 0
-10 -4 -10 -10z"/>
<path d="M4586 4178 c-10 -40 -7 -58 12 -58 38 0 54 37 26 64 -21 22 -31 20
-38 -6z"/>
<path d="M4130 4175 c0 -26 30 -77 43 -72 20 6 19 32 -3 60 -24 30 -40 35 -40
12z"/>
<path d="M4090 4145 c7 -8 17 -15 22 -15 6 0 5 7 -2 15 -7 8 -17 15 -22 15 -6
0 -5 -7 2 -15z"/>
<path d="M4074 4106 c-8 -22 3 -33 18 -18 9 9 9 15 0 24 -9 9 -13 7 -18 -6z"/>
<path d="M4387 4051 c-25 -38 -62 -99 -82 -137 -20 -38 -45 -82 -56 -99 -40
-58 -172 -291 -211 -370 -37 -77 -44 -115 -23 -122 10 -3 75 96 75 116 0 17
58 104 90 133 18 16 30 37 30 52 0 13 5 26 11 28 6 2 34 53 63 113 49 104 64
130 144 257 33 54 42 98 18 98 -7 0 -34 -31 -59 -69z"/>
<path d="M4510 4065 c0 -18 19 -40 26 -32 4 4 0 15 -9 24 -9 10 -17 13 -17 8z"/>
<path d="M4615 4061 c-3 -5 -1 -12 5 -16 5 -3 10 1 10 9 0 18 -6 21 -15 7z"/>
<path d="M4081 4014 c0 -11 3 -14 6 -6 3 7 2 16 -1 19 -3 4 -6 -2 -5 -13z"/>
<path d="M4620 4020 c0 -5 5 -10 10 -10 6 0 10 5 10 10 0 6 -4 10 -10 10 -5 0
-10 -4 -10 -10z"/>
<path d="M3960 4009 c0 -9 7 -22 15 -29 19 -16 19 0 0 26 -12 16 -14 16 -15 3z"/>
<path d="M4450 3960 c0 -5 5 -10 11 -10 5 0 7 5 4 10 -3 6 -8 10 -11 10 -2 0
-4 -4 -4 -10z"/>
<path d="M4600 3949 c0 -11 5 -17 10 -14 6 3 10 13 10 21 0 8 -4 14 -10 14 -5
0 -10 -9 -10 -21z"/>
<path d="M4564 3924 c3 -9 6 -18 6 -20 0 -3 5 -2 10 1 16 10 12 35 -6 35 -11
0 -14 -5 -10 -16z"/>
<path d="M4010 3920 c0 -5 5 -10 10 -10 6 0 10 5 10 10 0 6 -4 10 -10 10 -5 0
-10 -4 -10 -10z"/>
<path d="M4012 3829 c-36 -37 -34 -54 2 -20 18 17 25 19 29 9 3 -9 7 -8 12 5
15 36 -11 39 -43 6z"/>
<path d="M4831 3822 c-120 -126 -216 -237 -266 -307 -32 -44 -88 -118 -124
-165 -37 -47 -75 -96 -84 -110 -18 -26 -23 -70 -8 -70 11 0 81 76 141 155 25
33 64 80 88 105 24 25 50 59 58 75 8 17 28 48 45 69 l32 37 11 -23 c15 -30 42
-35 49 -8 6 24 57 29 57 5 0 -8 5 -15 10 -15 6 0 9 15 8 33 -3 30 -1 32 27 32
27 0 30 3 33 37 l3 36 -36 -18 c-20 -10 -41 -23 -48 -28 -28 -23 -87 -51 -87
-42 0 6 7 13 15 16 8 4 15 13 15 21 0 9 36 51 80 94 82 81 93 109 43 109 -16
0 -38 -14 -62 -38z"/>
<path d="M3937 3843 c-13 -23 -17 -72 -6 -79 17 -10 39 23 39 58 0 26 -22 40
-33 21z"/>
<path d="M4324 3755 c-16 -12 -16 -14 -3 -15 9 0 22 7 29 15 16 19 0 19 -26 0z"/>
<path d="M3675 3720 c3 -5 8 -10 11 -10 2 0 4 5 4 10 0 6 -5 10 -11 10 -5 0
-7 -4 -4 -10z"/>
<path d="M4300 3689 c0 -5 5 -7 10 -4 6 3 10 8 10 11 0 2 -4 4 -10 4 -5 0 -10
-5 -10 -11z"/>
<path d="M3690 3681 c0 -11 29 -35 35 -29 10 9 -7 38 -21 38 -8 0 -14 -4 -14
-9z"/>
<path d="M3750 3626 c0 -9 5 -16 10 -16 6 0 10 4 10 9 0 6 -4 13 -10 16 -5 3
-10 -1 -10 -9z"/>
<path d="M4230 3629 c0 -5 5 -7 10 -4 6 3 10 8 10 11 0 2 -4 4 -10 4 -5 0 -10
-5 -10 -11z"/>
<path d="M4700 3514 c0 -8 5 -12 10 -9 6 3 10 10 10 16 0 5 -4 9 -10 9 -5 0
-10 -7 -10 -16z"/>
<path d="M4223 3468 c-21 -22 -155 -245 -194 -320 -11 -21 -26 -38 -34 -38
-19 0 -35 -32 -29 -57 5 -17 -28 -89 -74 -163 -22 -34 -72 -180 -72 -208 0
-25 18 -26 32 -1 5 8 47 93 94 189 47 96 97 195 111 220 42 75 145 261 177
322 22 40 28 60 20 68 -7 7 -17 3 -31 -12z"/>
<path d="M4691 3464 c0 -11 3 -14 6 -6 3 7 2 16 -1 19 -3 4 -6 -2 -5 -13z"/>
<path d="M4628 3409 c-19 -10 -25 -49 -8 -49 11 0 33 37 28 50 -2 5 -11 4 -20
-1z"/>
<path d="M4560 3330 c-6 -12 -9 -24 -7 -27 3 -2 11 5 17 17 6 12 9 24 7 27 -3
2 -11 -5 -17 -17z"/>
<path d="M4510 3260 c0 -5 5 -10 10 -10 6 0 10 5 10 10 0 6 -4 10 -10 10 -5 0
-10 -4 -10 -10z"/>
<path d="M3715 3240 c-3 -5 -1 -10 4 -10 6 0 11 5 11 10 0 6 -2 10 -4 10 -3 0
-8 -4 -11 -10z"/>
<path d="M4481 3208 c-5 -13 -18 -32 -30 -42 -20 -19 -29 -46 -13 -46 11 0 37
19 37 27 1 4 9 22 18 40 20 37 21 43 7 43 -6 0 -14 -10 -19 -22z"/>
<path d="M3755 3040 c-14 -22 -45 -174 -40 -191 4 -11 -1 -21 -12 -28 -14 -8
-16 -14 -7 -28 7 -11 8 -27 3 -40 -5 -13 -13 -80 -19 -150 -14 -163 -27 -259
-40 -303 -15 -52 -13 -100 6 -107 25 -10 36 11 41 84 2 37 11 88 18 113 15 50
41 260 51 415 5 85 10 104 29 125 22 23 23 29 13 73 -11 44 -29 60 -43 37z"/>
<path d="M4337 2998 c-19 -29 -53 -85 -75 -125 -23 -39 -59 -85 -81 -102 -63
-50 -168 -218 -226 -361 -15 -36 -33 -78 -40 -95 -32 -71 -53 -133 -59 -175
-4 -24 -14 -52 -22 -61 -8 -9 -21 -42 -30 -75 -13 -53 -26 -77 -80 -152 -13
-18 -15 -28 -6 -46 9 -21 8 -25 -12 -30 -34 -8 -86 -60 -86 -85 0 -29 40 -28
93 3 23 13 67 34 97 47 30 12 68 33 84 47 16 13 61 39 99 59 39 19 77 41 84
49 8 8 23 14 32 14 29 0 82 26 141 69 30 23 65 45 78 51 13 6 43 24 67 40 24
17 54 30 67 30 13 0 42 18 66 41 35 33 41 43 31 55 -19 23 -73 17 -100 -12
-19 -21 -170 -109 -294 -172 -16 -8 -83 -46 -147 -84 -64 -38 -134 -76 -155
-84 -21 -9 -46 -23 -56 -32 -26 -23 -32 -6 -11 33 14 26 35 43 79 64 33 15 80
44 103 64 24 21 49 37 55 37 18 0 117 80 117 95 0 20 83 85 109 85 14 0 21 6
21 20 0 13 -6 20 -17 19 -10 0 -85 -40 -168 -87 -122 -71 -151 -92 -153 -112
-5 -36 -18 -47 -57 -52 -30 -3 -35 -1 -35 16 0 33 20 84 88 231 35 77 80 176
100 220 35 81 51 109 59 101 2 -2 -5 -23 -17 -46 -22 -43 -23 -81 -3 -87 14
-5 61 72 75 124 5 21 16 45 23 53 7 8 20 33 29 54 9 22 28 55 42 73 25 33 26
33 42 14 26 -31 68 -37 81 -12 13 23 2 34 -19 20 -24 -14 -30 -11 -30 18 0 21
-3 24 -12 15 -16 -16 -28 -15 -28 3 0 17 85 180 111 214 14 17 16 28 8 42 -15
29 -26 23 -62 -33z"/>
<path d="M4434 3035 c-9 -21 3 -59 26 -86 l19 -24 1 22 c0 13 9 28 20 35 24
15 25 31 5 48 -12 10 -19 10 -27 2 -17 -17 -28 -15 -22 3 4 8 1 15 -5 15 -7 0
-14 -7 -17 -15z"/>
<path d="M3870 3021 c0 -11 26 -22 34 -14 3 3 3 10 0 14 -7 12 -34 11 -34 0z"/>
<path d="M4077 2958 c-13 -18 -33 -53 -44 -78 -11 -25 -35 -76 -52 -114 -17
-37 -31 -73 -31 -80 0 -6 -15 -34 -34 -61 -18 -28 -36 -61 -41 -75 -4 -14 -18
-45 -31 -69 -39 -72 -28 -112 18 -63 29 30 59 87 78 147 7 22 53 122 101 222
49 100 89 187 89 192 0 22 -30 10 -53 -21z"/>
<path d="M4330 2824 c0 -9 5 -14 12 -12 18 6 21 28 4 28 -9 0 -16 -7 -16 -16z"/>
<path d="M4417 2555 c-9 -23 11 -28 23 -5 8 16 8 20 -4 20 -7 0 -16 -7 -19
-15z"/>
<path d="M2706 2444 c-5 -14 -4 -15 9 -4 17 14 19 20 6 20 -5 0 -12 -7 -15
-16z"/>
<path d="M2607 2419 c-21 -32 -37 -212 -32 -364 10 -253 15 -331 25 -370 16
-58 16 -70 3 -68 -16 3 -29 -17 -36 -54 -7 -36 9 -55 40 -47 25 7 37 -19 23
-47 -12 -21 -18 -23 -39 -10 -10 7 -20 2 -33 -15 l-19 -24 32 -28 c18 -15 38
-27 43 -27 6 0 13 18 16 40 l5 40 12 -35 c28 -80 72 -272 84 -362 13 -98 52
-199 74 -188 15 7 9 70 -14 145 -22 71 -28 160 -11 170 6 4 5 12 -5 21 -14 14
-25 49 -40 121 -5 27 -3 32 15 35 21 3 21 4 -8 41 -23 29 -32 52 -37 95 -3 31
-10 87 -16 123 -6 36 -7 93 -4 126 6 49 4 62 -11 77 -13 14 -14 20 -4 26 8 5
10 17 6 33 -4 19 -1 29 11 35 19 11 36 120 22 137 -5 5 -9 47 -9 94 0 62 -4
89 -15 102 -10 10 -18 45 -22 89 -4 45 -12 79 -23 93 l-17 21 -16 -25z m67
-368 c-12 -13 -21 19 -16 54 l6 40 7 -45 c3 -25 5 -47 3 -49z"/>
<path d="M4317 2306 c-6 -16 2 -28 14 -20 12 7 11 34 0 34 -5 0 -11 -6 -14
-14z"/>
<path d="M2835 2300 c3 -5 8 -10 11 -10 2 0 4 5 4 10 0 6 -5 10 -11 10 -5 0
-7 -4 -4 -10z"/>
<path d="M4620 2270 c0 -5 5 -10 10 -10 6 0 10 5 10 10 0 6 -4 10 -10 10 -5 0
-10 -4 -10 -10z"/>
<path d="M4562 2128 c-6 -6 -12 -19 -12 -27 0 -13 2 -13 16 1 9 9 15 21 13 27
-3 9 -8 8 -17 -1z"/>
<path d="M2719 1679 c-8 -16 -8 -28 0 -46 6 -13 11 -36 11 -51 1 -15 7 -38 14
-51 12 -22 14 -23 23 -6 7 12 7 27 0 45 -6 16 -7 35 -2 46 8 17 9 16 13 -8 2
-16 7 -28 12 -28 11 0 -4 51 -26 90 -22 36 -29 37 -45 9z"/>
<path d="M2358 1377 c-15 -12 -38 -30 -52 -40 -20 -14 -26 -26 -26 -55 0 -35
29 -132 52 -176 5 -10 16 -53 23 -95 28 -163 93 -400 126 -456 10 -16 36 -84
58 -150 42 -124 56 -145 101 -145 47 0 63 21 68 88 5 67 -20 152 -44 152 -8 0
-14 7 -14 15 0 8 7 15 15 15 36 0 1 168 -37 178 -19 5 -48 50 -48 74 0 9 3 9
12 0 21 -21 25 -13 15 21 -6 19 -20 38 -31 43 -33 15 -42 40 -28 76 10 28 9
38 -16 87 -24 49 -27 67 -26 146 1 80 0 87 -11 61 -12 -27 -13 -28 -22 -10 -6
10 -13 50 -16 87 -7 101 -42 131 -99 84z m2 -139 c-1 -66 -2 -71 -15 -54 -21
28 -29 80 -16 105 21 39 31 22 31 -51z m120 -398 c0 -5 -4 -10 -10 -10 -5 0
-10 5 -10 10 0 6 5 10 10 10 6 0 10 -4 10 -10z m50 -210 c0 -5 -4 -10 -10 -10
-5 0 -10 5 -10 10 0 6 5 10 10 10 6 0 10 -4 10 -10z m105 -310 c3 -5 1 -10 -4
-10 -6 0 -11 5 -11 10 0 6 2 10 4 10 3 0 8 -4 11 -10z"/>
<path d="M2630 1310 c0 -5 5 -10 10 -10 6 0 10 5 10 10 0 6 -4 10 -10 10 -5 0
-10 -4 -10 -10z"/>
<path d="M2810 558 c0 -7 5 -20 10 -28 8 -12 10 -11 10 7 0 12 -4 25 -10 28
-5 3 -10 0 -10 -7z"/>
<path d="M2927 545 c3 -14 10 -25 15 -25 13 0 6 43 -8 47 -7 2 -10 -6 -7 -22z"/>
<path d="M2846 471 c-4 -7 -5 -15 -2 -18 9 -9 19 4 14 18 -4 11 -6 11 -12 0z"/>
<path d="M3550 468 c0 -9 5 -20 11 -23 17 -11 20 0 4 21 -13 17 -14 17 -15 2z"/>
<path d="M2888 415 c-3 -30 -1 -35 17 -35 14 0 25 -10 32 -27 l11 -28 1 36 c1
34 -29 89 -49 89 -4 0 -10 -16 -12 -35z"/>
<path d="M3023 414 c-3 -8 -1 -20 6 -27 8 -8 11 -4 11 16 0 30 -7 35 -17 11z"/>
<path d="M3530 406 c-6 -9 -10 -21 -8 -28 3 -8 9 -4 17 10 15 28 9 39 -9 18z"/>
<path d="M2829 334 c-8 -10 -10 -21 -3 -31 16 -25 29 -19 32 15 4 35 -8 41
-29 16z"/>
<path d="M2934 256 c-62 -27 -57 -57 6 -36 27 9 40 19 40 32 0 21 -5 22 -46 4z"/>
<path d="M2805 240 c-3 -5 -1 -10 4 -10 6 0 11 5 11 10 0 6 -2 10 -4 10 -3 0
-8 -4 -11 -10z"/>
<path d="M3010 200 c0 -5 5 -10 10 -10 6 0 10 5 10 10 0 6 -4 10 -10 10 -5 0
-10 -4 -10 -10z"/>
</g>
</svg>
